<svg xmlns="http://www.w3.org/2000/svg" width="458" height="656" viewBox="0 0 458 656">
  <g fill="none" fill-rule="evenodd" transform="translate(0 -99)">
    <g transform="translate(0 403)">
      <path fill="#D5EAF5" d="M193.63484,332.29664 C194.969819,331.80384 195.683729,331.28864 195.683729,330.75744 C195.683729,327.35584 166.701556,324.60064 130.954847,324.60064 C95.2081389,324.60064 66.2291667,327.35584 66.2291667,330.75744 C66.2291667,330.77984 66.2451736,330.80224 66.248375,330.83104 C27.4827569,332.65184 0.811986111,336.45024 0.811986111,340.84064 C0.811986111,347.00384 53.3499792,351.99904 118.158896,351.99904 C182.964611,351.99904 235.505806,347.00384 235.505806,340.84064 C235.505806,337.41024 219.226743,334.34464 193.63484,332.29664"/>
      <path fill="#AACBE8" d="M89.869 332C89.284 332 88.807 331.4958 88.804 330.863141L88.066 169.143282C88.063 168.513835 88.54 168.003211 89.128 168L89.134 168C89.722 168 90.196 168.5042 90.199 169.133648L90.934 330.856718C90.937 331.486165 90.463 331.996789 89.875 332L89.869 332zM173.869 331C173.281 331 172.804 330.492588 172.801 329.863141L172.066 168.146494C172.063 167.513835 172.54 167.003211 173.128 167L173.131 167C173.719 167 174.196 167.507412 174.199 168.133648L174.934 329.853506C174.937 330.486165 174.463 330.996789 173.872 331L173.869 331z"/>
      <path fill="#AACBE8" d="M172.859069 206.5665L88.1441448 206.5665C87.5110085 206.5665 87 206.0895 87 205.5015 87 204.9105 87.5110085 204.4335 88.1441448 204.4335L172.859069 204.4335C173.488992 204.4335 174 204.9105 174 205.5015 174 206.0895 173.488992 206.5665 172.859069 206.5665M173.86423 249.5665L89.1389696 249.5665C88.5086971 249.5665 88 249.0925 88 248.5015 88 247.9105 88.5086971 247.4335 89.1389696 247.4335L173.86423 247.4335C174.491303 247.4335 175 247.9105 175 248.5015 175 249.0925 174.491303 249.5665 173.86423 249.5665"/>
      <polygon fill="#295A6E" points="86 170 177 170 177 166 86 166"/>
      <path fill="#295A6E" d="M86.8565451,170.058074 L177.143455,170.058074 L177.143455,166.945467 L86.8565451,166.945467 L86.8565451,170.058074 Z M86,171 L178,171 L178,166 L86,166 L86,171 Z"/>
      <path fill="#3B2B5B" d="M160.986347,164.679727 C161.237409,162.600721 157.96725,163.355221 156.006426,163 C156.610246,163.26435 157.217243,163.669137 156.346472,163.95827 C155.068917,164.385086 152.154694,164.250157 151.220363,163.492903 C150.962946,164.13175 150.97248,164.985382 151.042396,165.569156 C151.128202,166.320902 160.811557,166.128147 160.986347,164.679727"/>
      <path fill="#FF97A6" d="M156.530696,163.502817 C157.470195,163.187817 156.815289,162.746817 156.163812,162.455817 C154.854,162.215817 153.756776,162.062817 153.509901,161.984817 C152.865281,161.795817 152.638979,161.306817 152.638979,161.306817 L151.980644,161.237817 C151.980644,161.237817 151.078863,162.797817 151,162.995817 C152.008075,163.817817 155.152308,163.964817 156.530696,163.502817"/>
      <path fill="#3B2B5B" d="M135.9794,164.80777 C136.290501,162.713097 133.004902,163.401108 131.055764,163 C131.649394,163.281333 132.246198,163.701939 131.366864,163.974915 C130.081195,164.378808 127.176535,164.175468 126.262281,163.392751 C125.989275,164.030624 125.970228,164.89412 126.024194,165.487425 C126.090859,166.250644 135.763535,166.267357 135.9794,164.80777"/>
      <path fill="#FF97A6" d="M131.519051,163.572941 C132.469783,163.275941 131.824521,162.825941 131.182691,162.519941 C129.878437,162.252941 128.786983,162.069941 128.539862,161.991941 C127.898032,161.781941 127.685233,161.289941 127.685233,161.289941 L127.029674,161.208941 C127.029674,161.208941 126.085806,162.747941 126,162.945941 C126.985054,163.788941 130.125559,164.007941 131.519051,163.572941"/>
      <path fill="#30193B" d="M182,27 C182.96232,30.8611369 185.244579,35.1190323 189.399462,40.5349461 C194.357361,46.9927541 195.817097,53.8376434 205.541082,53.9989274 C212.729224,54.1182775 206.483896,44.2380248 206.483896,44.2380248 C206.483896,44.2380248 208.606852,46.883081 201.519494,39.9672268 C199.825681,38.3124538 192.748076,30.3159973 192.748076,30.3159973 C192.748076,30.3159973 188.073021,27.3515989 182,27"/>
      <path fill="#D3E7F2" d="M161.065183,23.0264047 C154.82035,27.0357217 150.992051,43.4847749 150,44.7839724 C152.918919,49.1571925 172.317965,60.6871711 175.00159,61 C175.030207,60.9201967 178.696343,54.4593227 182.737679,48.1389025 C187.065183,41.3683918 192,30.1193207 192,30.1193207 C171.786963,13.5170452 166.629571,19.4512175 161.065183,23.0264047"/>
      <path fill="#7F65C1" d="M149.600081,45 C149.523882,45.2818955 137.817843,51.736661 133.820581,58.6366932 C127.594505,69.3935679 127.486557,148.625414 127.00079,161.224219 C126.953166,162.457512 129.070857,161.941772 130.239238,161.563775 C130.705956,161.413218 131.06155,161.028815 131.182198,160.548311 L151.730472,79.9454278 L158.683611,106.155299 L150.28587,160.81419 C150.203321,161.35876 150.61924,161.845671 151.162156,161.845671 L154.892722,161.845671 C155.134018,161.845671 155.346739,161.707926 155.438813,161.486895 C157.077087,157.594815 171.431034,123.158721 172.901035,106.6326 C174.17419,92.3199981 175.879138,63.5986941 174.469461,60.1743048 C170.796044,58.6847436 155.600735,45.5637909 149.600081,45"/>
      <path fill="#FF97A6" d="M224.865499 59.9163331C225.580388 59.7941328 227.516418 60.2135773 227.516418 60.2135773 227.516418 60.2135773 230.317679 59.1864335 231.563365 59.0345087 232.072685 58.9684545 233.029962 58.9123083 232.99928 59.7214731 232.980871 60.1805502 232.428596 60.781644 232.290527 61.1086126 232.275186 61.1779696 231.529615 63.879589 230.695066 63.9753677 230.575407 63.9918813 230.446543 63.9819731 230.31461 63.972065 229.639608 64.0777518 228.648581 63.8729836 228.050284 63.5361068 227.952101 63.5394096 224.929931 62.3041948 224.135269 62.0003452 223.650494 61.818696 224.604702 60.239999 224.865499 59.9163331M230.84125 27.4964783C231.171287 26.637483 232.049473 25.1141567 231.997815 24.2860605 231.920328 23.1304337 231.199986 21.7708727 230.657577 20.8068204 230.439466 20.4144016 229.986024 19.7006321 229.503883 20.1363096 229.231243 20.3835025 229.145147 21.0818225 229.013132 21.3475548 228.981563 21.3939035 227.698723 23.3034687 228.066069 23.9461702 228.117727 24.0388676 228.192344 24.1253851 228.266961 24.2149925 228.54534 24.7464573 228.780671 25.1512357 228.955734 26.220345 229.004522 26.2914129 227.939794 27.8054695 228.0345 28.3276645 228.109117 28.7849714 228.726143 32.5052246 229.429266 30.3144774 229.693295 29.9622276 230.778113 27.8456383 230.84125 27.4964783"/>
      <path fill="#FF97A6" d="M230.723624,21.9139127 C230.723624,21.9139127 231.719624,20.0581976 232.166624,20.0006065 C232.616624,19.9430153 231.527624,24.0063915 231.677624,23.9999925 C231.806624,23.9967929 230.723624,21.9139127 230.723624,21.9139127"/>
      <path fill="#3B2B5B" d="M178,20.092881 C178,20.092881 171.742222,43.1422134 168.688785,49.3419091 C165.632138,55.5416049 149.770966,66 149.770966,66 C149.770966,66 138.488342,64.732606 136,54.9637754 C136,54.9637754 139.541472,50.705076 148.441709,44.428762 L150.429172,42.5069201 C150.429172,42.5069201 154.086232,25.146495 163.818057,19.7034048 C171.055118,15.6554057 178,20.092881 178,20.092881"/>
      <path fill="#AACBE8" d="M180.521369,22.9868069 C180.521369,22.9868069 176.652298,46.6574816 168,54.9485638 C168,54.9485638 172.619065,58.8608884 175.957024,60 C175.957024,60 186.041715,25.242819 185.99987,24.8525384 L181.844321,22 L180.521369,22.9868069 Z"/>
      <path fill="#FF97A6" d="M181.231324,17 C181.231324,17 177.798044,21.3169479 178.00937,22.1055606 C178.220696,22.8941733 179.638724,24.5185271 181.274202,23.8367384 C182.909681,23.1518078 184,18.4107057 184,18.4107057 L181.231324,17 Z"/>
      <path fill="#C95D77" d="M179,20.0461095 C179.893086,20.9221902 181.291933,21.8126801 182.866837,22 C183.356594,21.204611 183.743918,20.2334294 184,19.4956772 L180.651729,18 C180.15557,18.5792507 179.518566,19.3429395 179,20.0461095"/>
      <path fill="#30193B" d="M183.484498,23 L175,59.8371883 L175.438255,73 C175.438255,73 179.915397,72.7326203 181.479243,71.556794 L179.03258,59.4055151 L193,29.7456994 C193,29.7456994 184.922228,23.2995941 183.484498,23"/>
      <path fill="#3B2B5B" d="M192.923509,60.2006568 C201.004011,64.3200832 197.015862,51.1766973 197.015862,51.1766973 C197.015862,51.1766973 190.877333,43.7165941 184.628286,36.0880267 C180.359103,30.8719938 176.43095,24.8009255 172.831195,24.0476045 C171.261829,23.7202118 167.065273,25.1314968 167.002119,26.7462102 C166.790555,32.3214216 182.465275,54.8701954 192.923509,60.2006568"/>
      <path fill="#6C56B2" d="M151.471284,80.1262802 L158.501871,106.330866 L150.010591,160.968853 C149.927123,161.513247 150.347674,162 150.896637,162 L154.671966,162 C154.91274,162 155.127831,161.8623 155.22093,161.64134 C156.880662,157.750521 171.391281,123.325579 172.877656,106.80481 C174.164992,92.496843 175.88893,63.7848403 174.463551,60.3647624 C173.140902,59.8331772 167.789309,56 167.789309,56 L151.471284,80.1262802 Z"/>
      <path fill="#30193B" d="M204.838213,53.9998222 C211.92136,53.9611589 231.665112,44.7399786 230.982746,34.0109323 C230.662387,28.9363834 227.061547,27 227.061547,27 L202.864799,42.8776997 C202.864799,42.8776997 195.256263,54.0513731 204.838213,53.9998222"/>
      <path fill="#3B2B5B" d="M188.720587,56.228482 C193.426438,64.288435 214.031477,72.3940719 221.764822,67.531995 C225.082802,65.4501124 227,59.6645672 227,59.6645672 L195.511471,49.9371503 C195.511471,49.9371503 182.404162,45.417703 188.720587,56.228482"/>
      <path fill="#FFCA48" d="M194.464139,2.02864549 C194.136582,2.07443294 193.581021,2.0188339 193.275943,1.73756817 C193.022248,1.51517201 192.990134,1.05729757 192.69148,0.798925562 C191.085811,-0.555074575 188.860354,0.112113899 187.161556,0.622316849 C183.776806,1.63291115 183.596971,4.99174724 184.133264,4.98193565 C184.133264,4.98193565 182.071585,3.1013799 180.144782,4.3376409 C177.800505,5.83554443 178.359278,8.2034094 178.712525,8.00390697 C178.712525,8.00390697 177.119702,7.89597942 177.000882,10.1951632 C176.975192,10.6726609 177.517908,11.5851392 177.665629,12.0397431 C177.511485,12.6546031 176.988037,13.1876998 177.087588,13.9006757 C177.485794,16.7002508 179.332314,16.922647 179.746576,17.0927147 C180.465916,17.4263089 181.252694,17.6552461 181.9624,17.8089611 C182.074796,17.9822993 182.325281,18.0869563 182.527595,17.9038065 C185.607268,15.1238545 188.744745,15.2285116 191.519342,12.1084243 C192.816722,10.6497671 196.26891,8.09221132 196.911178,4.96231246 C197.344709,2.84954896 196.137246,1.80951987 194.464139,2.02864549"/>
      <path fill="#FF97A6" d="M187.058627,12.759967 C185.354514,11.0629361 181.138275,12.6396551 180.488221,13.3330315 C179.771339,14.0928961 180.011313,15.3498388 180.16927,16.2901712 C180.327227,17.2273375 181.754915,21.0963147 184.722686,20.9981655 C190.311935,20.8113655 187.058627,12.759967 187.058627,12.759967"/>
      <path fill="#FFE19F" d="M194,2.15378712 C193.705669,2.19568915 193.398256,2.17634975 193.110465,2.08287599 C192.806323,2.00874162 192.574128,1.74121325 192.469477,1.46723841 C192.351744,1.18359388 192.181686,0.990199876 191.916788,0.845154374 C191.674782,0.687215939 191.406613,0.567956305 191.135174,0.480929004 C190.016715,0.152159201 188.819767,0.342329969 187.691497,0.654983606 C187.125727,0.809698807 186.546875,0.983753409 186.023619,1.19326358 C185.506904,1.43500608 185.029433,1.74765972 184.62718,2.13444772 C184.228198,2.52445896 183.914244,2.99827426 183.718023,3.51076837 C183.613372,3.76862704 183.561047,4.03615541 183.521802,4.30046054 C183.518532,4.43261311 183.508721,4.56154244 183.528343,4.67757885 C183.531613,4.73559705 183.554506,4.77105261 183.564317,4.81617788 C183.570858,4.81617788 183.570858,4.81617788 183.567587,4.82584758 C183.564317,4.81617788 183.508721,4.77105261 183.476017,4.79683848 L183.299419,5.26420732 C182.772892,4.83874051 182.118823,4.50030101 181.458212,4.36170198 C180.791061,4.22632617 180.107558,4.32624641 179.538517,4.68402531 C178.949855,5.04825068 178.446221,5.54785185 178.15516,6.15381973 C178.007994,6.45358043 177.919695,6.78557347 177.896802,7.11112004 C177.886991,7.27550494 177.893532,7.43988984 177.922965,7.58815857 C177.936047,7.66551617 177.958939,7.72998084 177.981831,7.78799904 C177.991642,7.80089198 178.011265,7.82990108 178.001453,7.82345461 C177.994913,7.81056168 177.975291,7.80411521 177.958939,7.80733844 C177.926235,7.78799904 177.860828,7.79444551 177.831395,7.82345461 L177.939317,8.29404668 C177.618823,8.28760021 177.242733,8.44231542 176.997456,8.69372762 C176.755451,8.95480952 176.591933,9.30614196 176.510174,9.68970673 C176.461119,9.8702078 176.448038,10.0958341 176.431686,10.260219 C176.438227,10.4149342 176.500363,10.6115515 176.572311,10.7952758 C176.716206,11.1756173 176.915698,11.5333962 177.066134,11.9620863 C177.079215,11.9943186 177.079215,12.0329974 177.069404,12.0652297 C176.899346,12.6325188 176.526526,13.0386462 176.457849,13.518908 C176.418605,13.9701606 176.55923,14.5342265 176.726017,15.0080418 C176.905887,15.4915268 177.190407,15.9460027 177.59593,16.2844422 C177.988372,16.6422211 178.501817,16.8356151 179.011991,17 C178.495276,16.8678474 177.962209,16.7066858 177.527253,16.3682463 C177.085756,16.0426997 176.75218,15.5850006 176.529797,15.0853994 C176.323765,14.5729053 176.127544,14.0894203 176.153706,13.4770059 C176.232195,12.883931 176.611555,12.4359016 176.716206,11.9749792 L176.719477,12.0748994 C176.578852,11.7171205 176.356468,11.3432254 176.18968,10.9467677 C176.107922,10.743704 176.019622,10.5406403 176,10.2763352 C176.006541,10.0216998 176.013081,9.82830576 176.062137,9.60267943 C176.137355,9.16431969 176.307413,8.71306702 176.637718,8.35528811 C176.987645,8.00717891 177.445494,7.78799904 177.975291,7.79122228 C178.112645,7.79122228 178.227108,7.90081221 178.227108,8.03618801 C178.227108,8.13610825 178.168241,8.21991231 178.083212,8.26181435 C178.007994,8.29726991 177.896802,8.31016285 177.818314,8.29404668 C177.762718,8.26826081 177.707122,8.23602848 177.658067,8.19734968 C177.586119,8.12966178 177.559956,8.07486681 177.520712,8.01362538 C177.471657,7.90403544 177.435683,7.79444551 177.416061,7.69130204 C177.370276,7.48501511 177.363735,7.2819514 177.373547,7.08211094 C177.396439,6.68243 177.49782,6.28919553 177.667878,5.93141662 C178.001453,5.20941235 178.583576,4.63245358 179.234375,4.21343324 C179.911337,3.76862704 180.797602,3.62680477 181.575945,3.81052907 C182.360828,3.99103014 183.047602,4.35847874 183.662427,4.86452638 L183.675509,4.87741931 C183.786701,4.96766985 183.803052,5.12883152 183.711483,5.24164468 C183.652616,5.30933258 183.567587,5.33834169 183.485828,5.33189522 C183.384448,5.32222552 183.247093,5.27065378 183.194767,5.21263558 C183.148983,5.16106385 183.106468,5.09982242 183.070494,5.03858098 C183.037791,4.94188398 183.001817,4.83874051 182.995276,4.75171321 C182.972384,4.57443538 182.982195,4.41005048 182.992006,4.24566557 C183.037791,3.9297887 183.109738,3.6203583 183.234012,3.3302673 C183.462936,2.74363883 183.822674,2.21825179 184.277253,1.78311528 C184.728561,1.34797878 185.271439,1.01920898 185.84702,0.780689707 C186.435683,0.567956305 187.007994,0.41968757 187.596657,0.281088535 C188.75436,0.0167833994 190.036337,-0.183057069 191.210392,0.264972368 C191.494913,0.377785536 191.769622,0.519607804 192.014898,0.703332106 C192.273256,0.858047308 192.489099,1.14169184 192.574128,1.41888991 C192.718023,2.02163455 193.430959,2.19568915 194,2.15378712"/>
      <path fill="#3B2B5B" d="M197.936232,337.90013 C198.552487,335.135944 194.555071,335.728269 192.284485,335 C192.956763,335.433725 193.619154,336.055181 192.538237,336.333542 C190.959703,336.741373 187.522518,336.184651 186.527283,335.048551 C186.125235,335.870686 186.006597,337.02297 186.000006,337.819211 C185.99012,338.838788 197.50782,339.829234 197.936232,337.90013"/>
      <path fill="#FF97A6" d="M192.478912,335.884805 C193.463615,335.644172 192.860184,335.109741 192.244744,334.732002 C190.962829,334.340273 189.88506,334.060467 189.644888,333.956938 C189.023445,333.682728 188.855325,333.139903 188.855325,333.139903 L188.206862,333 C188.206862,333 187.108077,334.566916 187,334.776771 C187.909649,335.756094 191.040885,336.237361 192.478912,335.884805"/>
      <path fill="#3B2B5B" d="M149.936232,336.900299 C150.552487,334.135952 146.555071,334.728312 144.284485,334 C144.956763,334.43375 145.619154,335.055243 144.541533,335.33362 C142.959703,335.741474 139.522518,335.18472 138.527283,334.045317 C138.12853,334.870737 138.006597,336.023088 138.000006,336.816138 C137.99012,337.839012 149.50782,338.829516 149.936232,336.900299"/>
      <path fill="#FF97A6" d="M144.479655,335.884942 C145.464491,335.64453 144.857976,335.110592 144.245456,334.733201 C142.963367,334.339038 141.882448,334.062285 141.645247,333.958852 C141.020716,333.684894 140.855576,333.14257 140.855576,333.14257 L140.207025,333 C140.207025,333 139.105089,334.568268 139,334.775134 C139.909773,335.756349 143.041433,336.237173 144.479655,335.884942"/>
      <path fill="#3B2B5B" d="M151.893391,209.116751 C151.845622,209.449287 147.731083,212.237476 144.157931,220.691573 C138.594386,233.871522 137.154935,318.722642 138.435155,333.159195 C138.607125,335.103254 143.291712,333.383018 143.511451,330.978524 C144.871287,315.889688 165.287935,240.84839 165.287935,240.84839 L179.564621,271.189132 L186.656786,333.095246 L191.389143,333.315871 C191.389143,333.315871 196.691548,289.849536 195.924053,269.635164 C195.293496,253.133049 187.561221,213.778654 185.446628,210.085582 C181.019995,208.9281 158.851803,208.873743 151.893391,209.116751"/>
      <path fill="#D3E7F2" d="M191,180.116509 C189.297277,177.973997 186.883493,174.209342 180.21609,172.609685 C176.482217,171.713491 171.243316,171.938343 164.464312,172.436228 C162.701006,172.564715 158.743929,175.137657 157.570518,176.666646 C153.91636,181.414223 152.46235,207.153283 152,209.038822 C157.210204,212.385896 183.503557,213.635427 186.548688,212.697476 C186.548688,212.597899 187.881531,206.353454 189.274957,197.581038 C190.770419,188.188674 191,180.116509 191,180.116509"/>
      <path fill="#1F6864" d="M184.340753,185 C188.231818,184.325669 192.602866,182.379741 198.24747,178.664497 C204.986436,174.233177 216.134848,163.822787 216.973219,154.256916 C217.590798,147.182859 207.322354,153.836261 207.322354,153.836261 C207.322354,153.836261 203.680881,159.812121 196.775521,166.764155 C189.431776,174.156111 183,173.558846 183,173.558846 C183,173.558846 185.115126,179.046618 184.340753,185"/>
      <path fill="#FF97A6" d="M229.1627 130.825044C230.053628 130.197136 230.918059 129.416913 231.365179 128.580738 231.984523 127.40885 232.011019 125.646355 231.997771 124.378105 231.994459 123.858992 231.924907 122.889154 231.123403 123.010384 230.669659 123.088095 230.143052 123.709787 229.835036 123.886969 229.772108 123.911836 227.178814 124.97182 227.195374 125.823537 227.195374 125.944767 227.225182 126.078431 227.251678 126.208986 227.235118 126.895955 227.572941 127.868902 227.986941 128.431532 227.996877 128.531003 226.241518 131.291312 226.02955 131.857052 225.83083 132.345079 226.682014 131.406325 227.158942 131.65811 227.447085 131.813533 227.960445 131.745147 228.172413 131.689195 228.142605 131.794882 228.877869 131.126564 229.1627 130.825044M226.486805 162.859778C226.779553 161.868657 227.217168 160.852988 227.838881 160.177921 228.711092 159.242032 230.310647 158.616061 231.46957 158.195678 231.943401 158.020774 232.84881 157.750748 232.990657 158.490253 233.066108 158.910636 232.661692 159.579566 232.598313 159.907894 232.595295 159.9754 232.444394 162.586683 231.665742 162.865915 231.554075 162.905805 231.4243 162.924216 231.297543 162.942627 230.672811 163.194243 229.682897 163.234133 229.037039 163.065367 228.94348 163.086846 226.981761 165.556978 226.532075 165.934402 226.148785 166.271935 226.740319 165.213307 226.360047 164.884979 226.124641 164.685528 226.028064 164.216049 226.012974 164.013529 225.925451 164.074899 226.302705 163.206517 226.486805 162.859778"/>
      <path fill="#1F6864" d="M214.811764,161.696695 C221.191794,158.609247 237.697839,139.016934 229.991173,131.594875 C228.494702,130.152142 226.674583,129.440394 225.277449,129.090932 C224.027719,128.77353 222.72031,129.305738 222.024947,130.395803 L204,158.682987 C204,158.682987 206.185425,165.871003 214.811764,161.696695"/>
      <path fill="#357A5F" d="M174.49411 174.259707L167.523712 212.214081C167.523712 212.214081 158.484927 232.694915 156.080348 232.984814 153.675769 233.268341 143.247387 229.496477 142.209992 228.79881 141.169395 228.101143 143.971002 216.161157 151.178336 209.069799 151.178336 209.069799 154.501843 178.483939 158.097505 175.4639 161.850057 172.310062 169.870658 171.937335 173.344651 172.007421 174.330816 172.026535 175 172.11892 175 172.11892L174.49411 174.259707zM215.28115 160.59674C211.337237 162.616478 196.315989 172.185657 196.315989 172.185657 196.315989 172.185657 192.655376 181.932395 197.544682 180.927282 202.940108 179.820707 206.371535 178.97413 214.081106 176.586591 221.656984 174.243442 230 168.777152 230 163.662809 230 162.213798 219.225064 158.577003 215.28115 160.59674"/>
      <polygon fill="#AACBE8" points="177.288 173.947 176 212.958 186.225 214 187 178.696 178.81 172"/>
      <path fill="#FF97A6" d="M176.30962,167 C176.30962,167 173.571813,172.766981 174.057815,173.570882 C174.547056,174.377887 176.704901,175.73738 178.425346,174.505146 C180.14579,173.272911 179.99675,167.726304 179.99675,167.726304 L176.30962,167 Z"/>
      <path fill="#C95D77" d="M175,170.77666 C176.185383,171.534199 177.902555,172.170886 179.587047,171.958657 C179.851456,170.921094 179.958408,169.712569 180,168.798806 L176.087344,168 C175.748663,168.79291 175.323827,169.839316 175,170.77666"/>
      <path fill="#1F6864" d="M180,173 L180,213.071149 L184.649271,230.93895 C184.826748,231.623845 185.479611,232.073009 186.180013,231.990184 L195,229.817633 L189.244665,210.793474 C189.244665,210.793474 193.529474,187.156625 190.864145,180.46058 C188.195648,173.761349 180,173 180,173"/>
      <path fill="#357A5F" d="M196.46388,172 C196.46388,172 185.87318,175.335566 178.579344,175.587887 C176.335822,175.661737 162.916056,173.095444 159.084565,177.83724 C159.062289,177.864934 159.046377,177.898782 159.040012,177.93263 C158.228525,182.369794 169.684811,185.769979 200.3081,179.781961 C205.705284,178.729596 196.46388,172 196.46388,172"/>
      <path fill="#FF97A6" d="M230.874772 127.003725C230.874772 127.003725 232.329772 124.729497 232.623772 125.026801 232.914772 125.324106 231.864772 128.324738 230.784772 128.910153 229.704772 129.498632 230.874772 127.003725 230.874772 127.003725M229.309699 158.620251C229.309699 158.620251 230.656699 156.571251 231.424699 156.397251 232.192699 156.220251 231.052699 157.432251 231.034699 157.939251 231.016699 158.449251 229.309699 158.620251 229.309699 158.620251"/>
      <path fill="#3B2B5B" d="M185.636143,146.101715 C182.459526,145.486444 178.737332,147.783455 176.477543,149.736546 C173.940124,151.926279 171.680335,155.106755 171.380106,158.486012 C170.463277,158.205196 169.478655,158.429218 168.778121,159.161232 C167.64177,160.338135 167.916173,162.130308 168.548914,163.477594 C169.798254,166.18163 173.355807,169.557731 176.674468,168.917219 C178.098134,169.355796 179.518573,167.954872 180.403119,166.98937 C181.629861,165.642085 183.134235,163.906706 183.318246,162.054583 C185.855666,158.621687 189,153.49443 189,149.951102 C189,148.029563 188.079943,146.571845 185.636143,146.101715"/>
      <path fill="#FF97A6" d="M182.87703,165.325176 C182.983795,164.212608 181.217326,160.535869 181.217326,160.535869 C178.836152,158.863726 174.025274,161.55298 173.365275,162.504258 C172.637335,163.541118 173.161452,164.979556 173.52704,166.059207 C173.889392,167.135567 176.574684,172.207953 179.910268,170.733307 C183.546735,169.123705 183.048501,167.602977 182.87703,165.325176"/>
      <path fill="#7F65C1" d="M185,146.195625 C183.270404,146.012496 181.62103,146.597224 180.148146,147.38757 C178.659217,148.17149 177.308271,149.212434 176.095307,150.372251 C174.875926,151.512791 173.81699,152.826821 172.969841,154.250087 C172.141945,155.676565 171.535463,157.241193 171.381436,158.8508 L171.381436,158.87329 C171.352556,159.172079 171.089426,159.387336 170.790999,159.361634 C170.749283,159.358421 170.704358,159.348783 170.665852,159.335931 C169.732062,159.01144 168.653873,159.486932 168.207836,160.421854 C167.768217,161.340712 167.899781,162.574422 168.329774,163.644281 C168.756557,164.743055 169.462515,165.742232 170.235859,166.670728 C171.022039,167.592799 171.955829,168.395996 173.037227,169 C171.862771,168.591976 170.81667,167.849822 169.892507,167.001645 C168.965136,166.143831 168.191791,165.118951 167.620607,163.955922 C167.084721,162.80253 166.70928,161.376052 167.299717,160.000979 C167.607772,159.335931 168.121195,158.764055 168.801482,158.43635 C169.47535,158.092582 170.287202,158.057241 170.996368,158.278924 L170.280784,158.757629 C170.425184,156.932765 171.086217,155.201072 172.013589,153.681423 C172.928125,152.148923 174.118626,150.812403 175.44711,149.649373 C176.794847,148.515259 178.274149,147.548209 179.881807,146.83497 C181.479839,146.157072 183.31212,145.729771 185,146.195625"/>
      <path fill="#6C56B2" d="M78,203.674149 C78,203.674149 74.5865422,191.858315 73.1302995,188.280927 C72.495527,186.718791 72.4239595,185.302412 69.8164138,182.289042 C68.2761571,180.50827 66.2629327,180.749086 62,179 C62.5071956,182.735819 70.4480747,202.739402 72.3492804,205.933385 C74.3376118,209.28263 78,203.674149 78,203.674149"/>
      <path fill="#FF97A6" d="M86.5031187,183.061058 C86.3381187,182.97244 86.0861187,180.484309 86.3621187,179.512916 C86.5751187,178.75966 87.7211187,176.95321 88.0511187,177.000927 C88.3811187,177.045236 88.1771187,177.474695 88.1771187,177.474695 C88.1771187,177.474695 88.5071187,177.161122 88.6601187,177.450836 C88.7561187,177.631481 88.2701187,178.538115 88.1081187,179.29137 C88.0091187,179.748096 88.1111187,180.310481 87.9821187,180.583153 C87.9821187,180.583153 88.5701187,179.86739 88.7381187,180.102569 C88.9031187,180.33434 88.1261187,181.810176 87.7511187,182.151016 C87.6521187,182.246451 87.4241187,183.787047 87.2741187,183.957466 C87.0461187,184.223321 86.6831187,183.159901 86.5031187,183.061058"/>
      <path fill="#3B2B5B" d="M37.9626796,335.656273 C38.407769,332.858009 34.7664221,333.630302 32.6506351,333 C33.2892415,333.408657 33.9246227,333.997401 32.944136,334.326405 C31.5121094,334.807789 28.3352036,334.406058 27.3708433,333.308225 C27.038639,334.153245 26.9773586,335.313416 27.0063861,336.109952 C27.0418643,337.138522 37.6530523,337.606054 37.9626796,335.656273"/>
      <path fill="#FF97A6" d="M32.500228,334.7723 C33.4678608,334.4873 32.8408093,333.9743 32.2105748,333.6233 C30.9150929,333.2843 29.8328721,333.0503 29.5877809,332.9573 C28.9575464,332.7083 28.7665663,332.1683 28.7665663,332.1683 L28.1108678,332.0543 C28.1108678,332.0543 27.0954901,333.6803 27,333.8903 C27.9517177,334.8383 31.086975,335.1893 32.500228,334.7723"/>
      <path fill="#3B2B5B" d="M77.9626796,334.655124 C78.407769,331.85807 74.7664221,332.630029 72.6506351,332 C73.2860162,332.411942 73.9213974,332.99697 72.944136,333.325831 C71.5121094,333.807007 68.3352036,333.40545 67.3708433,332.308091 C67.038639,333.152746 66.9773586,334.312415 67.0063861,335.112068 C67.0418643,336.136731 77.6530523,336.607522 77.9626796,334.655124"/>
      <path fill="#FF97A6" d="M72.5022749,332.7723 C73.4670836,332.4873 72.8397987,331.9773 72.2125139,331.6233 C70.9165499,331.2843 69.8307421,331.0503 69.5887439,330.9573 C68.9550907,330.7083 68.7640395,330.1683 68.7640395,330.1683 L68.1112812,330.0543 C68.1112812,330.0543 67.0955256,331.6803 67,331.8903 C67.9520719,332.8383 71.088496,333.1893 72.5022749,332.7723"/>
      <path fill="#3B2B5B" d="M36.7400326,211.343653 C36.7113996,211.660061 30.5712085,218.652986 27.5901935,226.732563 C22.9421007,239.328137 25.611334,317.787604 27.4279398,331.258892 C27.6729111,333.07424 31.9869521,331.258892 32.0887583,328.9961 C32.7186847,314.792919 48.6259153,241.437521 48.6259153,241.437521 L67.5555198,330.46308 L72,330.46308 C72,330.46308 66.5629086,215.114975 64.4217953,211.743158 C60.2286493,210.851464 43.2460899,210.819504 36.7400326,211.343653"/>
      <path fill="#30193B" d="M63.6596221,212.322196 C61.8746714,211.951827 59.3705572,211.961405 53.9897893,212.053998 L57.1191221,212.006105 L48,242.060293 C48,242.060293 57.5564512,291.121448 67.2716368,331 L71.7971833,331 C71.7971833,331 77.6152804,250.444687 63.6596221,212.322196"/>
      <path fill="#FFE5B0" d="M71,183.476797 C68.8819282,180.262893 56.0698611,176.652799 47.7627448,177.026804 C45.7288778,177.11872 40.6636419,179.714565 39.5268787,180.988716 C35.789486,185.175665 36.56676,194.370471 36.2785209,198.040786 C35.9060771,202.769725 36.9877835,209.077089 36.0485773,213.904283 C34.6365295,221.178354 64.4708981,217.048456 65.3064677,214.544528 C66.9646523,209.571536 67.735449,205.818812 68.6778938,198.329213 C69.7757934,189.58765 71,183.476797 71,183.476797"/>
      <path fill="#FF97A6" d="M57.5495398,171 C57.5495398,171 55.5822605,177.025378 56.0810074,177.78897 C56.5797543,178.559232 58.6086072,179.746301 60.0371167,178.362498 C61.4625475,176.975361 60.8837549,171.420143 60.8837549,171.420143 L57.5495398,171 Z"/>
      <path fill="#C95D77" d="M56,175.161812 C57.2943448,175.768865 59.1195347,176.218317 60.8365896,175.888524 C61.0168148,174.904983 61.0200916,173.775514 60.9774929,172.929143 L57.4876773,171 C57.2091474,171.761734 56.2490385,174.265826 56,175.161812"/>
      <path fill="#FF97A6" d="M64.9009454,169.850373 C64.9941405,169.092718 64.2419229,166.937267 63.7593054,165.922936 C63.5596016,165.505453 62.8406679,164.268465 62.3746924,164.126211 C59.8550963,163.353094 55.9974847,166.35279 55.3850597,167.132092 C54.6394989,168.075295 55.1454152,169.401965 55.4948968,170.39774 C55.8477068,171.390423 58.4704833,176.0817 61.8454774,174.770493 C65.5200271,173.344864 65.040738,171.943975 64.9009454,169.850373"/>
      <path fill="#7F65C1" d="M39.1968709,182.120866 C38.4731553,184.617802 39.863451,187.240067 41.4346756,190.35722 C44.631086,196.704001 52.5697379,204.185169 54.9345103,206.479651 C59.3974229,210.81153 64,204.509739 64,204.509739 C64,204.509739 55.6614,195.8267 51.309584,188.377667 C50.2716236,186.600569 46.4276782,179.620716 44.8532794,178.447767 C42.6789585,176.831346 39.8253607,179.9485 39.1968709,182.120866"/>
      <path fill="#F9CB9D" d="M70,182.651386 C69.0541387,181.13653 66.0411633,179.647568 62.0854586,178.294555 C61.8286353,178.20716 61.0675615,178 61.0675615,178 C61.0675615,178 63.2129754,188.134648 61.1239374,197.443894 C58.6841163,208.319786 56,216.978421 56,216.978421 C56,216.978421 56.2975391,217.026974 56.5888143,216.978421 C61.0706935,216.266309 64.2308725,215.217562 64.4939597,214.379212 C66.0975391,209.300559 66.842953,205.468102 67.7543624,197.819371 C68.8161074,188.892077 70,182.651386 70,182.651386"/>
      <path fill="#6C56B2" d="M79.6567682,185.258504 C77.8915657,188.719352 72,204.099452 72,204.099452 C72,204.099452 75.9093567,210.353722 78.9830763,207.023103 C82.3709695,203.344121 81.6519329,202.992501 85.3993444,196.640559 C87.3232532,193.381567 89.9014205,189.11004 88.6868316,185.61989 C87.6179934,182.549731 85.1661433,181 85.1661433,181 C85.1661433,181 81.4219707,181.7944 79.6567682,185.258504"/>
      <path fill="#7F65C1" d="M55.9836555,177.412311 C55.9836555,177.412311 56.5060347,209.298271 51.6443831,217.88234 C51.6443831,217.88234 43.3888692,235.955405 39.4790373,236.873079 C35.5660006,237.787566 25.0126592,233.460481 25.0126592,233.460481 C25.0126592,233.460481 24.169802,225.529617 36.2390044,212.105459 C36.2390044,212.105459 33.9892487,189.0298 38.0625244,182.408532 C39.7354197,179.690562 44.1035352,177.272111 47.6287934,177.055438 C51.4456867,176.819647 55.9836555,177.412311 55.9836555,177.412311"/>
      <path fill="#6C56B2" d="M62.5313155,179 C62.5313155,179 65.598603,189.007774 64.0405122,202.530412 C62.4824214,216.056245 62,217.248103 62,217.248103 C62,217.248103 66.0125728,233.643343 67.7108265,235.573322 C69.4090803,237.506497 76,232.243788 76,232.243788 C76,232.243788 69.3406286,215.187115 69.0016298,215.321319 L68.4735739,198.967619 L71.355064,183.633229 C71.355064,183.633229 70.2044237,180.981105 62.5313155,179"/>
      <path fill="#FF97A6" d="M86.5972177,201.365898 C86.3932177,201.467898 86.4502177,201.422898 86.3182177,201.602898 C86.3032177,201.623898 86.3332177,201.650898 86.3512177,201.638898 C86.4532177,201.575898 86.5522177,201.521898 86.6572177,201.464898 C86.7232177,201.428898 86.6632177,201.329898 86.5972177,201.365898"/>
      <path fill="#FF97A6" d="M89.5535453,199.74772 C89.571415,199.728156 90.1462236,199.431435 89.9645484,199.111889 C89.887113,198.974941 89.1544553,199.16406 89.0472371,199.21623 C89.3361306,199.014069 89.5058927,198.720608 89.3420872,198.590181 C89.1455205,198.433669 87.1024182,199.278183 87.0279611,199.340136 C87.2007015,199.062979 87.7189228,198.332588 87.5849001,198.074995 C87.5670304,198.039128 87.5193778,198 87.4747036,198 C87.2751586,198.029346 86.679502,198.73039 86.5276095,198.978201 C86.2744554,199.395567 85.9766271,199.835758 85.7770821,200.302034 C85.6341246,200.422678 85.3392745,201.420444 85.2677957,201.4987 C84.91338,201.518264 84.1866789,201.93889 84.0526562,202.333432 C83.9543728,202.610589 83.9990471,202.382342 84.1420047,202.646456 C84.1688092,202.695366 84.2134835,202.71493 84.2492229,202.757319 C84.1956138,202.747537 84.1509395,202.747537 84.1062653,202.747537 C84.0526562,202.734494 84.040743,202.81275 84.0794607,202.845357 C84.9908154,203.10295 86.417413,203.089907 87.5283127,202.408427 C87.8112496,202.268218 88.0882299,202.114967 88.3532971,201.945412 C88.4337108,201.883459 88.5230593,201.83781 88.6064512,201.785639 C88.6392123,201.766075 88.6838866,201.736729 88.740474,201.697601 C88.8030179,201.658473 88.8744967,201.616084 88.9400189,201.570435 C89.1365856,201.443268 89.4999362,200.954168 89.6160892,200.774831 C89.6965029,200.52702 89.4820665,200.507456 89.4105877,200.507456 C89.4195225,200.491153 89.9109393,200.112915 89.8900913,199.94336 C89.8573302,199.620553 89.6071544,199.79989 89.5535453,199.74772"/>
      <path fill="#7F65C1" d="M82.0403045,206.827614 C77.8169745,210.327091 51.8357224,209.538476 55.3206174,204.896125 C57.1505111,202.45943 55.4274961,200.669645 55.4274961,200.669645 L80.5083758,199 C80.5083758,199 89.4991456,200.64192 82.0403045,206.827614"/>
      <path fill="#80540A" d="M65.5395759,171.650021 C64.9861739,169.994431 63.9497447,167.88644 64.0073241,168.3613 C64.2152497,170.180524 64.5063455,172.689578 61.8768863,173.684215 C59.5065343,174.579389 57.6352038,174.284206 56.2820879,172.317391 C55.5911351,170.786932 55.3576186,169.907801 55.0217388,168.265044 C54.973756,167.729223 55.3416244,166.378441 56.4228375,166.218016 C58.869962,165.849037 60.7956731,165.43514 62.8269464,163.968851 C64.0425115,163.099346 64.6662883,161.228785 64.7526574,159.788165 C65.0981338,158.132574 64.4999478,155.921912 63.0700594,154.29199 C62.6478105,153.810713 61.8896817,153.942262 62.1136016,154.555087 C63.4667175,158.097281 57.7983454,157.288737 56.4196387,156.855588 C55.6263225,156.608533 54.9193754,156.133674 54.0524856,156.197844 C53.0000621,156.255597 52.1043825,156.929384 51.4230263,157.686592 C49.8747802,159.415978 49.4269404,161.966742 50.9016128,163.84372 C50.2202566,164.154945 49.8843768,164.8544 50.1818703,166.195556 C50.6904884,168.508891 52.3922795,170.796558 54.3115929,172.192259 C54.3499791,172.962301 54.3499791,174.030734 54.5483082,174.903449 C54.6218819,175.577235 54.7978189,176.17081 55.1177045,176.494869 C56.147736,177.528009 59.2090407,177.9772 60.5749521,177.999659 C61.8896817,178.012493 64.5223398,177.665974 65.3284514,176.395405 C66.134563,175.140878 66.2273298,173.546249 65.5395759,171.650021"/>
      <path fill="#C97B14" d="M54.83377,173 C54.2190997,172.593224 53.6532127,172.1116 53.119848,171.594181 C52.5897355,171.076761 52.0791363,170.530054 51.6465905,169.915008 C50.7880033,168.694678 50.1278019,167.246554 50.0822707,165.665008 C50.0790185,165.642228 50.0822707,165.616194 50.0887752,165.596669 C50.1570719,165.281011 50.2578908,165.01742 50.4400154,164.744066 C50.6156355,164.480475 50.9213445,164.223392 51.3018547,164.155054 L51.0481813,164.750574 C50.5701043,163.995597 50.2448819,163.211332 50.085523,162.342458 C49.9326684,161.483346 49.9684429,160.546133 50.3261875,159.706547 C50.6741755,158.86696 51.3311248,158.196593 51.9945785,157.685681 C52.6612844,157.171516 53.4158004,156.686639 54.3166664,156.51742 C55.2240369,156.318913 56.1509208,156.598775 56.8859234,156.937213 C57.6274305,157.288668 58.3364153,157.509954 59.1429669,157.60758 C59.9235006,157.701953 60.7268,157.724732 61.4975771,157.558767 C62.2423364,157.415582 63.0456357,156.885145 62.9708345,156 C63.0553924,156.397014 62.9578256,156.859112 62.6553688,157.178025 C62.3659209,157.493683 61.975654,157.701953 61.5788827,157.835375 C60.7755833,158.108729 59.9235006,158.164051 59.0941835,158.105475 C58.2713708,158.069678 57.3965226,157.8549 56.6452588,157.549005 C55.8907428,157.275651 55.1720013,157.099923 54.4662687,157.25938 C53.7572839,157.409074 53.1003346,157.835375 52.4986732,158.320253 C51.8937595,158.814893 51.3864126,159.3616 51.1197302,160.044985 C50.5440865,161.379211 50.9083356,163.042113 51.6856172,164.317764 L51.6953738,164.334035 C51.8059495,164.516271 51.7474094,164.753828 51.5685371,164.864472 C51.5262582,164.890505 51.4774748,164.906776 51.4319437,164.913285 C51.2986025,164.936064 51.1717658,165.020674 51.0579379,165.176876 C50.9473623,165.329824 50.8530478,165.55111 50.8107689,165.7366 L50.8172734,165.668262 C50.8237778,166.3549 50.9148401,167.048047 51.1294869,167.721669 C51.3571425,168.392037 51.6661038,169.039625 52.0368574,169.657925 C52.7946256,170.884763 53.7507794,172.004211 54.83377,173"/>
      <path fill="#30193B" d="M185.43881,213.929258 C183.58717,213.447065 178.640967,213.156473 173,213 L175.95115,214.868095 C175.95115,214.868095 188.418642,265.921017 189.419356,282.756226 C190.209729,296.040457 190.126867,321.823363 190.056754,332.936134 L191.385727,333 C191.385727,333 196.69206,289.589941 195.923996,269.401741 C195.29616,252.920991 187.558156,217.617548 185.43881,213.929258 Z"/>
    </g>
    <g transform="translate(226 357)">
      <path fill="#D5EAF5" d="M231.41808,379.43424 C231.41808,373.26784 184.171983,368.27264 125.893899,368.27264 C67.6126146,368.27264 20.3697188,373.26784 20.3697188,379.43424 C20.3697188,381.61664 26.3178993,383.64864 36.5623438,385.37024 C32.5157882,386.16384 30.217191,387.06624 30.217191,388.02624 C30.217191,391.10784 53.8402396,393.60704 82.9792813,393.60704 C103.404142,393.60704 121.104622,392.37824 129.873226,390.58304 C186.307309,390.36224 231.41808,385.45664 231.41808,379.43424"/>
      <path fill="#FF97A6" d="M7.18924974,162.752302 C7.19224998,162.765679 7.88230401,165.631562 7.99331271,167.176531 C8.10132116,168.724844 6.86522437,167.614607 6.86522437,167.614607 L6.3011802,166.21009 L4,162.367732 L6.08216305,161 L7.18924974,162.752302 Z"/>
      <path fill="#D3E7F2" d="M23.9220848,206.685608 C24.6601384,205.371311 26.0560224,208.621791 25.9982617,206.534945 C25.760801,197.649019 18.4059361,179.441206 12.9090411,169.548722 C11.516366,167.041942 8.29139249,166.230925 5.89753159,167.80808 C5.86544231,167.827314 5.83335302,167.849753 5.80126373,167.872192 C-0.735324278,172.177314 2.69822956,177.924957 4.79366008,182.710919 C6.88588167,187.500086 15.4152145,200.790508 15.4152145,200.790508 C15.4152145,200.790508 19.2338398,207.906942 20.8575578,210.10919 C22.5839615,212.446073 22.1732186,209.791835 23.9220848,206.685608"/>
      <path fill="#AACBE8" d="M108.665568,363 C108.435952,363 108.199957,362.932727 108.002232,362.788571 L81.4719889,343.580526 C81.165834,343.356283 80.9872435,342.99429 81.0031891,342.61628 C81.0159456,342.23827 81.2168598,341.889091 81.5357712,341.687272 L107.718401,325.339932 L81.5357712,308.986185 C81.2041033,308.777959 81,308.412763 81,308.018735 C81,307.624707 81.2041033,307.259511 81.5357712,307.051285 L107.718401,290.703945 L81.5357712,274.356605 C81.2041033,274.148379 81,273.77998 81,273.385952 C81,272.995128 81.2041033,272.629932 81.5357712,272.421706 L107.718401,256.074366 L81.5357712,239.733433 C81.2041033,239.525207 81,239.160011 81,238.765983 C81,238.371955 81.2041033,238.003556 81.5357712,237.798533 L107.718401,221.451193 L81.5357712,205.107057 C81.0031891,204.770692 80.8405443,204.072334 81.1722122,203.537353 C81.500691,203.002373 82.2022962,202.842199 82.7348783,203.168954 L110.464229,220.486947 C110.799086,220.691969 111,221.057166 111,221.451193 C111,221.845221 110.799086,222.213621 110.464229,222.418643 L84.2815988,238.765983 L110.464229,255.106916 C110.799086,255.318345 111,255.680338 111,256.074366 C111,256.468393 110.799086,256.83359 110.464229,257.045019 L84.2815988,273.385952 L110.464229,289.733292 C110.799086,289.941518 111,290.309918 111,290.703945 C111,291.097973 110.799086,291.459966 110.464229,291.668192 L84.2815988,308.018735 L110.464229,324.369278 C110.799086,324.580708 111,324.945904 111,325.339932 C111,325.730756 110.799086,326.095952 110.464229,326.307382 L84.1699798,342.725198 L109.328904,360.936961 C109.835973,361.305361 109.950781,362.016533 109.584033,362.529089 C109.363984,362.833419 109.016371,363 108.665568,363"/>
      <path fill="#AACBE8" d="M55.6595318,363 C55.3119432,363 54.9643545,362.836623 54.7411324,362.532292 C54.3744103,362.02294 54.4860214,361.311768 54.9898656,360.940165 L79.8408628,342.731605 L53.5325441,326.307382 C53.2008999,326.095952 53,325.730756 53,325.339932 C53,324.945904 53.2008999,324.580708 53.5325441,324.369278 L79.7164962,308.018735 L53.5325441,291.668192 C53.2008999,291.459966 53,291.097973 53,290.703945 C53,290.309918 53.2008999,289.941518 53.5325441,289.733292 L79.7164962,273.385952 L53.535733,257.045019 C53.2008999,256.83359 53,256.468393 53,256.074366 C53,255.680338 53.2008999,255.318345 53.535733,255.106916 L79.7164962,238.765983 L53.5325441,222.418643 C53.2008999,222.213621 53,221.845221 53,221.451193 C53,221.057166 53.2008999,220.691969 53.5325441,220.486947 L81.2662953,203.168954 C81.8020283,202.842199 82.5003946,203.002373 82.82885,203.537353 C83.1604942,204.072334 82.9946721,204.770692 82.4653169,205.107057 L56.2813648,221.451193 L82.4653169,237.798533 C82.7937722,238.003556 82.997861,238.371955 82.997861,238.765983 C82.997861,239.160011 82.7937722,239.525207 82.462128,239.733433 L56.2813648,256.074366 L82.462128,272.421706 C82.7937722,272.629932 82.997861,272.995128 82.997861,273.385952 C82.997861,273.77998 82.7937722,274.148379 82.4653169,274.356605 L56.2813648,290.703945 L82.4653169,307.051285 C82.7937722,307.259511 82.997861,307.624707 82.997861,308.018735 C82.997861,308.412763 82.7937722,308.777959 82.4653169,308.986185 L56.2813648,325.339932 L82.4653169,341.687272 C82.7810167,341.885887 82.9851055,342.235066 82.997861,342.613076 C83.0138054,342.991087 82.8384166,343.353079 82.5322835,343.577323 L56.3260093,362.782164 C56.1251094,362.929524 55.8923206,363 55.6595318,363"/>
      <polygon fill="#295A6E" points="44 206 117 206 117 199 44 199"/>
      <path fill="#295A6E" d="M117.244357,204.574413 L76.4523658,204.574413 L51.4045402,204.574413 C49.7976023,204.574413 46.8069124,205.15266 45.2796837,204.574413 C44.2115802,204.172155 45.6399694,205.693195 45.4677975,204.29786 C45.2382349,202.453128 45.4677975,200.413551 45.4677975,198.553106 C44.8970795,198.839086 44.3263614,199.121924 43.7588318,199.40162 L84.5476342,199.40162 L109.601837,199.40162 C111.205586,199.40162 114.193088,198.826516 115.720316,199.40162 C116.78842,199.803878 115.360031,198.282838 115.535391,199.678172 C115.764953,201.522905 115.535391,203.568767 115.535391,205.42607 C115.535391,206.450572 118,205.947749 118,205.130661 L118,198.553106 C118,198.144562 117.620584,198 117.244357,198 L44.7089657,198 C44.313608,198 43,198.22627 43,198.851657 L43,205.42607 C43,205.834614 43.3794159,205.979175 43.7588318,205.979175 L116.291034,205.979175 C117.23798,205.979175 118.902308,204.574413 117.244357,204.574413"/>
      <polygon fill="#295A6E" points="55 375 110 375 110 361 55 361"/>
      <path fill="#295A6E" d="M110.223587,374.444651 L72.5386658,374.444651 C67.0652727,374.444651 60.8635911,375.277 55.4383228,374.444651 C54.1582033,374.24709 55.5281558,374.881877 55.4896559,374.791193 C55.0501162,373.777477 55.4896559,371.724134 55.4896559,370.635927 L55.4896559,360.62831 C54.9185751,360.932749 54.3474942,361.233949 53.7796216,361.538388 L91.4613342,361.538388 C96.9347273,361.538388 103.139617,360.7028 108.561677,361.538388 C109.841797,361.73271 108.471844,361.097923 108.513552,361.188607 C108.953092,362.205562 108.513552,364.255666 108.513552,365.343873 L108.513552,375.35149 C108.513552,376.472084 111,375.983039 111,375.072961 L111,360.62831 C111,360.204039 110.624627,360 110.223587,360 L54.7100343,360 C54.2801195,360 53,360.229948 53,360.906839 L53,375.35149 C53,375.779 53.3785817,375.983039 53.7796216,375.983039 L109.289966,375.983039 C110.29417,375.983039 111.895121,374.444651 110.223587,374.444651"/>
      <path fill="#30193B" d="M58.0050426,198.362913 C57.866774,197.501913 60.6044922,196.511913 62.2237712,196.211913 C61.778239,196.478913 61.2313099,196.862913 61.9042171,197.081913 C62.8905331,197.405913 65.0936128,197.150913 65.7726652,196.433913 C65.993895,196.991913 66.0184761,197.756913 65.9908223,198.278913 C65.9508781,198.953913 58.0972216,198.932913 58.0050426,198.362913"/>
      <path fill="#FF97A6" d="M61.6239138,197.562593 C60.8627042,197.343593 60.6506778,196.851593 61.8359402,196.713593 C62.8960723,196.587593 63.7719847,196.263593 63.9631561,196.194593 C64.4706291,196.008593 64.6896072,195.300593 64.6896072,195.300593 L65.6385123,195.303593 C65.6385123,195.303593 65.9304831,196.752593 66,196.914593 C65.2318387,197.628593 62.7396594,197.883593 61.6239138,197.562593"/>
      <path fill="#30193B" d="M87.9874319,198.418998 C88.2090022,197.455998 85.4486047,196.528998 83.8391422,196.207998 C84.2792056,196.480998 84.8115899,196.870998 84.1284146,197.083998 C83.1344254,197.389998 80.9371859,197.107998 80.2786295,196.378998 C80.0416723,196.936998 79.9893571,197.698998 80.0016665,198.223998 C80.0170534,198.898998 87.8581825,198.982998 87.9874319,198.418998"/>
      <path fill="#FF97A6" d="M83.356509,197.593303 C84.1296065,197.383303 84.3594463,196.894303 83.1754231,196.738303 C82.1237319,196.600303 81.256609,196.270303 81.0685582,196.195303 C80.5670896,196.003303 80.3755564,195.289303 80.3755564,195.289303 L79.4248554,195.283303 C79.4248554,195.283303 79.0766133,196.732303 79,196.891303 C79.7452382,197.617303 82.2316869,197.902303 83.356509,197.593303"/>
      <path fill="#FF97A6" d="M88.6153466,83.7398075 C84.4565243,76.6390361 79.0400844,71.4957746 77.611997,71 C76.1581782,72.0395274 72.6008252,74.1441704 68.1300108,75.6602811 C62.0349078,77.7233431 58.8120618,77.9248514 57.9307646,78.0591904 C56.7085275,78.977173 54.8430079,84.6290032 52.9067271,92.698934 C47.9888313,113.169626 64.6787995,194.75813 64.6787995,194.75813 L65.6598055,195.327471 C65.6598055,195.327471 67.2647957,159.135927 69.5548819,132.786307 C71.0087007,116.051516 72.2920495,99.5758073 72.3949748,99.3615047 C75.2993959,106.286356 76.8111101,182.219831 80.2655379,194.681365 C80.8509251,196.786008 81.4781257,196.139902 81.503857,194.364709 C81.6904089,181.564129 99.1683983,101.750818 88.6153466,83.7398075"/>
      <path fill="#3B2B5B" d="M56.2765481,79.8173192 C56.2765481,79.8173192 51.3044645,86.6244559 51.0114269,105.313721 C50.7183893,124.002986 56.158696,149.592068 56.158696,149.592068 C56.158696,149.592068 73.0051725,151.707713 84.0004527,150.752157 C94.9989181,149.796601 94.4319541,148.716408 94.4319541,148.716408 C94.4319541,148.716408 100.372336,99.8967744 89.1286107,83.7833552 C81.6338556,73.0389452 76.8911059,71 76.8911059,71 L56.2765481,79.8173192 Z"/>
      <path fill="#30193B" d="M71.5802067,150.850636 C71.5802067,150.850636 73.0055699,150.911356 73.7245584,150.933727 C77.3131941,151.048776 80.9617455,151.029601 84.1215109,150.751565 C95.0104028,149.796017 94.4459337,148.715831 94.4459337,148.715831 C94.4459337,148.715831 100.330287,99.89656 89.1985789,83.7832603 C81.7784912,73.03893 77.0829917,71 77.0829917,71 L65.3805074,76.0557795 L62,78.2992417 C62,78.2992417 72.3748782,91.7280566 76.6194333,121.429962 C78.7795523,136.53658 71.5802067,150.850636 71.5802067,150.850636"/>
      <path fill="#FF97A6" d="M9.56094543 4.98778437C9.31393731 4.02400626 8.91597979 3.02512364 8.30532083 2.34218154 7.45108442 1.39755133 5.81465564.705035269 4.62421374.239102804 4.14048951.0444323898 3.20734773-.265125481 3.01866098.433773217 2.91231026.829496681 3.29311444 1.49329088 3.3411438 1.8124227 3.3411438 1.87305775 3.3411438 4.38781654 4.14048951 4.69737441 4.25370157 4.74205287 4.38749763 4.76758341 4.52129369 4.79311396 5.159398 5.06756733 6.19202916 5.16649819 6.87816282 5.04203678 6.97422153 5.06756733 8.87824244 7.54083898 9.32765999 7.93017981 9.7050335 8.2780335 9.1526959 7.22808979 9.57123744 6.93448851 9.82853756 6.75896601 9.95890295 6.31537277 9.9863483 6.12070235 10.072115 6.18452872 9.73247885 5.33244674 9.56094543 4.98778437M5.73013667 21.5972978C5.95127418 20.7082696 6.08456254 19.7329923 5.93915706 18.9268958 5.73316595 17.7990241 4.88496727 16.5616825 4.25487682 15.6859233 3.99738793 15.3276582 3.47938088 14.6874252 3.06436939 15.1783811 2.82808547 15.4570317 2.82202691 16.1569756 2.72508992 16.4356263 2.70085567 16.4853853 1.67695869 18.5321407 2.10408731 19.1126629 2.16467293 19.1955946 2.24646352 19.2752091 2.32522482 19.3515063 2.65541645 19.8391449 3.33094612 20.3466872 3.85501173 20.529137 3.90953879 20.5888479 4.21852545 23.395258 4.3699895 23.8961657 4.49419002 24.3340453 4.53659995 23.2492981 4.94555289 23.18627 5.19395393 23.14978 5.42720857 23.7269849 5.52717484 23.5810251 5.56049693 23.6672741 5.7089317 21.9489284 5.73013667 21.5972978"/>
      <path fill="#FF97A6" d="M4.852,17.899301 C4.852,17.899301 5.563,16.109226 5.968,16.0020736 C6.373,15.8949212 5.968,19.9761663 5.968,19.9950756 C5.968,20.1179857 4.852,17.899301 4.852,17.899301"/>
      <path fill="#FF5E4D" d="M56.7900712,47.6942683 C56.7262485,43.6563369 51.0109317,40.7246439 48.2888963,37.6155658 C46.6550369,35.7546341 44.185101,33.7324432 41.5492262,34.0291602 C40.1036435,34.1904195 38.8176175,35.0354179 38.4825486,36.4415985 C37.1550379,36.2093852 35.6903084,36.9189258 34.73616,38.0509657 C33.1342119,39.9538247 32.917215,42.6500793 32.4640743,45.1560479 C31.439721,48.2328742 29.1165771,50.7646443 27.7763018,53.7543906 C26.4998491,56.5893281 25.8009913,59.7209826 26.0498995,62.8429615 C26.4168797,67.284041 28.6251428,69.9061162 31.829039,71.5477353 C31.7652164,71.576762 31.7237317,71.6315901 31.7237317,71.7057694 C31.8800972,79.5107166 43.0362936,79.2978544 47.191147,75.1857438 C50.098268,72.3088789 51.8693461,67.790395 52.8617881,63.8782458 C54.1190939,58.9501634 57.9293052,52.5933241 56.7900712,47.6942683"/>
      <path fill="#F9CB9D" d="M56.8769571,48.5484962 C58.5000635,49.1458295 67.7713482,55.914524 65.699835,51.531916 C65.084065,50.2236264 62.349415,45.7014243 60.0379094,41.9810771 C55.7938336,35.147455 39.7143439,22.3729645 32.1640572,22.006124 C27.3357894,21.7723849 32.0945857,28.3073403 32.0945857,28.3073403 L48.7930031,40.7734251 C48.7930031,40.7734251 56.0148792,48.2303514 56.8769571,48.5484962"/>
      <path fill="#FFE5B0" d="M12.2369757,52.4012652 C11.6072845,53.5973629 12.3037611,54.8393382 13.4868173,55.4455795 C19.7646478,58.6471888 36.0348509,62.8908777 38.7126287,62.9302014 C40.4585907,62.9564173 41.9978359,62.999018 41.9978359,62.999018 C43.8551069,63.1006044 44.5961072,55.2915614 45,52.9976756 C44.0745447,53.8595213 43.6579309,54.393669 39.2405516,54.0200933 C31.9323173,53.4040211 20.2766695,49.5699547 17.2268014,49.0554688 C14.774822,48.6392924 13.1592507,50.6448041 12.2369757,52.4012652"/>
      <path fill="#F9CB9D" d="M12.9891712,2.00030973 C21.1168894,1.9119454 38.4983401,20.7556389 42.7918679,27.0074153 C44.2847141,29.181809 37.2574915,32 37.2574915,32 L27.9750504,26.4488265 C27.9750504,26.4488265 13.6973162,18.899988 10.5138535,14.0020794 C9.05290576,11.7551007 7.12305116,2.06342711 12.9891712,2.00030973"/>
      <path fill="#FFE5B0" d="M.343969717 32.7604068C1.08969572 36.4210467 8.913499 49.5341173 10.9358068 53.7267533 11.3213092 54.5247475 12.5789319 55.5222402 13.4352528 55.7470718 14.6739164 56.0732361 20.8545946 56.7508978 19.9003181 52.6374279 18.5573793 46.8234705 15.2837686 39.4071915 12.9454752 32.0289122 11.106439 26.2149548 6.34769599 23.2478098 4.23691222 22.180651 3.60494104 21.86082 2.84341576 21.9716525 2.33467895 22.4656489 1.12129428 23.6531402-.78409885 27.225114.343969717 32.7604068M38.0220591 62.2519309C38.0220591 62.2519309 40.0263818 57.2043926 42.3243315 54.9713951 47.9447334 49.5061738 57.4780329 45.7181104 61.7356229 47.4049071 68.1922232 49.9656251 78 71.9871575 78 71.9871575 78 71.9871575 74.8945764 75.7816469 65.2655289 80.3472432 61.0175137 82.3585475 56.179053 81.969781 56.179053 81.969781 56.179053 81.969781 54.4236748 79.6146915 45.4872039 68.9669882 43.1541466 66.1845769 37.6071515 61.8728033 38.0220591 62.2519309"/>
      <path fill="#FF97A6" d="M43,49.3141807 C43,49.3141807 45.8524156,52.866188 46.4359383,52.9808689 C47.0227209,53.0955497 48.3006031,52.7081144 47.9354939,51.4528238 C47.5703847,50.2006328 44.2289836,48 44.2289836,48 L43,49.3141807 Z"/>
      <path fill="#C95D77" d="M46.712,49.203 C46.079,48.705 45.578,48.147 45.578,48.147 L44.288,49.827 C44.288,49.827 44.627,50.265 45.098,50.853 C45.758,50.769 46.706,50.25 46.712,49.203"/>
      <path fill="#FF97A6" d="M46.9372642,45.9925415 C47.1259168,45.3634461 46.8551091,43.1285016 46.5751731,41.2710145 C46.3439216,39.7280751 45.0355251,38.7347664 43.678444,39.0625583 C41.578924,39.5724567 39.2785803,40.2743948 38.7065372,40.8571359 C37.8058735,41.7709798 37.9823549,43.3900729 38.0888523,44.5985984 C38.1923069,45.8038129 38.7673928,47.9129382 39.5250457,48.806916 C40.2188001,49.6280512 42.0201275,50.1478827 42.9846896,49.9624651 C45.8783759,49.3962791 46.6056009,48.4062815 46.9372642,45.9925415"/>
      <path fill="#FF5E4D" d="M44.8825092,41.8659733 C45.5167292,42.5610012 46.2571731,43.1281702 46.9257596,43.7838569 C46.6851934,41.5873065 46.0759674,39.0727481 43.7890266,38.3219869 C41.9301062,37.7220336 39.8712347,38.8039166 38.5059435,40.0464428 C36.4533204,41.9282636 35.1755079,44.4690494 33.482172,46.6688782 C35.4316953,45.9312307 37.2937399,45.2034185 38.9245911,43.800249 C40.4617153,42.4855973 41.4802162,40.8201531 42.6143139,39.1350383 C42.6611774,39.0760265 42.7830226,39.1153677 42.7580287,39.200607 C42.748656,39.2169992 42.7361591,39.2366698 42.7361591,39.2596188 C42.7361591,39.2596188 42.748656,39.2563404 42.7580287,39.2628972 C43.5172181,40.0726703 44.1201957,41.0398081 44.8825092,41.8659733 M47.9973726,44.0297394 C48.0411119,44.5280612 47.5287372,44.662477 47.2069408,44.4559357 C47.1913197,44.4592141 47.1756985,44.4624926 47.16945,44.4559357 C45.2980326,43.7477941 43.3110185,41.515181 42.6518047,39.5186151 C41.4208557,43.4461782 37.1375281,46.7639528 33.2728482,47 C33.2478543,47 33.2322331,46.9868863 33.2134877,46.9803294 C33.1041394,47.022949 32.966673,46.9147607 33.0072881,46.7770665 C34.0539072,42.8986799 37.6030393,37.7187551 41.7082854,37.0761822 C46.0134827,36.4106602 47.6474581,40.2201998 47.9973726,44.0297394"/>
      <path fill="#FF5E4D" d="M48,44.2923313 C47.3037416,43.676252 46.5326516,43.1433434 45.8721822,42.4902993 C45.081571,41.710959 44.4503835,40.8053223 43.6630258,40.041384 C43.6532652,40.0383036 43.6369974,40.041384 43.6369974,40.041384 C43.640251,40.0167408 43.6500116,40.0013388 43.6630258,39.9828564 C43.6858006,39.9027661 43.5589124,39.8688818 43.5133628,39.9243289 C42.3290727,41.5045724 41.2684174,43.0724943 39.6676737,44.3046529 C37.9693237,45.6261431 36.0302115,46.3099912 34,47 C35.7634209,44.9330538 37.0941204,42.5488268 39.2316988,40.7806792 C40.6534976,39.6101284 42.7975831,38.5966779 44.7334418,39.1603905 C47.1182896,39.8658014 47.7494771,42.2253852 48,44.2923313"/>
      <path fill="#F9CB9D" d="M51,49.184649 C51,49.184649 51.838391,48.8100872 52.2544107,48.6372124 C56.00494,47.1005483 59.5935074,46.5659172 61.8165138,47.3758673 C71.1658433,50.7821395 78,71.8664524 78,71.8664524 C78,71.8664524 74.9100212,75.6504879 65.3288638,80.1996541 C64.7223006,80.4845772 63.4234298,81 63.4234298,81 C63.4234298,81 64.1983063,70.486656 60.8129852,63.27714 C57.0529287,55.2640766 51,49.184649 51,49.184649"/>
      <path fill="#3B2B5B" d="M46.3020314,380.673029 C46.372752,381.418758 46.6185904,382.237837 47.399885,381.482939 C48.5415179,380.373515 49.6999892,377.320306 49.1443271,376 C50.0940041,376.039731 51.2053282,376.461496 51.9327404,376.80991 C52.4614613,377.06358 49.7336657,382.760458 48.6223415,384.64923 C48.1508707,385.449971 46.8307523,386.290444 46.3020314,385.902298 C45.7160605,385.465253 46.133649,381.519615 46.3020314,380.673029"/>
      <path fill="#FF97A6" d="M47.1472249,381.699759 C46.4512249,382.455057 46.2352249,381.635544 46.1692249,380.889419 C46.4092249,379.537833 46.6582249,378.424762 46.6732249,378.158726 C46.7122249,377.455412 46.5052249,374 46.5052249,374 L47.5012249,374.342483 C47.5012249,374.342483 48.4582249,376.201679 48.7042249,376.21391 C49.1962249,377.537975 48.1642249,380.592804 47.1472249,381.699759"/>
      <path fill="#3B2B5B" d="M89.9233887,382.75559 C90.300444,383.476027 90.5782742,384.352504 89.4901059,384.076945 C87.9025048,383.675226 85.1572779,381.503954 84.8397577,380 C84.0790321,380.547798 83.4076092,381.523874 83.0107089,382.231032 C82.7229562,382.74231 88.3126351,386.490576 90.333519,387.626012 C91.1934696,388.10741 92.7744557,388.17381 92.9861359,387.529732 C93.2143536,386.825895 90.5584292,383.442827 89.9233887,382.75559"/>
      <path fill="#FF97A6" d="M89.2915576,383.951436 C90.2957699,384.209819 90.0393752,383.384861 89.6914111,382.712443 C88.7543498,381.685137 87.9424335,380.875745 87.7867654,380.651605 C87.3747026,380.075691 85.683719,377 85.683719,377 L85.0183139,377.849862 C85.0183139,377.849862 85.2014529,379.979187 85,380.1255 C85.2899701,381.538824 87.8264455,383.574757 89.2915576,383.951436"/>
      <path fill="#FF97A6" d="M61.0239655,245 C61.068574,245.333284 67.4444099,253.620524 71.0003483,262.058383 C77.5323141,277.552893 84.7397807,361.386689 85.98882,377.4324 C86.116273,379.047547 85.115767,379.2911 84.9309602,378.720672 L48.568622,277.277293 L47.4247314,374.769331 L46.841634,374.897517 C46.841634,374.897517 32.6879794,339.697578 29.5175863,311.211393 C23.1608684,254.133269 38.786605,253.008435 39.4684785,248.432186 C42.3903383,249.698025 55.4861331,247.74639 61.0239655,245"/>
      <path fill="#7F65C1" d="M39.9859048,248.89206 C39.9859048,248.89206 29.1986724,252.793711 28.1501817,283.862529 C27.1049072,314.934555 31.8584938,323.950705 31.8584938,323.950705 C31.8584938,323.950705 59.6467133,324.887614 74.8530444,318.592352 C74.8530444,318.592352 67.7323132,279.354454 68.5202893,274.86563 L79.1660077,317.809455 L84,316.651153 C84,316.651153 81.3240974,274.262415 73.0037127,259.409832 C64.6865443,244.55725 54.7676937,242 54.7676937,242 L39.9859048,248.89206 Z"/>
      <path fill="#6C56B2" d="M54.046092,323 C54.046092,323 55.7451685,322.807616 56.5994527,322.698599 C62.7977595,321.903412 69.0720027,320.614441 74.0015393,318.539902 C74.0015393,318.539902 66.9995724,279.33208 67.7715923,274.843124 L78.2444844,317.760747 L83,316.603238 C83,316.603238 80.3675389,274.243528 72.1822302,259.401116 C64.0000855,244.558705 54.242261,242 54.242261,242 L49.2905764,244.347083 L46,245.905391 C46,245.905391 54.451086,268.10969 54.6757311,287.072322 C54.9161963,307.182844 54.046092,323 54.046092,323"/>
      <path fill="#FFCA48" d="M77.8741149,220.574382 C77.2612352,220.708712 77.1271678,221.153282 75.7737251,221.380364 C75.1736137,221.479513 73.2615567,221.425141 71.6878603,220.42406 C70.9536815,219.960301 70.3695306,219.288649 69.7470746,218.674567 C69.099082,217.93575 68.4638577,217.18414 67.8414018,216.422935 C65.0259856,210.464425 60.6113364,203.552809 55.290136,199.574072 C52.8609618,197.751018 47.9483478,195.899178 45.1105871,197.798993 C42.1355668,195.832013 39.0967049,198.285141 37.6091948,201.585829 C37.0505805,202.833182 36.7217961,204.10932 36.5526157,205.395054 C35.4641158,209.907913 35.9078152,215.057243 38.5636273,218.844079 C38.5732035,218.856873 38.5827798,218.856873 38.5955481,218.866468 C39.9011096,221.86971 41.7397487,224.713036 43.4985858,227.111792 C46.901345,231.76218 51.1819267,235.900834 56.1168852,238.881688 C56.7201887,239.243101 57.240498,238.708978 57.240498,238.187648 C59.4749553,237.925384 61.8466721,237.218551 63.9917511,236.163098 C66.8422801,234.86777 69.4182902,232.878402 71.675092,230.770695 C74.3755932,228.259997 78.8030107,220.897415 77.8741149,220.574382"/>
      <path fill="#3B2B5B"/>
      <path fill="#D3E7F2" d="M28.7227035,223.215605 L28.7227035,223.218838 C28.7227035,223.218838 28.7098068,223.205903 28.7065826,223.202669 C28.284214,222.811372 27.9360018,222.442711 27.6361523,222.083753 C24.3958439,218.639689 17.5766873,205.678368 17.0446964,198.709394 C16.3579445,189.62224 23.812266,200.090253 23.812266,200.090253 C23.812266,200.090253 27.5362025,215.454334 35.4838247,217.941175 C37.7117383,218.639689 32.2177228,226.459169 28.7227035,223.215605"/>
      <path fill="#D3E7F2" d="M49.421566,217.239923 C49.3677828,217.236697 49.3139995,217.230245 49.2633799,217.227019 C41.7463749,216.607657 33.3878197,217.307666 28.9174796,218.69478 L28.9174796,218.691554 C28.9174796,218.691554 28.901661,218.698006 28.8984972,218.698006 C28.3575007,218.868976 28,226.488428 28,226.488428 C28.227788,236.256295 32.8151859,247.95967 35.8333773,252.104885 C36.4819404,252.995219 41.3129449,253.230706 46.5330873,252.769409 C53.3952017,252.156498 61.2222515,250.427444 64,248.282255 C63.3799104,246.395134 60.554706,236.830496 60.1592407,228.785232 C59.8618508,222.762574 57.7959399,217.601218 49.421566,217.239923"/>
      <path fill="#FF97A6" d="M45.0019745,210 C45.0019745,210 46.1089745,216.254205 45.8389745,216.984021 C45.5689745,217.71701 44.4589745,218.732406 43.6699745,217.206139 C42.8779745,215.683045 43.1719745,210.130098 43.1719745,210.130098 L45.0019745,210 Z"/>
      <path fill="#C95D77" d="M45.7939865,214.280152 C45.1279865,214.90099 44.1889865,215.28611 43.3009865,214.734991 C43.2019865,213.529834 43.1959865,212.171957 43.2139865,211.15604 L45.3319865,211 C45.4789865,211.942878 45.6619865,213.181235 45.7939865,214.280152"/>
      <path fill="#FF97A6" d="M40.1434704,208.923903 C40.1625873,207.861988 42.3036859,204.582269 42.3036859,204.582269 C44.3683167,202.568077 49.2240225,206.348995 49.7656695,207.316935 C50.3614812,208.378849 49.6892017,209.681966 49.2112779,210.662435 C48.7333541,211.639773 47.5226138,213.221681 46.503043,213.72288 C45.5726847,214.183356 43.6546172,214.029864 42.7720513,213.556858 C40.1211673,212.131574 39.7228974,211.060262 40.1434704,208.923903"/>
      <path fill="#AACBE8" d="M56.7302493,222.532677 C56.7302493,222.532677 56.7239889,222.545662 56.7239889,222.552154 C56.4923525,223.081269 56.2638464,223.532478 56.0290798,223.934995 C53.878618,228.132211 45.5271882,239.548768 39.3011786,242.294974 C31.1845155,245.87543 37.0474195,234.653639 37.0474195,234.653639 L49.1112913,222.493724 C50.012795,220.338309 58.6177726,218.153679 56.7302493,222.532677"/>
      <path fill="#FF97A6" d="M10.388507,220.694348 C9.99740181,219.673689 9.44853991,218.633589 8.7254883,217.969351 C7.70992945,217.045898 5.92530663,216.504786 4.63367353,216.148366 C4.10453122,215.996077 3.10211877,215.775744 3.00352082,216.56959 C2.95422185,217.013496 3.43735178,217.690695 3.53266313,218.034155 C3.54252293,218.098958 3.89418893,220.843396 4.76513746,221.07993 C4.88674159,221.112332 5.02806532,221.125293 5.16938904,221.138253 C5.86614786,221.352106 6.94415207,221.322944 7.6343377,221.099371 C7.73293564,221.115572 10.0467008,223.571633 10.5626967,223.937775 C11.0031009,224.268274 10.2833359,223.192532 10.674441,222.81667 C10.9143627,222.593097 10.9866679,222.094108 10.9866679,221.873776 C11.0852658,221.932099 10.6119957,221.047528 10.388507,220.694348"/>
      <path fill="#AACBE8" d="M38.9966533,239.19853 C38.7728343,230.396182 20.9713373,219.697894 11.2935269,216 C11.2935269,216 10.5306506,217.131082 8.9576124,220.615075 C5.74218352,227.732143 11.3250507,230.422109 15.3569463,233.089389 C19.388842,235.756669 32.7864623,241.651909 32.7864623,241.651909 C32.7864623,241.651909 39.1668819,245.949373 38.9966533,239.19853"/>
      <path fill="#FF97A6" d="M7.43363455,163.390097 C7.43363455,163.383235 7.43963455,163.383235 7.43363455,163.376373 C7.43363455,163.369512 7.43063455,163.36265 7.42763455,163.355788 C7.36763455,163.12935 7.25363455,162.89948 7.13363455,162.693627 C6.94763455,162.141254 6.73763455,161.599174 6.53663455,161.053662 C6.42863455,160.762037 6.26363455,160.014103 5.88863455,160.00038 C5.36963455,159.979794 5.49863455,160.799777 5.72963455,161.533987 C5.77463455,161.750133 5.84063455,161.966279 5.91563455,162.172132 C5.95463455,162.703919 5.85863455,163.215122 5.89463455,163.767495 C5.91563455,164.117445 6.05063455,165.132988 6.50663455,164.98546 C6.51263455,164.982029 6.51263455,164.978598 6.51863455,164.975167 C6.55763455,164.975167 6.59663455,164.98546 6.64163455,164.964875 C6.95963455,164.83107 7.43363455,164.151754 7.46963455,163.757202 C7.47863455,163.637121 7.46363455,163.513609 7.43363455,163.390097"/>
      <path fill="#FF97A6" d="M7.47819671,160.004632 C6.89019671,160.092008 7.02519671,161.442703 7.00419671,161.868663 C6.99519671,162.054338 6.97419671,162.283702 6.95919671,162.516705 C6.86319671,163.048246 6.87519671,163.641678 7.22319671,163.92201 C7.43619671,164.100404 7.57719671,163.951136 7.66719671,163.692647 C7.81119671,163.506972 7.87719671,163.201155 7.91619671,162.906259 C8.05119671,162.425688 8.11119671,161.901429 8.08719671,161.413578 C8.06619671,160.994899 8.01819671,159.920896 7.47819671,160.004632"/>
      <path fill="#AACBE8" d="M49.1713596,217.012784 C49.1166533,217.009588 49.0104586,217 49.0104586,217 C49.0104586,217 51.5720032,225.32892 51.5076428,234.319423 C51.4432824,243.351475 48,252 48,252 C48,252 48.9525342,251.932883 49.1617056,251.904118 C55.1086082,251.085928 61.5221239,249.631723 64,247.768423 C63.3692679,245.898731 60.4955752,236.422427 60.0933226,228.451466 C59.7908286,222.484431 57.689461,217.370742 49.1713596,217.012784"/>
      <path fill="#FFCA48" d="M52.9377095,210.648377 C52.8362137,210.464538 52.7019774,210.299082 52.5775632,210.124434 C52.6626887,210.072346 52.7052514,209.974299 52.6430444,209.863995 C51.6149906,207.98883 49.8699184,206.380234 48.4686221,204.750189 C48.3343858,204.505069 48.2034236,204.256886 48.0757354,204.008702 C48.0953797,204.008702 48.115024,204.008702 48.1379424,204.005638 C48.4260594,203.974998 48.632325,203.619575 48.4260594,203.420415 C48.4358816,203.294792 48.3769486,203.166104 48.2230679,203.126272 C47.8301811,203.028224 47.4143759,203.003712 46.9854745,203.02516 C44.9686556,202.829064 42.794682,203.806479 41.2722457,205.007564 C41.0692541,205.114804 40.8662626,205.222044 40.6665452,205.332348 C40.4962942,205.424267 40.4799239,205.589723 40.5454051,205.718411 C40.3620579,205.914506 40.1787107,206.113666 40.0313782,206.337338 C39.9167862,206.511985 40.1394221,206.708081 40.3227692,206.613097 C41.63894,205.91757 42.8568891,205.197532 44.3072962,204.747125 C44.7984047,204.593925 45.3222537,204.498941 45.8461028,204.400893 C46.4583514,207.633407 49.0645005,211.497104 52.5710151,211.996535 C52.8296656,212.033303 53.0392052,211.769799 52.8362137,211.570639 C52.7445401,211.47872 52.6430444,211.40212 52.5480967,211.316328 C52.8722283,211.285688 53.1210566,210.982353 52.9377095,210.648377"/>
      <path fill="#FFE19F" d="M37.2460166,216 C36.4742411,214.137653 36.0292253,212.108337 36.0043293,210.056545 C35.9545374,208.007963 36.3373131,205.949749 36.9939448,204.026394 C37.6256804,202.10625 38.332104,200.144364 39.6827112,198.542104 C40.3486788,197.768266 41.2791663,197.093968 42.3465816,197.016906 C43.404661,196.917367 44.4098364,197.27057 45.2936439,197.729735 L45.091364,197.749001 C45.6421877,197.395797 46.2179074,197.228828 46.809187,197.113234 C47.4035787,197.010484 48.0041943,196.984796 48.592362,197.036172 C49.1867536,197.074703 49.7655853,197.206351 50.338193,197.354055 C50.9045766,197.514602 51.4554003,197.723313 52,197.95129 C51.4429523,197.761845 50.8796807,197.598087 50.310185,197.479282 C49.7375773,197.376531 49.1618577,197.289836 48.583026,197.293047 C48.0073063,197.293047 47.4315867,197.325156 46.874539,197.450383 C46.3237153,197.57561 45.7604436,197.777899 45.3278759,198.082939 C45.2687479,198.127892 45.187836,198.131103 45.122484,198.102205 C44.2480125,197.697626 43.3081891,197.421485 42.3963736,197.511391 C41.4783341,197.594876 40.6847746,198.179267 40.071711,198.90494 C38.8580317,200.404451 38.1173761,202.30854 37.4731925,204.193363 C36.8165609,206.084608 36.4057771,208.049706 36.3590971,210.056545 C36.3342011,212.056962 36.598721,214.083067 37.2460166,216"/>
      <path fill="#3B2B5B" d="M213.763942,199.795227 C211.226818,195.441943 201.10077,195.070054 197.797055,197.479517 C193.425246,200.664009 193.566376,210.054977 194.60881,211.045638 C195.654452,212.033175 201.796796,205.851699 202.107922,208.533047 C202.425464,211.211269 201.594724,211.62691 201.594724,211.62691 C201.594724,211.62691 203.400541,212.823828 205.937666,210.930009 C208.308001,209.154944 210.703997,207.098619 210.065706,204.276641 C209.061762,199.854604 218.235184,207.467383 213.763942,199.795227"/>
      <path fill="#7F65C1" d="M214,199.223873 C213.268096,198.046261 212.097695,197.248101 210.869257,196.721446 C209.63437,196.181707 208.315654,195.867677 206.987264,195.687764 C205.65565,195.514393 204.304691,195.452242 202.969853,195.573274 C201.641464,195.687764 200.306626,195.936371 199.11043,196.47611 C197.907787,196.973325 196.988876,198.000465 196.315009,199.145366 C195.634693,200.296809 195.202644,201.598726 194.860874,202.910455 C194.535225,204.231998 194.344994,205.596066 194.280509,206.963405 C194.248267,207.647075 194.232146,208.334016 194.280509,209.020956 C194.335322,209.694813 194.380461,210.414465 194.744801,211 C194.338546,210.437363 194.241818,209.707897 194.141867,209.034041 C194.048364,208.3471 194.016121,207.653617 194,206.956863 C194.006448,205.566626 194.15154,204.17966 194.435273,202.812321 C194.712558,201.444982 195.170401,200.107083 195.863614,198.877132 C196.556827,197.660265 197.543447,196.518635 198.87506,195.946185 C200.177656,195.380276 201.560858,195.148025 202.931162,195.046619 C204.307916,194.948485 205.694341,195.000823 207.051749,195.246159 C208.405933,195.481682 209.747219,195.857864 210.98533,196.466297 C212.207319,197.094357 213.351926,197.997193 214,199.223873"/>
      <path fill="#3B2B5B" d="M217.962497,381.65533 C218.408857,378.857204 214.765164,379.628983 212.650493,379 C213.286794,379.407989 213.923095,379.999574 212.944901,380.325965 C211.51085,380.808752 208.335677,380.404163 207.370146,379.309392 C207.040915,380.155969 206.977602,381.315339 207.006093,382.110918 C207.044081,383.137691 217.652261,383.606878 217.962497,381.65533"/>
      <path fill="#FF97A6" d="M212.502063,379.796038 C213.467501,379.505038 212.839497,378.983038 212.211494,378.623038 C210.917993,378.278038 209.833828,378.041038 209.587,377.945038 C208.955872,377.693038 208.768409,377.141038 208.768409,377.141038 L208.112285,377.027038 C208.112285,377.027038 207.099981,378.683038 207,378.896038 C207.952941,379.862038 211.086711,380.222038 212.502063,379.796038"/>
      <path fill="#3B2B5B" d="M159.037513,379.653337 C158.591031,376.857128 162.23572,377.629317 164.35097,377 C163.714495,377.404804 163.078021,377.996702 164.056482,378.323267 C165.487759,378.80631 168.666967,378.401506 169.629595,377.309556 C169.962082,378.153181 170.022247,379.313166 169.993748,380.109167 C169.958916,381.136485 159.347834,381.609323 159.037513,379.653337"/>
      <path fill="#FF97A6" d="M163.498197,377.796005 C162.532255,377.505005 163.160586,376.983005 163.788917,376.626005 C165.083091,376.281005 166.167822,376.041005 166.411652,375.945005 C167.046235,375.693005 167.233796,375.141005 167.233796,375.141005 L167.887135,375.027005 C167.887135,375.027005 168.903093,376.683005 169,376.899005 C168.049689,377.862005 164.91116,378.222005 163.498197,377.796005"/>
      <path fill="#3B2B5B" d="M202.0675,255.926248 C202.099396,256.249361 206.309626,262.430085 209.355664,270.667851 C214.101742,283.509169 211.374661,363.506679 209.521522,377.243755 C209.269546,379.096053 204.861562,377.243755 204.762685,374.93718 C204.118393,360.457906 187.870731,285.662186 187.870731,285.662186 L168.538756,376.437573 L164,376.437573 C164,376.437573 169.556228,258.818264 171.737893,255.385595 C176.024673,254.477041 195.423629,255.388794 202.0675,255.926248"/>
      <path fill="#30193B" d="M202.155645,256.011131 C202.187257,256.334021 206.360125,262.510491 209.379131,270.742586 C214.08309,283.575064 211.38021,363.517504 209.543517,377.245123 C209.410743,378.229777 208.108303,378.165839 206.907023,377.542437 C206.388576,377.273895 206.802701,348.958683 199.987018,315.912015 C193.88578,286.318031 186.425199,259.275197 189.874137,259.393483 C195.485379,259.585299 199.171412,255.768165 202.155645,256.011131"/>
      <path fill="#FFE5B0" d="M177.225373 219.872699C180.53311 217.463869 190.032002 215.128812 206.673548 219.272897 208.329024 219.680249 209.916994 220.331371 211.498536 221.283998 210.119509 226.855419 212 234.415489 212 234.415489 210.103436 237.966188 208.669762 242.123103 207.670048 245.786065 206.374598 250.513915 206.991785 255.344405 208.345096 260.049802 210.469891 267.462327 210.955283 273.524496 210.955283 273.524496 210.955283 273.524496 195.133438 276.44011 191.227802 275.942948 189.958068 275.782573 187.566469 264.501808 187.566469 264.501808 187.566469 264.501808 184.451604 275.237299 183.104722 274.993529 179.719837 274.374482 167 269.71399 167 269.71399 167 269.71399 172.030716 254.718943 172.062862 252.002193 172.120723 246.607184 172.660761 242.697245 174.345168 235.098686 176.315665 226.22675 177.225373 219.872699 177.225373 219.872699M146.581028 177.737771C149.257102 181.093415 162 201.07636 162 201.07636 162 201.07636 159.796365 209.239086 155.871242 206.400435 151.544869 203.272782 146.574557 198.4079 140.714377 193.228326 134.957745 188.141875 136.090303 174 136.090303 174 136.090303 174 143.908191 174.385337 146.581028 177.737771"/>
      <path fill="#FFE5B0" d="M157.089823,197 C157.089823,197 173.201358,208.608064 177.298742,211.279085 C179.083648,212.44273 181.519333,213.918572 188.56418,216.453993 C190.718703,217.226602 184.122451,219.178624 185.310282,225 C180.802211,223.502084 156.511703,206.816871 152.992438,203.66967 C149.302581,200.3711 157.089823,197 157.089823,197"/>
      <path fill="#F9CB9D" d="M211.532323,221 C215.525684,224.884142 216.159201,226.880694 217.807605,230.280921 C221.164297,237.196745 224.524142,257.630153 224.959093,261.187412 C225.781719,267.914157 213.924557,253.75242 213.924557,253.75242 C213.924557,253.75242 214.154641,248.272319 210.602535,239.625936 C209.754694,237.562085 207,231.892904 207,231.892904 C207,231.892904 209.745239,226.435235 211.532323,221"/>
      <path fill="#F9CB9D" d="M226.942808,283.589408 C230.490972,277.906755 224.388769,247.512932 219.267905,252.563828 C216.579611,255.210889 214,253.549369 214,253.549369 L216.851318,283.390405 C216.851318,283.390405 220.674385,293.628025 226.942808,283.589408"/>
      <path fill="#FF97A6" d="M221.307736 287.003615C221.576905 286.911493 224.507848 288.600398 225.18243 289.751924 225.700829 290.642438 226.269073 293.442949 225.860336 293.750023 225.451599 294.057096 225.252215 293.461374 225.252215 293.461374 225.252215 293.461374 225.205692 294.087804 224.747109 293.98954 224.461325 293.931196 224.079173 292.619992 223.504283 291.784751 223.152038 291.271938 222.477455 290.881955 222.344533 290.504254 222.344533 290.504254 222.420963 291.757115 222.00558 291.723337 221.59352 291.692629 220.958815 289.570751 221.021953 288.870623 221.068476 288.4008 220.822569 287.175576 221.307736 287.003615M132.247189 173.533218C131.56627 171.877869 132.369327 169.595196 133.712845 170.061584 133.871624 170.117419 134.45178 170.587092 134.931171 170.991076 135.312853 171.309664 135.630412 171.585556 135.630412 171.585556 135.630412 171.585556 134.772392 170.330907 135.245677 170.192961 135.725068 170.055015 136.176979 170.692193 136.46095 171.243976 136.747974 171.792474 138.63806 174.57438 137.776987 176.650134 137.944927 176.581161 137.340343 177.031127 137.102174 176.998283 135.847206 176.811071 132.986124 175.323228 132.247189 173.533218"/>
      <path fill="#FF97A6" d="M131.237534,169.318216 C131.237534,169.318216 130.256298,169.246216 132.282487,170.959216 L135,171.682216 C135,171.682216 131.963904,169.435216 131.237534,169.318216"/>
      <path fill="#F9CB9D" d="M196.626233,217 C196.626233,217 198.801737,217.28079 199.960532,217.471211 C202.076043,217.826232 204.343113,218.297443 206.768057,218.917117 C208.394159,219.330234 209.953953,219.982183 211.507433,220.943969 C210.152875,226.546858 212,234.154006 212,234.154006 C210.13393,237.726815 208.728851,241.909617 207.743718,245.595388 C206.474411,250.35268 207.080647,255.213251 208.406789,259.951177 C210.49704,267.406634 210.973819,273.506553 210.973819,273.506553 C210.973819,273.506553 195.432706,276.440324 191.596369,275.943293 C190.349165,275.778692 188,264.427679 188,264.427679 C188,264.427679 188.543086,257.914643 189.275622,246.502308 C190.080779,233.934538 196.626233,217 196.626233,217"/>
      <path fill="#FF97A6" d="M198.999588,212.764788 C198.999588,212.764788 199.040493,219.01109 198.307341,219.548681 C197.577334,220.083073 195.207961,220.476667 194.235668,218.703895 C193.269669,216.931123 195.58555,212 195.58555,212 L198.999588,212.764788 Z"/>
      <path fill="#C95D77" d="M198.888172,216.973805 C197.600717,217.195879 195.943369,215.981003 195,214.276259 C195.166308,213.156091 195.117563,213.812516 195.42724,212.917688 L199,212 C198.982796,212.911157 198.971326,215.928751 198.888172,216.973805"/>
      <path fill="#FF97A6" d="M193.253221,209.585677 C193.233373,208.833742 194.32171,206.864982 194.880765,205.907122 C195.112326,205.507754 195.48944,205.189507 195.95587,205.086545 C198.466654,204.524934 202.198096,206.849381 202.724071,207.663718 C203.362518,208.649658 202.750535,209.913284 202.320493,210.864903 C201.890451,211.816523 198.929776,216.225172 195.773929,214.671381 C192.343516,212.980306 192.929035,211.635559 193.253221,209.585677"/>
      <path fill="#FF5E4D" d="M194,220.688747 L194.774194,222.707747 L195.921534,222.860747 L198,221.114747 C198,221.114747 195.925022,219.239747 194,220.688747"/>
      <path fill="#FF5E4D" d="M196.170454,221.877318 C196.170454,221.877318 197.003194,236.852883 196.999991,241.844739 C196.999991,246.83343 195.882198,247.997564 195.882198,247.997564 L191.362986,250 L188,246.260854 C188,246.260854 193.637005,223.84812 195.4338,221.877318 C197.230596,219.903352 196.170454,221.877318 196.170454,221.877318"/>
      <path fill="#F9CB9D" d="M194.341505,216 C194.341505,216 193.921505,217.346391 195.880505,220.076105 L194.041505,222 C194.041505,222 191.779505,219.918299 194.341505,216"/>
      <path fill="#FFE5B0" d="M199.500036,217 C199.500036,217 199.53018,217.731377 196,220.196388 L197.369871,223 C197.369871,223 201.375654,221.513544 199.500036,217"/>
    </g>
    <g fill="#AACBE8" transform="translate(225 196)">
      <polygon points="5.959 307 5 307 5.039 0 6 .003"/>
      <path d="M5.50162578,307.355897 C3.21578481,307.355897 1.35914868,309.215785 1.35914868,311.498374 C1.35914868,313.784215 3.21578481,315.644103 5.50162578,315.644103 C7.78746675,315.644103 9.64410287,313.784215 9.64410287,311.498374 C9.64410287,309.215785 7.78746675,307.355897 5.50162578,307.355897 M5.50162578,317 C2.46792787,317 0,314.532072 0,311.498374 C0,308.467928 2.46792787,306 5.50162578,306 C8.53532368,306 11,308.467928 11,311.498374 C11,314.532072 8.53532368,317 5.50162578,317"/>
    </g>
    <g transform="translate(147)">
      <polygon fill="#AACBE8" points="60.834 307 57 307 57.156 0 61 .003"/>
      <g transform="rotate(180 59 169.5)">
        <path fill="#AACBE8" d="M80.1901641 154.749864L38.1460313 154.749864C35.7242227 154.749864 33.7599023 152.783757 33.7599023 150.359747 33.7599023 147.935736 35.7242227 145.972832 38.1460313 145.972832L80.1901641 145.972832C82.6119727 145.972832 84.576293 147.935736 84.576293 150.359747 84.576293 152.783757 82.6119727 154.749864 80.1901641 154.749864M58.851375 175.899917C52.2097969 175.899917 46.8255117 170.507534 46.8255117 163.859917L46.8255117 163.526896 70.8772383 163.526896 70.8772383 163.859917C70.8772383 170.507534 65.4929531 175.899917 58.851375 175.899917"/>
        <path fill="#F7C13A" d="M117.140501,60.8750085 C117.140501,26.9388596 90.5517937,-0.506576596 57.9453562,0.00896595745 C26.877743,0.502093617 1.36717266,26.8556043 0.580164844,59.2963596 C0.109879687,78.7620936 8.39585625,96.2168915 21.6150281,107.693317 C25.5404695,111.100381 28.2342117,115.807509 29.1779812,121.046189 C29.2387664,121.385615 29.2995516,121.741051 29.3603367,122.112498 C30.4480711,128.760115 27.8087156,135.084317 34.4854852,137.191317 L57.5070633,137.191317 L60.1368211,137.191317 L83.1583992,137.191317 C89.8351687,135.084317 87.1958133,128.760115 88.2835477,122.112498 C88.3443328,121.741051 88.405118,121.388817 88.4659031,121.049391 C89.4160711,115.74987 92.2345828,111.055551 96.1984148,107.597253 C108.99529,96.431434 117.140501,79.6522851 117.140501,60.8750085"/>
        <path fill="#FFE5B0" d="M53.0419137,142.987488 C53.6049762,133.339478 52.6036207,123.451307 51.3015387,113.896159 C50.0090543,104.427467 48.2078941,94.6801904 44.1000973,85.9832117 C42.0909879,81.7339883 39.285273,77.3854989 34.9151402,75.2752968 C32.8836363,74.2922436 30.3370582,73.6678287 28.2255738,74.7821691 C26.4084176,75.7428074 25.3942652,77.7057117 25.9669254,79.7294564 C27.2210191,84.1579989 33.0595934,86.5659989 37.1258004,87.3024883 C42.0238043,88.1926798 47.2161363,87.5810734 51.8709996,85.8551266 C56.5194645,84.1291798 60.8096168,81.1608074 63.343398,76.809116 C65.6500348,72.8352755 66.6513902,67.4557011 64.6166871,63.1552436 C63.7912887,61.4164883 62.2364684,59.7834032 60.1761715,59.8250309 C58.1670621,59.8666585 56.7498082,61.5189564 56.0171871,63.2352968 C54.2832105,67.3084032 55.2333785,72.319733 57.2360895,76.10785 C62.2300699,85.5477223 73.6192887,88.2855415 83.3289176,85.3363819 C87.1487848,84.1772117 94.0175074,81.4297862 92.5074762,76.1847011 C91.9700074,74.3114564 90.1688473,73.2003181 88.3037027,73.046616 C86.054652,72.8640947 84.0647379,74.0136585 82.5866988,75.6371372 C79.3618863,79.1786904 77.2056129,84.0523287 75.3820582,88.4296372 C73.3665504,93.2808606 71.8341246,98.3274138 70.6920035,103.450818 C68.4013629,113.726446 67.4064059,124.440765 67.905484,134.959754 C68.0206559,137.374159 68.2318043,139.743733 68.6125113,142.129318 C68.7340816,142.910637 69.9657809,142.705701 69.9657809,141.946797 C69.9561832,133.435541 69.8090191,124.97552 70.7559879,116.499488 C71.7061559,107.962616 73.5265113,99.4481585 76.5753668,91.4108181 C78.0278121,87.5778713 79.7969801,83.8537968 81.9372574,80.3570734 C82.9674059,78.6727543 84.1063277,76.7002436 85.9138863,75.7364032 C88.0093746,74.6156585 91.3749527,75.6147223 90.2648238,78.541467 C89.4586207,80.6580734 86.7968707,81.7403926 84.8485465,82.5217117 C82.5419098,83.4439245 80.0849098,84.0619351 77.6087145,84.2828819 C73.1586012,84.6767436 68.5357301,83.8537968 64.760652,81.3721479 C61.3918746,79.1594777 58.8069059,75.6595521 57.7447652,71.7625628 C57.2168941,69.8188713 57.0601324,67.7438926 57.4312418,65.7553713 C57.7447652,64.0742543 58.9796637,60.9425734 61.2415113,62.2266266 C63.0458707,63.2513074 63.4937613,66.149233 63.5577457,68.0032649 C63.6313277,70.1935202 63.1482457,72.3933819 62.2396676,74.3787011 C60.4065152,78.390967 56.9673551,81.3145096 53.0259176,83.1525309 C45.9332496,86.466733 34.1153355,87.6995521 28.6542691,80.6900947 C26.4052184,77.8049777 29.1469488,75.5859032 32.1638121,76.2935734 C34.4416559,76.8251266 36.4443668,78.2981053 38.0215816,79.9792223 C40.7569137,82.8931585 42.5676715,86.6652649 44.0041207,90.354116 C50.5241285,107.133265 50.5689176,125.346967 52.3828746,142.987488 C52.4276637,143.403765 53.0163199,143.416573 53.0419137,142.987488"/>
        <path fill="#D5EAF5" d="M82.1208926 145.972191L35.5818574 145.972191C33.1600488 145.972191 31.1957285 144.006085 31.1957285 141.582074 31.1957285 139.158064 33.1600488 137.191957 35.5818574 137.191957L82.1208926 137.191957C84.5427012 137.191957 86.5070215 139.158064 86.5070215 141.582074 86.5070215 144.006085 84.5427012 145.972191 82.1208926 145.972191M77.196975 163.527536L41.1385805 163.527536C38.7167719 163.527536 36.7524516 161.564632 36.7524516 159.137419 36.7524516 156.716611 38.7167719 154.750504 41.1385805 154.750504L77.196975 154.750504C79.6187836 154.750504 81.5831039 156.716611 81.5831039 159.137419 81.5831039 161.564632 79.6187836 163.527536 77.196975 163.527536"/>
      </g>
    </g>
  </g>
</svg>
