<svg xmlns="http://www.w3.org/2000/svg" viewBox="0 0 118 240">
  <g fill="none" fill-rule="evenodd" transform="translate(0 -99)">
    <polygon fill="#AACBE8" points="60.834 307 57 307 57.156 0 61 .003"/>
    <g transform="rotate(180 59 169.5)">
      <path fill="#AACBE8" d="M80.1901641 154.749864L38.1460313 154.749864C35.7242227 154.749864 33.7599023 152.783757 33.7599023 150.359747 33.7599023 147.935736 35.7242227 145.972832 38.1460313 145.972832L80.1901641 145.972832C82.6119727 145.972832 84.576293 147.935736 84.576293 150.359747 84.576293 152.783757 82.6119727 154.749864 80.1901641 154.749864M58.851375 175.899917C52.2097969 175.899917 46.8255117 170.507534 46.8255117 163.859917L46.8255117 163.526896 70.8772383 163.526896 70.8772383 163.859917C70.8772383 170.507534 65.4929531 175.899917 58.851375 175.899917"/>
      <path fill="#F7C13A" d="M117.140501,60.8750085 C117.140501,26.9388596 90.5517937,-0.506576596 57.9453562,0.00896595745 C26.877743,0.502093617 1.36717266,26.8556043 0.580164844,59.2963596 C0.109879687,78.7620936 8.39585625,96.2168915 21.6150281,107.693317 C25.5404695,111.100381 28.2342117,115.807509 29.1779812,121.046189 C29.2387664,121.385615 29.2995516,121.741051 29.3603367,122.112498 C30.4480711,128.760115 27.8087156,135.084317 34.4854852,137.191317 L57.5070633,137.191317 L60.1368211,137.191317 L83.1583992,137.191317 C89.8351687,135.084317 87.1958133,128.760115 88.2835477,122.112498 C88.3443328,121.741051 88.405118,121.388817 88.4659031,121.049391 C89.4160711,115.74987 92.2345828,111.055551 96.1984148,107.597253 C108.99529,96.431434 117.140501,79.6522851 117.140501,60.8750085"/>
      <path fill="#FFE5B0" d="M53.0419137,142.987488 C53.6049762,133.339478 52.6036207,123.451307 51.3015387,113.896159 C50.0090543,104.427467 48.2078941,94.6801904 44.1000973,85.9832117 C42.0909879,81.7339883 39.285273,77.3854989 34.9151402,75.2752968 C32.8836363,74.2922436 30.3370582,73.6678287 28.2255738,74.7821691 C26.4084176,75.7428074 25.3942652,77.7057117 25.9669254,79.7294564 C27.2210191,84.1579989 33.0595934,86.5659989 37.1258004,87.3024883 C42.0238043,88.1926798 47.2161363,87.5810734 51.8709996,85.8551266 C56.5194645,84.1291798 60.8096168,81.1608074 63.343398,76.809116 C65.6500348,72.8352755 66.6513902,67.4557011 64.6166871,63.1552436 C63.7912887,61.4164883 62.2364684,59.7834032 60.1761715,59.8250309 C58.1670621,59.8666585 56.7498082,61.5189564 56.0171871,63.2352968 C54.2832105,67.3084032 55.2333785,72.319733 57.2360895,76.10785 C62.2300699,85.5477223 73.6192887,88.2855415 83.3289176,85.3363819 C87.1487848,84.1772117 94.0175074,81.4297862 92.5074762,76.1847011 C91.9700074,74.3114564 90.1688473,73.2003181 88.3037027,73.046616 C86.054652,72.8640947 84.0647379,74.0136585 82.5866988,75.6371372 C79.3618863,79.1786904 77.2056129,84.0523287 75.3820582,88.4296372 C73.3665504,93.2808606 71.8341246,98.3274138 70.6920035,103.450818 C68.4013629,113.726446 67.4064059,124.440765 67.905484,134.959754 C68.0206559,137.374159 68.2318043,139.743733 68.6125113,142.129318 C68.7340816,142.910637 69.9657809,142.705701 69.9657809,141.946797 C69.9561832,133.435541 69.8090191,124.97552 70.7559879,116.499488 C71.7061559,107.962616 73.5265113,99.4481585 76.5753668,91.4108181 C78.0278121,87.5778713 79.7969801,83.8537968 81.9372574,80.3570734 C82.9674059,78.6727543 84.1063277,76.7002436 85.9138863,75.7364032 C88.0093746,74.6156585 91.3749527,75.6147223 90.2648238,78.541467 C89.4586207,80.6580734 86.7968707,81.7403926 84.8485465,82.5217117 C82.5419098,83.4439245 80.0849098,84.0619351 77.6087145,84.2828819 C73.1586012,84.6767436 68.5357301,83.8537968 64.760652,81.3721479 C61.3918746,79.1594777 58.8069059,75.6595521 57.7447652,71.7625628 C57.2168941,69.8188713 57.0601324,67.7438926 57.4312418,65.7553713 C57.7447652,64.0742543 58.9796637,60.9425734 61.2415113,62.2266266 C63.0458707,63.2513074 63.4937613,66.149233 63.5577457,68.0032649 C63.6313277,70.1935202 63.1482457,72.3933819 62.2396676,74.3787011 C60.4065152,78.390967 56.9673551,81.3145096 53.0259176,83.1525309 C45.9332496,86.466733 34.1153355,87.6995521 28.6542691,80.6900947 C26.4052184,77.8049777 29.1469488,75.5859032 32.1638121,76.2935734 C34.4416559,76.8251266 36.4443668,78.2981053 38.0215816,79.9792223 C40.7569137,82.8931585 42.5676715,86.6652649 44.0041207,90.354116 C50.5241285,107.133265 50.5689176,125.346967 52.3828746,142.987488 C52.4276637,143.403765 53.0163199,143.416573 53.0419137,142.987488"/>
      <path fill="#D5EAF5" d="M82.1208926 145.972191L35.5818574 145.972191C33.1600488 145.972191 31.1957285 144.006085 31.1957285 141.582074 31.1957285 139.158064 33.1600488 137.191957 35.5818574 137.191957L82.1208926 137.191957C84.5427012 137.191957 86.5070215 139.158064 86.5070215 141.582074 86.5070215 144.006085 84.5427012 145.972191 82.1208926 145.972191M77.196975 163.527536L41.1385805 163.527536C38.7167719 163.527536 36.7524516 161.564632 36.7524516 159.137419 36.7524516 156.716611 38.7167719 154.750504 41.1385805 154.750504L77.196975 154.750504C79.6187836 154.750504 81.5831039 156.716611 81.5831039 159.137419 81.5831039 161.564632 79.6187836 163.527536 77.196975 163.527536"/>
    </g>
  </g>
</svg>
