<svg xmlns="http://www.w3.org/2000/svg" viewBox="0 0 307 79">
  <g fill="#D5EAF5" fill-rule="evenodd">
    <path d="M288.384655,41.2926101 C299.200844,48.611187 302.668557,61.137644 301.896887,72.9402506 C260.185074,74.6153559 218.428434,75.2687431 176.668592,74.9004121 C176.879921,63.1266315 167.956084,53.4955764 156,51.5642408 C163.992069,31.1394859 178.051835,9.85635965 203.039859,6.4100626 C231.412345,2.52176835 253.236841,26.9405125 248.520367,51.8909344 C248.120124,53.9856168 252.788568,53.3162152 253.224033,51.5354149 C256.832632,36.2448739 275.67291,32.7120992 288.384655,41.2926101"/>
    <path d="M303.463261,76.2693286 C261.091243,77.9890591 218.709641,78.6539364 176.305676,78.2831395 C146.719062,79.3507789 117.042995,78.9224445 87.424434,78.8776932 C72.5943875,78.8617105 57.7867043,78.8617105 42.9566578,78.8009766 C35.560803,78.7722078 28.1457798,78.7434391 20.7307565,78.6986877 C13.9259312,78.669919 6.80163055,79.0694847 0.057505566,78.0338105 C-0.019168522,78.0178279 -0.019168522,77.8835738 0.057505566,77.8675912 C1.00315265,77.720551 1.94879974,77.6022796 2.91042059,77.5127769 L2.87847305,77.2314827 C2.62289276,77.2314827 2.39926,77.1132112 2.34814394,76.831917 C1.01912642,67.9583629 6.60994533,58.8035145 15.3028701,54.9069502 C23.5165817,51.2181601 33.3979548,52.538325 40.5701768,57.5153149 C41.9503104,45.886356 45.4070338,34.3596859 52.1319903,24.3769375 C63.0197108,8.19932314 82.8751048,-3.07482145 103.883805,0.748222758 C122.521998,4.12375343 136.582109,20.8064188 132.435318,38.2434641 C142.086669,33.8546349 153.108569,41.1299264 152.402529,51.1286574 C161.367008,28.8360902 177.363139,6.67458059 204.921084,3.65066769 C231.118064,0.761008859 252.928648,19.4127338 254.257665,42.3286233 C260.48424,35.5296141 270.780931,32.2563722 280.726199,34.3021484 C299.843605,38.2562502 307.993422,56.2399013 306.904011,72.8170813 C306.872063,73.3668836 306.424798,73.8112006 305.830573,74.1052809 C306.025453,75.0098976 305.063833,76.1958085 303.463261,76.2693286 M302.210918,73.1878782 C302.984048,61.4118791 299.52413,48.9070723 288.732252,41.6030121 C276.04908,33.0427175 257.251149,36.5684848 253.647467,51.8254999 C253.212981,53.6027679 248.55503,54.2708417 248.954374,52.1803142 C253.663441,27.2793824 231.888,2.90907383 203.576093,6.79285202 C178.64743,10.2291167 164.619267,31.470027 156.645162,51.8542686 C168.571177,53.7817733 177.474956,63.3969213 177.267297,75.1441517 C218.933274,75.5149486 260.596056,74.8628574 302.210918,73.1878782"/>
  </g>
</svg>
