<svg xmlns="http://www.w3.org/2000/svg" viewBox="0 0 208 104">
  <g fill="#D5EAF5" fill-rule="evenodd">
    <path d="M110.940543,59.7532615 C119.388058,63.0968056 124.681364,73.7563579 123.954455,84.204131 C123.954455,84.303603 123.954455,84.4030751 123.944849,84.4993383 C123.835972,85.7828485 125.536363,86.0235067 125.795744,84.7977544 C125.81816,84.6982824 125.827767,84.5988104 125.853385,84.4993383 C129.295795,67.521707 129.648042,43.9019104 144.410378,34.7216037 C151.333625,30.4058006 159.275185,31.7053547 164.475627,38.8673417 C170.191629,46.7513031 170.873706,57.7092715 171.456514,67.6628932 C171.526964,68.7346242 172.689377,69.2287756 173.182523,68.2276377 C173.262579,68.0736164 173.345837,67.9163864 173.425893,67.7623652 C176.074147,63.1385197 182.014306,63.8861644 185.200537,67.4093999 C189.113677,71.7123679 189.779743,78.8326407 190.083956,84.8234246 C190.119181,85.375334 190.484237,85.9946277 191.009404,85.9400785 C198.332932,85.0512477 205.009607,92.3415857 204.859101,101.23952 C204.859101,101.493013 204.903933,101.688749 205,101.858814 C192.440807,101.181762 179.811164,101.647035 167.242364,101.647035 L126.977372,101.647035 C100.126572,101.647035 73.2885812,101.663079 46.4377814,101.675914 C31.6081983,101.688749 16.589683,100.915434 1.76970664,102 C-1.98972555,89.463314 8.72817867,77.5780095 18.6135,84.4159102 C19.2475439,84.8523036 20.1601829,84.1207028 19.9040035,83.231872 C19.8335542,82.9912138 19.7759138,82.7505557 19.7054645,82.5131063 C13.9990691,61.6271864 16.0132794,38.219169 25.8441626,19.550513 C30.4938181,10.7360067 38.0158847,1.50115073 47.398454,2.02097237 C56.3711363,2.5151238 62.7692159,12.189582 65.6512338,21.6073381 C69.727688,34.9333829 67.8191517,49.854189 69.3658346,63.7000554 C69.51634,65.0413236 71.1110566,65.1407956 71.143079,63.7000554 C71.2839776,58.4986303 76.1225654,55.129416 80.1189635,56.5637386 C84.2754737,58.0750719 86.4786163,63.3759691 86.8564808,68.2565166 C86.8660876,68.4394168 86.8788965,68.622317 86.8885033,68.8052173 C86.9493459,69.9347062 88.1213665,70.3293856 88.6337252,69.3699617 C93.3314143,60.7961136 102.739602,56.5091895 110.940543,59.7532615"/>
    <path d="M204.792 101.28523C205.263 101.28523 205.734 101.31223 206.208 101.35123 205.854 101.85223 205.089 101.84023 204.792 101.28523M191.8615 82.9465L191.9275 84.0535C191.6425 83.7115 191.3575 83.3695 191.0725 83.0125 191.3365 82.9855 191.6005 82.9585 191.8615 82.9465"/>
    <path d="M191.948422,83.5283562 C200.012684,83.1718859 207.149944,91.5327352 206.997605,101.300022 C206.997605,101.585198 206.913332,101.828246 206.783682,102 C206.271562,101.957872 205.762684,101.928706 205.253806,101.928706 C205.159809,101.756952 205.11119,101.556032 205.11119,101.300022 C205.263529,92.3137292 198.505497,84.9509968 191.09597,85.8486539 C190.561162,85.9069854 190.191658,85.281542 190.159245,84.7241521 C189.851325,78.6706379 189.173901,71.4796594 185.213078,67.1372028 C181.988022,63.5757402 175.975479,62.8206713 173.298196,67.4936731 L173.178269,67.3932133 C173.119927,66.4404653 173.058343,65.4844768 173,64.5317288 C176.095406,61.24248 181.005919,61.313774 184.632892,63.8479539 C190.243518,67.7626462 191.510852,76.3211745 191.948422,83.5283562 C191.666432,83.5413187 191.381201,83.5704845 191.09597,83.5996503 C191.40389,83.9852863 191.71181,84.3547192 192.01973,84.7241521 L191.948422,83.5283562 Z"/>
    <path d="M173.307,67.8245 C172.77,67.6535 172.233,67.4825 171.693,67.2965 C172.101,66.4655 172.584,65.7545 173.142,65.1755 C173.196,66.0575 173.253,66.9425 173.307,67.8245"/>
    <path d="M171.032918,67.3206561 C170.447591,57.4567331 169.769508,46.6010137 164.060172,38.7937965 C158.862597,31.6954594 150.930299,30.4112103 144.015126,34.6867425 C129.273206,43.7813876 128.92137,67.1807874 125.479776,84 L125.457387,84 C125.668488,81.3043485 125.505364,78.6086969 125,76.0084104 C127.949024,58.4072045 130.594189,37.1598757 146.532352,31.069229 C153.764177,28.3036431 161.146332,30.9992947 165.918505,38.0404128 C170.98494,45.5265677 172.088425,55.1679723 172.705737,64.5137454 C172.110815,65.1272604 171.595855,65.8806441 171.164057,66.7611813 C171.73659,66.958269 172.309122,67.1394625 172.881655,67.3206561 L173,67.4192 C172.916839,67.571784 172.833678,67.7243681 172.753715,67.8801309 C172.261145,68.8719273 171.103285,68.3823868 171.032918,67.3206561"/>
    <path d="M124.902689 76C125.373689 78.5998409 125.526689 81.3015115 125.331689 84L123.585689 83.7040573C124.056689 81.2728719 124.485689 78.6698488 124.902689 76M125.375212 84.1235835L125.396212 84.1235835C125.375212 84.2165835 125.366212 84.3095835 125.342212 84.3995835 125.102212 85.5485835 123.509212 85.3235835 123.608212 84.1235835 123.620212 84.0305835 123.620212 83.9375835 123.620212 83.8475835L123.629212 83.8475835 125.375212 84.1235835zM88.3175 68.8245C87.7685 68.6535 87.2315 68.4675 86.6825 68.2965 87.0875 67.5585 87.5255 66.8475 87.9995 66.1755 88.1645 67.0575 88.2725 67.9545 88.3175 68.8245"/>
    <path d="M110.761058 59.3999257C102.670103 56.1360576 93.3880944 60.4491415 88.7534087 69.0753093 88.2479215 70.0405878 87.0916196 69.6435 87.0315929 68.5071186 87.0221151 68.3231023 87.0094779 68.139086 87 67.9550697L87.161124 67.9421562C87.7361157 68.1261726 88.3047888 68.3231023 88.8829398 68.5071186 88.8355504 67.5708953 88.7186565 66.6056168 88.5480545 65.6564801 93.9220153 57.698582 103.096608 53.8923501 111.257067 57.1852734 118.261224 59.9971716 123.382441 67.5579819 125 76.1841496 124.560858 78.8927405 124.109079 81.5303075 123.61307 84L123.600432 84C124.317592 73.4884722 119.095278 62.7638729 110.761058 59.3999257M78.8224126 54.0697953C83.8788642 54.7776823 87.0072245 60.181641 88 65.7499306 87.4988239 66.4578176 87.0327621 67.2067873 86.6018145 67.984199L86.4358199 68C86.062332 63.1933209 83.8660954 57.9726544 79.7226142 56.4841956 75.7387433 55.0684216 70.9153226 58.3898021 70.7748656 63.5125021 70.7397513 64.9314363 69.1532258 64.8334698 69 63.5125021 69.5841734 63.4303367 70.1683468 63.3323702 70.7525202 63.2344037 70.5769489 61.7080223 70.4492608 60.1531991 70.343918 58.6110167 72.141129 55.4697682 75.4929435 53.6084047 78.8224126 54.0697953"/>
    <path d="M70.938 59C71.037 60.5731786 71.157 62.1592521 71.322 63.7163121 70.773 63.8162476 70.224 63.9161831 69.678 64 69.72 62.1302386 70.182 60.4313346 70.938 59M19.4 82.4415C18.995 82.8105 18.599 83.1795 18.194 83.5485 17.984 82.8495 17.786 82.1505 17.6 81.4515 18.203 81.7155 18.806 82.0455 19.4 82.4415"/>
    <path d="M67.6757751 21.2593111C71.3039474 33.2779421 70.1809417 46.4292527 71 59.0592732 70.1937395 60.487994 69.7010247 62.1837955 69.6562325 64.0501424 68.1108999 50.1619466 70.0177699 35.2022102 65.9448746 21.8385222 63.0653728 12.3941629 56.6760782 2.69237648 47.7080298 2.19682917 38.3336517 1.67553915 30.818152 10.9364816 26.1725558 19.775887 16.3502551 38.497278 14.3378033 61.971418 20.0392169 82.9163362L19.8408512 83C19.2073608 82.5752452 18.5642721 82.2212828 17.9211834 81.9381129 14.6801441 69.8068575 14.1746316 56.7553 16.212679 44.2379039 18.0843551 32.7276915 22.1700482 21.2721825 28.4793566 12.2654494 34.0016012 4.40426716 42.2785692-2.06037265 51.1378364.613652078 59.2964249 3.07529939 64.9146528 12.1238644 67.6757751 21.2593111M2.04948917 102.102774C2.31348917 102.945774 1.22748917 103.263774.951489169 102.459774.930489169 102.405774.918489169 102.366774.909489169 102.312774.984489169 102.207774 1.09548917 102.141774 1.23648917 102.129774 1.50048917 102.102774 1.77648917 102.090774 2.04048917 102.075774 2.04948917 102.090774 2.04948917 102.090774 2.04948917 102.102774"/>
    <path d="M19.9566552 82.7242878C20.2076399 83.6249916 19.3135069 84.3663652 18.6923197 83.9241423 9.00744728 76.994901-1.49312544 89.0389695 2.19007515 101.743121 1.91399197 101.759379 1.62849687 101.772385 1.35241369 101.80165 1.20182286 101.814657 1.08574244 101.886193 1.00730971 102-3.41315846 88.5674819 7.54859867 76.3510766 17.6821063 81.0106744 17.8797567 81.7683061 18.0836818 82.5226862 18.3032934 83.2803179 18.7268301 82.8803664 19.1409549 82.4804149 19.5644916 82.0804634L19.762142 81.9959208C19.8280255 82.2397937 19.8876344 82.4804149 19.9566552 82.7242878M46.8774806 101.561901C73.642655 101.549901 100.395061 101.534901 127.157044 101.534901L167.293633 101.534901C179.822352 101.534901 192.41172 101.099901 204.930863 101.732901 205.246874 102.287901 206.064034 102.299901 206.437501 101.798901 206.763088 101.810901 207.101443 101.825901 207.430223 101.852901 208.189926 101.891901 208.189926 103.130901 207.430223 103.169901 192.354263 104.078901 177.150623 103.487901 162.061895 103.487901 135.299913 103.487901 108.544315 103.487901 81.7823324 103.472901 68.3981492 103.472901 55.0267341 103.460901 41.6457429 103.460901 28.3094402 103.445901 14.8103439 104.066901 1.49957735 103.103901.985660463 103.064901.867555341 102.419901 1.14845401 102.101901 1.1580301 102.155901 1.17079822 102.194901 1.19314244 102.248901 1.48680923 103.052901 2.64232421 102.734901 2.36142554 101.891901 2.36142554 101.876901 2.36142554 101.876901 2.35184945 101.864901 17.1213738 100.850901 32.0919961 101.573901 46.8774806 101.561901"/>
  </g>
</svg>
