<svg xmlns="http://www.w3.org/2000/svg" width="62" height="61" viewBox="0 0 62 61">
  <defs>
    <linearGradient id="discover-a" x1="153.237%" x2="0%" y1="191.965%" y2="32.832%">
      <stop offset="0%" stop-color="#F27320"/>
      <stop offset="100%" stop-color="#FA8437"/>
    </linearGradient>
  </defs>
  <path fill="url(#discover-a)" d="M13.5625 15.1770833L1.9375 15.1770833C.868 15.1770833 0 14.3271667 0 13.2799479L0 1.89713542C0 .849916667.868 0 1.9375 0L13.5625 0C14.632 0 15.5.849916667 15.5 1.89713542L15.5 13.2799479C15.5 14.3271667 14.632 15.1770833 13.5625 15.1770833zM36.8125 15.1770833L25.1875 15.1770833C24.118 15.1770833 23.25 14.3271667 23.25 13.2799479L23.25 1.89713542C23.25.849916667 24.118 0 25.1875 0L36.8125 0C37.882 0 38.75.849916667 38.75 1.89713542L38.75 13.2799479C38.75 14.3271667 37.882 15.1770833 36.8125 15.1770833zM36.8125 37.9427083L25.1875 37.9427083C24.118 37.9427083 23.25 37.0927917 23.25 36.0455729L23.25 24.6627604C23.25 23.6155417 24.118 22.765625 25.1875 22.765625L36.8125 22.765625C37.882 22.765625 38.75 23.6155417 38.75 24.6627604L38.75 36.0455729C38.75 37.0927917 37.882 37.9427083 36.8125 37.9427083zM60.0625 15.1770833L48.4375 15.1770833C47.368 15.1770833 46.5 14.3271667 46.5 13.2799479L46.5 1.89713542C46.5.849916667 47.368 0 48.4375 0L60.0625 0C61.132 0 62 .849916667 62 1.89713542L62 13.2799479C62 14.3271667 61.132 15.1770833 60.0625 15.1770833zM13.5625 37.9427083L1.9375 37.9427083C.868 37.9427083 0 37.0927917 0 36.0455729L0 24.6627604C0 23.6155417.868 22.765625 1.9375 22.765625L13.5625 22.765625C14.632 22.765625 15.5 23.6155417 15.5 24.6627604L15.5 36.0455729C15.5 37.0927917 14.632 37.9427083 13.5625 37.9427083zM13.5625 60.7083333L1.9375 60.7083333C.868 60.7083333 0 59.8584167 0 58.8111979L0 47.4283854C0 46.3811667.868 45.53125 1.9375 45.53125L13.5625 45.53125C14.632 45.53125 15.5 46.3811667 15.5 47.4283854L15.5 58.8111979C15.5 59.8584167 14.632 60.7083333 13.5625 60.7083333zM57.15625 34.1484375L51.34375 34.1484375C50.809 34.1484375 50.375 33.7234792 50.375 33.1998698L50.375 27.5084635C50.375 26.9848542 50.809 26.5598958 51.34375 26.5598958L57.15625 26.5598958C57.691 26.5598958 58.125 26.9848542 58.125 27.5084635L58.125 33.1998698C58.125 33.7234792 57.691 34.1484375 57.15625 34.1484375zM33.90625 56.9140625L28.09375 56.9140625C27.559 56.9140625 27.125 56.4891042 27.125 55.9654948L27.125 50.2740885C27.125 49.7504792 27.559 49.3255208 28.09375 49.3255208L33.90625 49.3255208C34.441 49.3255208 34.875 49.7504792 34.875 50.2740885L34.875 55.9654948C34.875 56.4891042 34.441 56.9140625 33.90625 56.9140625zM57.15625 56.9140625L51.34375 56.9140625C50.809 56.9140625 50.375 56.4891042 50.375 55.9654948L50.375 50.2740885C50.375 49.7504792 50.809 49.3255208 51.34375 49.3255208L57.15625 49.3255208C57.691 49.3255208 58.125 49.7504792 58.125 50.2740885L58.125 55.9654948C58.125 56.4891042 57.691 56.9140625 57.15625 56.9140625z"/>
</svg>
