<svg xmlns="http://www.w3.org/2000/svg" width="63" height="62" viewBox="0 0 63 62">
  <defs>
    <linearGradient id="explore-a" x1="4.781%" x2="97.968%" y1="4.781%" y2="97.968%">
      <stop offset="0%" stop-color="#FCD500"/>
      <stop offset="100%" stop-color="#DEBC03"/>
    </linearGradient>
  </defs>
  <g fill="url(#explore-a)">
    <path d="M31.5,13 C21.8516667,13 14,20.8516667 14,30.5 C14,40.1483333 21.8516667,48 31.5,48 C41.1483333,48 49,40.1483333 49,30.5 C49,20.8516667 41.1483333,13 31.5,13 Z M31.5,44.1111111 C23.9944444,44.1111111 17.8888889,38.0055556 17.8888889,30.5 C17.8888889,22.9944444 23.9944444,16.8888889 31.5,16.8888889 C39.0055556,16.8888889 45.1111111,22.9944444 45.1111111,30.5 C45.1111111,38.0055556 39.0055556,44.1111111 31.5,44.1111111 Z"/>
    <circle cx="32" cy="31" r="4"/>
    <path d="M58.1627813,24.2265 C58.739625,26.392625 59.0625,28.6575625 59.0625,31 C59.0625,45.9575 46.69875,58.125 31.5,58.125 C16.30125,58.125 3.9375,45.9575 3.9375,31 C3.9375,16.0425 16.30125,3.875 31.5,3.875 C36.90225,3.875 41.94225,5.4191875 46.1986875,8.071625 C45.6316875,9.141125 45.28125,10.3385 45.28125,11.625 C45.28125,15.899125 48.8131875,19.375 53.15625,19.375 C57.4993125,19.375 61.03125,15.899125 61.03125,11.625 C61.03125,7.350875 57.4993125,3.875 53.15625,3.875 C51.5556563,3.875 50.0672813,4.3535625 48.8230312,5.165375 C43.8499688,1.9161875 37.9063125,0 31.5,0 C14.1316875,0 0,13.907375 0,31 C0,48.092625 14.1316875,62 31.5,62 C48.8683125,62 63,48.092625 63,31 C63,27.95425 62.5097813,25.0266875 61.6651875,22.2483125 C60.6119062,23.0698125 59.4345937,23.734375 58.1627813,24.2265 Z"/>
  </g>
</svg>
