<svg xmlns="http://www.w3.org/2000/svg" width="58" height="67" viewBox="0 0 58 67">
  <defs>
    <linearGradient id="launch-a" x1="0%" x2="68.807%" y1="0%" y2="91.994%">
      <stop offset="0%" stop-color="#64D3F1"/>
      <stop offset="100%" stop-color="#34A7DE"/>
    </linearGradient>
  </defs>
  <path fill="url(#launch-a)" fill-rule="evenodd" d="M15.6244898 12.5593985L20.3591837 12.5593985 20.3591837 32.8637594 15.1510204 39.7714286 44.5061224 39.7714286 39.2979592 32.8637594 39.2979592 12.5593985 44.0326531 12.5593985C45.4530612 12.5593985 46.4 11.7221053 46.4 10.4661654L46.4 2.09323308C46.4.837293233 45.4530612 0 44.0326531 0L15.6244898 0C14.2040816 0 13.2571429.837293233 13.2571429 2.09323308L13.2571429 10.4661654C13.2571429 11.7221053 14.2040816 12.5593985 15.6244898 12.5593985zM56.9015781 56.372987L46.7080332 43.0857143 11.1491558 43.0857143 1.19267007 56.372987C-.229685028 58.2711688-.466744211 60.8020779.955610887 62.9111688 2.1409068 65.0202597 4.51149863 66.2857143 7.11914965 66.2857143L50.9750985 66.2857143C53.5827495 66.2857143 55.9533414 65.0202597 57.1386373 62.9111688 58.3239332 60.8020779 58.3239332 58.4820779 56.9015781 56.372987z"/>
</svg>
