<svg xmlns="http://www.w3.org/2000/svg" viewBox="0 0 232 394">
  <g fill="none" fill-rule="evenodd">
    <path fill="#D5EAF5" d="M231.41808,379.43424 C231.41808,373.26784 184.171983,368.27264 125.893899,368.27264 C67.6126146,368.27264 20.3697188,373.26784 20.3697188,379.43424 C20.3697188,381.61664 26.3178993,383.64864 36.5623438,385.37024 C32.5157882,386.16384 30.217191,387.06624 30.217191,388.02624 C30.217191,391.10784 53.8402396,393.60704 82.9792813,393.60704 C103.404142,393.60704 121.104622,392.37824 129.873226,390.58304 C186.307309,390.36224 231.41808,385.45664 231.41808,379.43424"/>
    <path fill="#FF97A6" d="M7.18924974,162.752302 C7.19224998,162.765679 7.88230401,165.631562 7.99331271,167.176531 C8.10132116,168.724844 6.86522437,167.614607 6.86522437,167.614607 L6.3011802,166.21009 L4,162.367732 L6.08216305,161 L7.18924974,162.752302 Z"/>
    <path fill="#D3E7F2" d="M23.9220848,206.685608 C24.6601384,205.371311 26.0560224,208.621791 25.9982617,206.534945 C25.760801,197.649019 18.4059361,179.441206 12.9090411,169.548722 C11.516366,167.041942 8.29139249,166.230925 5.89753159,167.80808 C5.86544231,167.827314 5.83335302,167.849753 5.80126373,167.872192 C-0.735324278,172.177314 2.69822956,177.924957 4.79366008,182.710919 C6.88588167,187.500086 15.4152145,200.790508 15.4152145,200.790508 C15.4152145,200.790508 19.2338398,207.906942 20.8575578,210.10919 C22.5839615,212.446073 22.1732186,209.791835 23.9220848,206.685608"/>
    <path fill="#AACBE8" d="M108.665568,363 C108.435952,363 108.199957,362.932727 108.002232,362.788571 L81.4719889,343.580526 C81.165834,343.356283 80.9872435,342.99429 81.0031891,342.61628 C81.0159456,342.23827 81.2168598,341.889091 81.5357712,341.687272 L107.718401,325.339932 L81.5357712,308.986185 C81.2041033,308.777959 81,308.412763 81,308.018735 C81,307.624707 81.2041033,307.259511 81.5357712,307.051285 L107.718401,290.703945 L81.5357712,274.356605 C81.2041033,274.148379 81,273.77998 81,273.385952 C81,272.995128 81.2041033,272.629932 81.5357712,272.421706 L107.718401,256.074366 L81.5357712,239.733433 C81.2041033,239.525207 81,239.160011 81,238.765983 C81,238.371955 81.2041033,238.003556 81.5357712,237.798533 L107.718401,221.451193 L81.5357712,205.107057 C81.0031891,204.770692 80.8405443,204.072334 81.1722122,203.537353 C81.500691,203.002373 82.2022962,202.842199 82.7348783,203.168954 L110.464229,220.486947 C110.799086,220.691969 111,221.057166 111,221.451193 C111,221.845221 110.799086,222.213621 110.464229,222.418643 L84.2815988,238.765983 L110.464229,255.106916 C110.799086,255.318345 111,255.680338 111,256.074366 C111,256.468393 110.799086,256.83359 110.464229,257.045019 L84.2815988,273.385952 L110.464229,289.733292 C110.799086,289.941518 111,290.309918 111,290.703945 C111,291.097973 110.799086,291.459966 110.464229,291.668192 L84.2815988,308.018735 L110.464229,324.369278 C110.799086,324.580708 111,324.945904 111,325.339932 C111,325.730756 110.799086,326.095952 110.464229,326.307382 L84.1699798,342.725198 L109.328904,360.936961 C109.835973,361.305361 109.950781,362.016533 109.584033,362.529089 C109.363984,362.833419 109.016371,363 108.665568,363"/>
    <path fill="#AACBE8" d="M55.6595318,363 C55.3119432,363 54.9643545,362.836623 54.7411324,362.532292 C54.3744103,362.02294 54.4860214,361.311768 54.9898656,360.940165 L79.8408628,342.731605 L53.5325441,326.307382 C53.2008999,326.095952 53,325.730756 53,325.339932 C53,324.945904 53.2008999,324.580708 53.5325441,324.369278 L79.7164962,308.018735 L53.5325441,291.668192 C53.2008999,291.459966 53,291.097973 53,290.703945 C53,290.309918 53.2008999,289.941518 53.5325441,289.733292 L79.7164962,273.385952 L53.535733,257.045019 C53.2008999,256.83359 53,256.468393 53,256.074366 C53,255.680338 53.2008999,255.318345 53.535733,255.106916 L79.7164962,238.765983 L53.5325441,222.418643 C53.2008999,222.213621 53,221.845221 53,221.451193 C53,221.057166 53.2008999,220.691969 53.5325441,220.486947 L81.2662953,203.168954 C81.8020283,202.842199 82.5003946,203.002373 82.82885,203.537353 C83.1604942,204.072334 82.9946721,204.770692 82.4653169,205.107057 L56.2813648,221.451193 L82.4653169,237.798533 C82.7937722,238.003556 82.997861,238.371955 82.997861,238.765983 C82.997861,239.160011 82.7937722,239.525207 82.462128,239.733433 L56.2813648,256.074366 L82.462128,272.421706 C82.7937722,272.629932 82.997861,272.995128 82.997861,273.385952 C82.997861,273.77998 82.7937722,274.148379 82.4653169,274.356605 L56.2813648,290.703945 L82.4653169,307.051285 C82.7937722,307.259511 82.997861,307.624707 82.997861,308.018735 C82.997861,308.412763 82.7937722,308.777959 82.4653169,308.986185 L56.2813648,325.339932 L82.4653169,341.687272 C82.7810167,341.885887 82.9851055,342.235066 82.997861,342.613076 C83.0138054,342.991087 82.8384166,343.353079 82.5322835,343.577323 L56.3260093,362.782164 C56.1251094,362.929524 55.8923206,363 55.6595318,363"/>
    <polygon fill="#295A6E" points="44 206 117 206 117 199 44 199"/>
    <path fill="#295A6E" d="M117.244357,204.574413 L76.4523658,204.574413 L51.4045402,204.574413 C49.7976023,204.574413 46.8069124,205.15266 45.2796837,204.574413 C44.2115802,204.172155 45.6399694,205.693195 45.4677975,204.29786 C45.2382349,202.453128 45.4677975,200.413551 45.4677975,198.553106 C44.8970795,198.839086 44.3263614,199.121924 43.7588318,199.40162 L84.5476342,199.40162 L109.601837,199.40162 C111.205586,199.40162 114.193088,198.826516 115.720316,199.40162 C116.78842,199.803878 115.360031,198.282838 115.535391,199.678172 C115.764953,201.522905 115.535391,203.568767 115.535391,205.42607 C115.535391,206.450572 118,205.947749 118,205.130661 L118,198.553106 C118,198.144562 117.620584,198 117.244357,198 L44.7089657,198 C44.313608,198 43,198.22627 43,198.851657 L43,205.42607 C43,205.834614 43.3794159,205.979175 43.7588318,205.979175 L116.291034,205.979175 C117.23798,205.979175 118.902308,204.574413 117.244357,204.574413"/>
    <polygon fill="#295A6E" points="55 375 110 375 110 361 55 361"/>
    <path fill="#295A6E" d="M110.223587,374.444651 L72.5386658,374.444651 C67.0652727,374.444651 60.8635911,375.277 55.4383228,374.444651 C54.1582033,374.24709 55.5281558,374.881877 55.4896559,374.791193 C55.0501162,373.777477 55.4896559,371.724134 55.4896559,370.635927 L55.4896559,360.62831 C54.9185751,360.932749 54.3474942,361.233949 53.7796216,361.538388 L91.4613342,361.538388 C96.9347273,361.538388 103.139617,360.7028 108.561677,361.538388 C109.841797,361.73271 108.471844,361.097923 108.513552,361.188607 C108.953092,362.205562 108.513552,364.255666 108.513552,365.343873 L108.513552,375.35149 C108.513552,376.472084 111,375.983039 111,375.072961 L111,360.62831 C111,360.204039 110.624627,360 110.223587,360 L54.7100343,360 C54.2801195,360 53,360.229948 53,360.906839 L53,375.35149 C53,375.779 53.3785817,375.983039 53.7796216,375.983039 L109.289966,375.983039 C110.29417,375.983039 111.895121,374.444651 110.223587,374.444651"/>
    <path fill="#30193B" d="M58.0050426,198.362913 C57.866774,197.501913 60.6044922,196.511913 62.2237712,196.211913 C61.778239,196.478913 61.2313099,196.862913 61.9042171,197.081913 C62.8905331,197.405913 65.0936128,197.150913 65.7726652,196.433913 C65.993895,196.991913 66.0184761,197.756913 65.9908223,198.278913 C65.9508781,198.953913 58.0972216,198.932913 58.0050426,198.362913"/>
    <path fill="#FF97A6" d="M61.6239138,197.562593 C60.8627042,197.343593 60.6506778,196.851593 61.8359402,196.713593 C62.8960723,196.587593 63.7719847,196.263593 63.9631561,196.194593 C64.4706291,196.008593 64.6896072,195.300593 64.6896072,195.300593 L65.6385123,195.303593 C65.6385123,195.303593 65.9304831,196.752593 66,196.914593 C65.2318387,197.628593 62.7396594,197.883593 61.6239138,197.562593"/>
    <path fill="#30193B" d="M87.9874319,198.418998 C88.2090022,197.455998 85.4486047,196.528998 83.8391422,196.207998 C84.2792056,196.480998 84.8115899,196.870998 84.1284146,197.083998 C83.1344254,197.389998 80.9371859,197.107998 80.2786295,196.378998 C80.0416723,196.936998 79.9893571,197.698998 80.0016665,198.223998 C80.0170534,198.898998 87.8581825,198.982998 87.9874319,198.418998"/>
    <path fill="#FF97A6" d="M83.356509,197.593303 C84.1296065,197.383303 84.3594463,196.894303 83.1754231,196.738303 C82.1237319,196.600303 81.256609,196.270303 81.0685582,196.195303 C80.5670896,196.003303 80.3755564,195.289303 80.3755564,195.289303 L79.4248554,195.283303 C79.4248554,195.283303 79.0766133,196.732303 79,196.891303 C79.7452382,197.617303 82.2316869,197.902303 83.356509,197.593303"/>
    <path fill="#FF97A6" d="M88.6153466,83.7398075 C84.4565243,76.6390361 79.0400844,71.4957746 77.611997,71 C76.1581782,72.0395274 72.6008252,74.1441704 68.1300108,75.6602811 C62.0349078,77.7233431 58.8120618,77.9248514 57.9307646,78.0591904 C56.7085275,78.977173 54.8430079,84.6290032 52.9067271,92.698934 C47.9888313,113.169626 64.6787995,194.75813 64.6787995,194.75813 L65.6598055,195.327471 C65.6598055,195.327471 67.2647957,159.135927 69.5548819,132.786307 C71.0087007,116.051516 72.2920495,99.5758073 72.3949748,99.3615047 C75.2993959,106.286356 76.8111101,182.219831 80.2655379,194.681365 C80.8509251,196.786008 81.4781257,196.139902 81.503857,194.364709 C81.6904089,181.564129 99.1683983,101.750818 88.6153466,83.7398075"/>
    <path fill="#3B2B5B" d="M56.2765481,79.8173192 C56.2765481,79.8173192 51.3044645,86.6244559 51.0114269,105.313721 C50.7183893,124.002986 56.158696,149.592068 56.158696,149.592068 C56.158696,149.592068 73.0051725,151.707713 84.0004527,150.752157 C94.9989181,149.796601 94.4319541,148.716408 94.4319541,148.716408 C94.4319541,148.716408 100.372336,99.8967744 89.1286107,83.7833552 C81.6338556,73.0389452 76.8911059,71 76.8911059,71 L56.2765481,79.8173192 Z"/>
    <path fill="#30193B" d="M71.5802067,150.850636 C71.5802067,150.850636 73.0055699,150.911356 73.7245584,150.933727 C77.3131941,151.048776 80.9617455,151.029601 84.1215109,150.751565 C95.0104028,149.796017 94.4459337,148.715831 94.4459337,148.715831 C94.4459337,148.715831 100.330287,99.89656 89.1985789,83.7832603 C81.7784912,73.03893 77.0829917,71 77.0829917,71 L65.3805074,76.0557795 L62,78.2992417 C62,78.2992417 72.3748782,91.7280566 76.6194333,121.429962 C78.7795523,136.53658 71.5802067,150.850636 71.5802067,150.850636"/>
    <path fill="#FF97A6" d="M9.56094543 4.98778437C9.31393731 4.02400626 8.91597979 3.02512364 8.30532083 2.34218154 7.45108442 1.39755133 5.81465564.705035269 4.62421374.239102804 4.14048951.0444323898 3.20734773-.265125481 3.01866098.433773217 2.91231026.829496681 3.29311444 1.49329088 3.3411438 1.8124227 3.3411438 1.87305775 3.3411438 4.38781654 4.14048951 4.69737441 4.25370157 4.74205287 4.38749763 4.76758341 4.52129369 4.79311396 5.159398 5.06756733 6.19202916 5.16649819 6.87816282 5.04203678 6.97422153 5.06756733 8.87824244 7.54083898 9.32765999 7.93017981 9.7050335 8.2780335 9.1526959 7.22808979 9.57123744 6.93448851 9.82853756 6.75896601 9.95890295 6.31537277 9.9863483 6.12070235 10.072115 6.18452872 9.73247885 5.33244674 9.56094543 4.98778437M5.73013667 21.5972978C5.95127418 20.7082696 6.08456254 19.7329923 5.93915706 18.9268958 5.73316595 17.7990241 4.88496727 16.5616825 4.25487682 15.6859233 3.99738793 15.3276582 3.47938088 14.6874252 3.06436939 15.1783811 2.82808547 15.4570317 2.82202691 16.1569756 2.72508992 16.4356263 2.70085567 16.4853853 1.67695869 18.5321407 2.10408731 19.1126629 2.16467293 19.1955946 2.24646352 19.2752091 2.32522482 19.3515063 2.65541645 19.8391449 3.33094612 20.3466872 3.85501173 20.529137 3.90953879 20.5888479 4.21852545 23.395258 4.3699895 23.8961657 4.49419002 24.3340453 4.53659995 23.2492981 4.94555289 23.18627 5.19395393 23.14978 5.42720857 23.7269849 5.52717484 23.5810251 5.56049693 23.6672741 5.7089317 21.9489284 5.73013667 21.5972978"/>
    <path fill="#FF97A6" d="M4.852,17.899301 C4.852,17.899301 5.563,16.109226 5.968,16.0020736 C6.373,15.8949212 5.968,19.9761663 5.968,19.9950756 C5.968,20.1179857 4.852,17.899301 4.852,17.899301"/>
    <path fill="#FF5E4D" d="M56.7900712,47.6942683 C56.7262485,43.6563369 51.0109317,40.7246439 48.2888963,37.6155658 C46.6550369,35.7546341 44.185101,33.7324432 41.5492262,34.0291602 C40.1036435,34.1904195 38.8176175,35.0354179 38.4825486,36.4415985 C37.1550379,36.2093852 35.6903084,36.9189258 34.73616,38.0509657 C33.1342119,39.9538247 32.917215,42.6500793 32.4640743,45.1560479 C31.439721,48.2328742 29.1165771,50.7646443 27.7763018,53.7543906 C26.4998491,56.5893281 25.8009913,59.7209826 26.0498995,62.8429615 C26.4168797,67.284041 28.6251428,69.9061162 31.829039,71.5477353 C31.7652164,71.576762 31.7237317,71.6315901 31.7237317,71.7057694 C31.8800972,79.5107166 43.0362936,79.2978544 47.191147,75.1857438 C50.098268,72.3088789 51.8693461,67.790395 52.8617881,63.8782458 C54.1190939,58.9501634 57.9293052,52.5933241 56.7900712,47.6942683"/>
    <path fill="#F9CB9D" d="M56.8769571,48.5484962 C58.5000635,49.1458295 67.7713482,55.914524 65.699835,51.531916 C65.084065,50.2236264 62.349415,45.7014243 60.0379094,41.9810771 C55.7938336,35.147455 39.7143439,22.3729645 32.1640572,22.006124 C27.3357894,21.7723849 32.0945857,28.3073403 32.0945857,28.3073403 L48.7930031,40.7734251 C48.7930031,40.7734251 56.0148792,48.2303514 56.8769571,48.5484962"/>
    <path fill="#FFE5B0" d="M12.2369757,52.4012652 C11.6072845,53.5973629 12.3037611,54.8393382 13.4868173,55.4455795 C19.7646478,58.6471888 36.0348509,62.8908777 38.7126287,62.9302014 C40.4585907,62.9564173 41.9978359,62.999018 41.9978359,62.999018 C43.8551069,63.1006044 44.5961072,55.2915614 45,52.9976756 C44.0745447,53.8595213 43.6579309,54.393669 39.2405516,54.0200933 C31.9323173,53.4040211 20.2766695,49.5699547 17.2268014,49.0554688 C14.774822,48.6392924 13.1592507,50.6448041 12.2369757,52.4012652"/>
    <path fill="#F9CB9D" d="M12.9891712,2.00030973 C21.1168894,1.9119454 38.4983401,20.7556389 42.7918679,27.0074153 C44.2847141,29.181809 37.2574915,32 37.2574915,32 L27.9750504,26.4488265 C27.9750504,26.4488265 13.6973162,18.899988 10.5138535,14.0020794 C9.05290576,11.7551007 7.12305116,2.06342711 12.9891712,2.00030973"/>
    <path fill="#FFE5B0" d="M.343969717 32.7604068C1.08969572 36.4210467 8.913499 49.5341173 10.9358068 53.7267533 11.3213092 54.5247475 12.5789319 55.5222402 13.4352528 55.7470718 14.6739164 56.0732361 20.8545946 56.7508978 19.9003181 52.6374279 18.5573793 46.8234705 15.2837686 39.4071915 12.9454752 32.0289122 11.106439 26.2149548 6.34769599 23.2478098 4.23691222 22.180651 3.60494104 21.86082 2.84341576 21.9716525 2.33467895 22.4656489 1.12129428 23.6531402-.78409885 27.225114.343969717 32.7604068M38.0220591 62.2519309C38.0220591 62.2519309 40.0263818 57.2043926 42.3243315 54.9713951 47.9447334 49.5061738 57.4780329 45.7181104 61.7356229 47.4049071 68.1922232 49.9656251 78 71.9871575 78 71.9871575 78 71.9871575 74.8945764 75.7816469 65.2655289 80.3472432 61.0175137 82.3585475 56.179053 81.969781 56.179053 81.969781 56.179053 81.969781 54.4236748 79.6146915 45.4872039 68.9669882 43.1541466 66.1845769 37.6071515 61.8728033 38.0220591 62.2519309"/>
    <path fill="#FF97A6" d="M43,49.3141807 C43,49.3141807 45.8524156,52.866188 46.4359383,52.9808689 C47.0227209,53.0955497 48.3006031,52.7081144 47.9354939,51.4528238 C47.5703847,50.2006328 44.2289836,48 44.2289836,48 L43,49.3141807 Z"/>
    <path fill="#C95D77" d="M46.712,49.203 C46.079,48.705 45.578,48.147 45.578,48.147 L44.288,49.827 C44.288,49.827 44.627,50.265 45.098,50.853 C45.758,50.769 46.706,50.25 46.712,49.203"/>
    <path fill="#FF97A6" d="M46.9372642,45.9925415 C47.1259168,45.3634461 46.8551091,43.1285016 46.5751731,41.2710145 C46.3439216,39.7280751 45.0355251,38.7347664 43.678444,39.0625583 C41.578924,39.5724567 39.2785803,40.2743948 38.7065372,40.8571359 C37.8058735,41.7709798 37.9823549,43.3900729 38.0888523,44.5985984 C38.1923069,45.8038129 38.7673928,47.9129382 39.5250457,48.806916 C40.2188001,49.6280512 42.0201275,50.1478827 42.9846896,49.9624651 C45.8783759,49.3962791 46.6056009,48.4062815 46.9372642,45.9925415"/>
    <path fill="#FF5E4D" d="M44.8825092,41.8659733 C45.5167292,42.5610012 46.2571731,43.1281702 46.9257596,43.7838569 C46.6851934,41.5873065 46.0759674,39.0727481 43.7890266,38.3219869 C41.9301062,37.7220336 39.8712347,38.8039166 38.5059435,40.0464428 C36.4533204,41.9282636 35.1755079,44.4690494 33.482172,46.6688782 C35.4316953,45.9312307 37.2937399,45.2034185 38.9245911,43.800249 C40.4617153,42.4855973 41.4802162,40.8201531 42.6143139,39.1350383 C42.6611774,39.0760265 42.7830226,39.1153677 42.7580287,39.200607 C42.748656,39.2169992 42.7361591,39.2366698 42.7361591,39.2596188 C42.7361591,39.2596188 42.748656,39.2563404 42.7580287,39.2628972 C43.5172181,40.0726703 44.1201957,41.0398081 44.8825092,41.8659733 M47.9973726,44.0297394 C48.0411119,44.5280612 47.5287372,44.662477 47.2069408,44.4559357 C47.1913197,44.4592141 47.1756985,44.4624926 47.16945,44.4559357 C45.2980326,43.7477941 43.3110185,41.515181 42.6518047,39.5186151 C41.4208557,43.4461782 37.1375281,46.7639528 33.2728482,47 C33.2478543,47 33.2322331,46.9868863 33.2134877,46.9803294 C33.1041394,47.022949 32.966673,46.9147607 33.0072881,46.7770665 C34.0539072,42.8986799 37.6030393,37.7187551 41.7082854,37.0761822 C46.0134827,36.4106602 47.6474581,40.2201998 47.9973726,44.0297394"/>
    <path fill="#FF5E4D" d="M48,44.2923313 C47.3037416,43.676252 46.5326516,43.1433434 45.8721822,42.4902993 C45.081571,41.710959 44.4503835,40.8053223 43.6630258,40.041384 C43.6532652,40.0383036 43.6369974,40.041384 43.6369974,40.041384 C43.640251,40.0167408 43.6500116,40.0013388 43.6630258,39.9828564 C43.6858006,39.9027661 43.5589124,39.8688818 43.5133628,39.9243289 C42.3290727,41.5045724 41.2684174,43.0724943 39.6676737,44.3046529 C37.9693237,45.6261431 36.0302115,46.3099912 34,47 C35.7634209,44.9330538 37.0941204,42.5488268 39.2316988,40.7806792 C40.6534976,39.6101284 42.7975831,38.5966779 44.7334418,39.1603905 C47.1182896,39.8658014 47.7494771,42.2253852 48,44.2923313"/>
    <path fill="#F9CB9D" d="M51,49.184649 C51,49.184649 51.838391,48.8100872 52.2544107,48.6372124 C56.00494,47.1005483 59.5935074,46.5659172 61.8165138,47.3758673 C71.1658433,50.7821395 78,71.8664524 78,71.8664524 C78,71.8664524 74.9100212,75.6504879 65.3288638,80.1996541 C64.7223006,80.4845772 63.4234298,81 63.4234298,81 C63.4234298,81 64.1983063,70.486656 60.8129852,63.27714 C57.0529287,55.2640766 51,49.184649 51,49.184649"/>
    <path fill="#3B2B5B" d="M46.3020314,380.673029 C46.372752,381.418758 46.6185904,382.237837 47.399885,381.482939 C48.5415179,380.373515 49.6999892,377.320306 49.1443271,376 C50.0940041,376.039731 51.2053282,376.461496 51.9327404,376.80991 C52.4614613,377.06358 49.7336657,382.760458 48.6223415,384.64923 C48.1508707,385.449971 46.8307523,386.290444 46.3020314,385.902298 C45.7160605,385.465253 46.133649,381.519615 46.3020314,380.673029"/>
    <path fill="#FF97A6" d="M47.1472249,381.699759 C46.4512249,382.455057 46.2352249,381.635544 46.1692249,380.889419 C46.4092249,379.537833 46.6582249,378.424762 46.6732249,378.158726 C46.7122249,377.455412 46.5052249,374 46.5052249,374 L47.5012249,374.342483 C47.5012249,374.342483 48.4582249,376.201679 48.7042249,376.21391 C49.1962249,377.537975 48.1642249,380.592804 47.1472249,381.699759"/>
    <path fill="#3B2B5B" d="M89.9233887,382.75559 C90.300444,383.476027 90.5782742,384.352504 89.4901059,384.076945 C87.9025048,383.675226 85.1572779,381.503954 84.8397577,380 C84.0790321,380.547798 83.4076092,381.523874 83.0107089,382.231032 C82.7229562,382.74231 88.3126351,386.490576 90.333519,387.626012 C91.1934696,388.10741 92.7744557,388.17381 92.9861359,387.529732 C93.2143536,386.825895 90.5584292,383.442827 89.9233887,382.75559"/>
    <path fill="#FF97A6" d="M89.2915576,383.951436 C90.2957699,384.209819 90.0393752,383.384861 89.6914111,382.712443 C88.7543498,381.685137 87.9424335,380.875745 87.7867654,380.651605 C87.3747026,380.075691 85.683719,377 85.683719,377 L85.0183139,377.849862 C85.0183139,377.849862 85.2014529,379.979187 85,380.1255 C85.2899701,381.538824 87.8264455,383.574757 89.2915576,383.951436"/>
    <path fill="#FF97A6" d="M61.0239655,245 C61.068574,245.333284 67.4444099,253.620524 71.0003483,262.058383 C77.5323141,277.552893 84.7397807,361.386689 85.98882,377.4324 C86.116273,379.047547 85.115767,379.2911 84.9309602,378.720672 L48.568622,277.277293 L47.4247314,374.769331 L46.841634,374.897517 C46.841634,374.897517 32.6879794,339.697578 29.5175863,311.211393 C23.1608684,254.133269 38.786605,253.008435 39.4684785,248.432186 C42.3903383,249.698025 55.4861331,247.74639 61.0239655,245"/>
    <path fill="#7F65C1" d="M39.9859048,248.89206 C39.9859048,248.89206 29.1986724,252.793711 28.1501817,283.862529 C27.1049072,314.934555 31.8584938,323.950705 31.8584938,323.950705 C31.8584938,323.950705 59.6467133,324.887614 74.8530444,318.592352 C74.8530444,318.592352 67.7323132,279.354454 68.5202893,274.86563 L79.1660077,317.809455 L84,316.651153 C84,316.651153 81.3240974,274.262415 73.0037127,259.409832 C64.6865443,244.55725 54.7676937,242 54.7676937,242 L39.9859048,248.89206 Z"/>
    <path fill="#6C56B2" d="M54.046092,323 C54.046092,323 55.7451685,322.807616 56.5994527,322.698599 C62.7977595,321.903412 69.0720027,320.614441 74.0015393,318.539902 C74.0015393,318.539902 66.9995724,279.33208 67.7715923,274.843124 L78.2444844,317.760747 L83,316.603238 C83,316.603238 80.3675389,274.243528 72.1822302,259.401116 C64.0000855,244.558705 54.242261,242 54.242261,242 L49.2905764,244.347083 L46,245.905391 C46,245.905391 54.451086,268.10969 54.6757311,287.072322 C54.9161963,307.182844 54.046092,323 54.046092,323"/>
    <path fill="#FFCA48" d="M77.8741149,220.574382 C77.2612352,220.708712 77.1271678,221.153282 75.7737251,221.380364 C75.1736137,221.479513 73.2615567,221.425141 71.6878603,220.42406 C70.9536815,219.960301 70.3695306,219.288649 69.7470746,218.674567 C69.099082,217.93575 68.4638577,217.18414 67.8414018,216.422935 C65.0259856,210.464425 60.6113364,203.552809 55.290136,199.574072 C52.8609618,197.751018 47.9483478,195.899178 45.1105871,197.798993 C42.1355668,195.832013 39.0967049,198.285141 37.6091948,201.585829 C37.0505805,202.833182 36.7217961,204.10932 36.5526157,205.395054 C35.4641158,209.907913 35.9078152,215.057243 38.5636273,218.844079 C38.5732035,218.856873 38.5827798,218.856873 38.5955481,218.866468 C39.9011096,221.86971 41.7397487,224.713036 43.4985858,227.111792 C46.901345,231.76218 51.1819267,235.900834 56.1168852,238.881688 C56.7201887,239.243101 57.240498,238.708978 57.240498,238.187648 C59.4749553,237.925384 61.8466721,237.218551 63.9917511,236.163098 C66.8422801,234.86777 69.4182902,232.878402 71.675092,230.770695 C74.3755932,228.259997 78.8030107,220.897415 77.8741149,220.574382"/>
    <path fill="#3B2B5B"/>
    <path fill="#D3E7F2" d="M28.7227035,223.215605 L28.7227035,223.218838 C28.7227035,223.218838 28.7098068,223.205903 28.7065826,223.202669 C28.284214,222.811372 27.9360018,222.442711 27.6361523,222.083753 C24.3958439,218.639689 17.5766873,205.678368 17.0446964,198.709394 C16.3579445,189.62224 23.812266,200.090253 23.812266,200.090253 C23.812266,200.090253 27.5362025,215.454334 35.4838247,217.941175 C37.7117383,218.639689 32.2177228,226.459169 28.7227035,223.215605"/>
    <path fill="#D3E7F2" d="M49.421566,217.239923 C49.3677828,217.236697 49.3139995,217.230245 49.2633799,217.227019 C41.7463749,216.607657 33.3878197,217.307666 28.9174796,218.69478 L28.9174796,218.691554 C28.9174796,218.691554 28.901661,218.698006 28.8984972,218.698006 C28.3575007,218.868976 28,226.488428 28,226.488428 C28.227788,236.256295 32.8151859,247.95967 35.8333773,252.104885 C36.4819404,252.995219 41.3129449,253.230706 46.5330873,252.769409 C53.3952017,252.156498 61.2222515,250.427444 64,248.282255 C63.3799104,246.395134 60.554706,236.830496 60.1592407,228.785232 C59.8618508,222.762574 57.7959399,217.601218 49.421566,217.239923"/>
    <path fill="#FF97A6" d="M45.0019745,210 C45.0019745,210 46.1089745,216.254205 45.8389745,216.984021 C45.5689745,217.71701 44.4589745,218.732406 43.6699745,217.206139 C42.8779745,215.683045 43.1719745,210.130098 43.1719745,210.130098 L45.0019745,210 Z"/>
    <path fill="#C95D77" d="M45.7939865,214.280152 C45.1279865,214.90099 44.1889865,215.28611 43.3009865,214.734991 C43.2019865,213.529834 43.1959865,212.171957 43.2139865,211.15604 L45.3319865,211 C45.4789865,211.942878 45.6619865,213.181235 45.7939865,214.280152"/>
    <path fill="#FF97A6" d="M40.1434704,208.923903 C40.1625873,207.861988 42.3036859,204.582269 42.3036859,204.582269 C44.3683167,202.568077 49.2240225,206.348995 49.7656695,207.316935 C50.3614812,208.378849 49.6892017,209.681966 49.2112779,210.662435 C48.7333541,211.639773 47.5226138,213.221681 46.503043,213.72288 C45.5726847,214.183356 43.6546172,214.029864 42.7720513,213.556858 C40.1211673,212.131574 39.7228974,211.060262 40.1434704,208.923903"/>
    <path fill="#AACBE8" d="M56.7302493,222.532677 C56.7302493,222.532677 56.7239889,222.545662 56.7239889,222.552154 C56.4923525,223.081269 56.2638464,223.532478 56.0290798,223.934995 C53.878618,228.132211 45.5271882,239.548768 39.3011786,242.294974 C31.1845155,245.87543 37.0474195,234.653639 37.0474195,234.653639 L49.1112913,222.493724 C50.012795,220.338309 58.6177726,218.153679 56.7302493,222.532677"/>
    <path fill="#FF97A6" d="M10.388507,220.694348 C9.99740181,219.673689 9.44853991,218.633589 8.7254883,217.969351 C7.70992945,217.045898 5.92530663,216.504786 4.63367353,216.148366 C4.10453122,215.996077 3.10211877,215.775744 3.00352082,216.56959 C2.95422185,217.013496 3.43735178,217.690695 3.53266313,218.034155 C3.54252293,218.098958 3.89418893,220.843396 4.76513746,221.07993 C4.88674159,221.112332 5.02806532,221.125293 5.16938904,221.138253 C5.86614786,221.352106 6.94415207,221.322944 7.6343377,221.099371 C7.73293564,221.115572 10.0467008,223.571633 10.5626967,223.937775 C11.0031009,224.268274 10.2833359,223.192532 10.674441,222.81667 C10.9143627,222.593097 10.9866679,222.094108 10.9866679,221.873776 C11.0852658,221.932099 10.6119957,221.047528 10.388507,220.694348"/>
    <path fill="#AACBE8" d="M38.9966533,239.19853 C38.7728343,230.396182 20.9713373,219.697894 11.2935269,216 C11.2935269,216 10.5306506,217.131082 8.9576124,220.615075 C5.74218352,227.732143 11.3250507,230.422109 15.3569463,233.089389 C19.388842,235.756669 32.7864623,241.651909 32.7864623,241.651909 C32.7864623,241.651909 39.1668819,245.949373 38.9966533,239.19853"/>
    <path fill="#FF97A6" d="M7.43363455,163.390097 C7.43363455,163.383235 7.43963455,163.383235 7.43363455,163.376373 C7.43363455,163.369512 7.43063455,163.36265 7.42763455,163.355788 C7.36763455,163.12935 7.25363455,162.89948 7.13363455,162.693627 C6.94763455,162.141254 6.73763455,161.599174 6.53663455,161.053662 C6.42863455,160.762037 6.26363455,160.014103 5.88863455,160.00038 C5.36963455,159.979794 5.49863455,160.799777 5.72963455,161.533987 C5.77463455,161.750133 5.84063455,161.966279 5.91563455,162.172132 C5.95463455,162.703919 5.85863455,163.215122 5.89463455,163.767495 C5.91563455,164.117445 6.05063455,165.132988 6.50663455,164.98546 C6.51263455,164.982029 6.51263455,164.978598 6.51863455,164.975167 C6.55763455,164.975167 6.59663455,164.98546 6.64163455,164.964875 C6.95963455,164.83107 7.43363455,164.151754 7.46963455,163.757202 C7.47863455,163.637121 7.46363455,163.513609 7.43363455,163.390097"/>
    <path fill="#FF97A6" d="M7.47819671,160.004632 C6.89019671,160.092008 7.02519671,161.442703 7.00419671,161.868663 C6.99519671,162.054338 6.97419671,162.283702 6.95919671,162.516705 C6.86319671,163.048246 6.87519671,163.641678 7.22319671,163.92201 C7.43619671,164.100404 7.57719671,163.951136 7.66719671,163.692647 C7.81119671,163.506972 7.87719671,163.201155 7.91619671,162.906259 C8.05119671,162.425688 8.11119671,161.901429 8.08719671,161.413578 C8.06619671,160.994899 8.01819671,159.920896 7.47819671,160.004632"/>
    <path fill="#AACBE8" d="M49.1713596,217.012784 C49.1166533,217.009588 49.0104586,217 49.0104586,217 C49.0104586,217 51.5720032,225.32892 51.5076428,234.319423 C51.4432824,243.351475 48,252 48,252 C48,252 48.9525342,251.932883 49.1617056,251.904118 C55.1086082,251.085928 61.5221239,249.631723 64,247.768423 C63.3692679,245.898731 60.4955752,236.422427 60.0933226,228.451466 C59.7908286,222.484431 57.689461,217.370742 49.1713596,217.012784"/>
    <path fill="#FFCA48" d="M52.9377095,210.648377 C52.8362137,210.464538 52.7019774,210.299082 52.5775632,210.124434 C52.6626887,210.072346 52.7052514,209.974299 52.6430444,209.863995 C51.6149906,207.98883 49.8699184,206.380234 48.4686221,204.750189 C48.3343858,204.505069 48.2034236,204.256886 48.0757354,204.008702 C48.0953797,204.008702 48.115024,204.008702 48.1379424,204.005638 C48.4260594,203.974998 48.632325,203.619575 48.4260594,203.420415 C48.4358816,203.294792 48.3769486,203.166104 48.2230679,203.126272 C47.8301811,203.028224 47.4143759,203.003712 46.9854745,203.02516 C44.9686556,202.829064 42.794682,203.806479 41.2722457,205.007564 C41.0692541,205.114804 40.8662626,205.222044 40.6665452,205.332348 C40.4962942,205.424267 40.4799239,205.589723 40.5454051,205.718411 C40.3620579,205.914506 40.1787107,206.113666 40.0313782,206.337338 C39.9167862,206.511985 40.1394221,206.708081 40.3227692,206.613097 C41.63894,205.91757 42.8568891,205.197532 44.3072962,204.747125 C44.7984047,204.593925 45.3222537,204.498941 45.8461028,204.400893 C46.4583514,207.633407 49.0645005,211.497104 52.5710151,211.996535 C52.8296656,212.033303 53.0392052,211.769799 52.8362137,211.570639 C52.7445401,211.47872 52.6430444,211.40212 52.5480967,211.316328 C52.8722283,211.285688 53.1210566,210.982353 52.9377095,210.648377"/>
    <path fill="#FFE19F" d="M37.2460166,216 C36.4742411,214.137653 36.0292253,212.108337 36.0043293,210.056545 C35.9545374,208.007963 36.3373131,205.949749 36.9939448,204.026394 C37.6256804,202.10625 38.332104,200.144364 39.6827112,198.542104 C40.3486788,197.768266 41.2791663,197.093968 42.3465816,197.016906 C43.404661,196.917367 44.4098364,197.27057 45.2936439,197.729735 L45.091364,197.749001 C45.6421877,197.395797 46.2179074,197.228828 46.809187,197.113234 C47.4035787,197.010484 48.0041943,196.984796 48.592362,197.036172 C49.1867536,197.074703 49.7655853,197.206351 50.338193,197.354055 C50.9045766,197.514602 51.4554003,197.723313 52,197.95129 C51.4429523,197.761845 50.8796807,197.598087 50.310185,197.479282 C49.7375773,197.376531 49.1618577,197.289836 48.583026,197.293047 C48.0073063,197.293047 47.4315867,197.325156 46.874539,197.450383 C46.3237153,197.57561 45.7604436,197.777899 45.3278759,198.082939 C45.2687479,198.127892 45.187836,198.131103 45.122484,198.102205 C44.2480125,197.697626 43.3081891,197.421485 42.3963736,197.511391 C41.4783341,197.594876 40.6847746,198.179267 40.071711,198.90494 C38.8580317,200.404451 38.1173761,202.30854 37.4731925,204.193363 C36.8165609,206.084608 36.4057771,208.049706 36.3590971,210.056545 C36.3342011,212.056962 36.598721,214.083067 37.2460166,216"/>
    <path fill="#3B2B5B" d="M213.763942,199.795227 C211.226818,195.441943 201.10077,195.070054 197.797055,197.479517 C193.425246,200.664009 193.566376,210.054977 194.60881,211.045638 C195.654452,212.033175 201.796796,205.851699 202.107922,208.533047 C202.425464,211.211269 201.594724,211.62691 201.594724,211.62691 C201.594724,211.62691 203.400541,212.823828 205.937666,210.930009 C208.308001,209.154944 210.703997,207.098619 210.065706,204.276641 C209.061762,199.854604 218.235184,207.467383 213.763942,199.795227"/>
    <path fill="#7F65C1" d="M214,199.223873 C213.268096,198.046261 212.097695,197.248101 210.869257,196.721446 C209.63437,196.181707 208.315654,195.867677 206.987264,195.687764 C205.65565,195.514393 204.304691,195.452242 202.969853,195.573274 C201.641464,195.687764 200.306626,195.936371 199.11043,196.47611 C197.907787,196.973325 196.988876,198.000465 196.315009,199.145366 C195.634693,200.296809 195.202644,201.598726 194.860874,202.910455 C194.535225,204.231998 194.344994,205.596066 194.280509,206.963405 C194.248267,207.647075 194.232146,208.334016 194.280509,209.020956 C194.335322,209.694813 194.380461,210.414465 194.744801,211 C194.338546,210.437363 194.241818,209.707897 194.141867,209.034041 C194.048364,208.3471 194.016121,207.653617 194,206.956863 C194.006448,205.566626 194.15154,204.17966 194.435273,202.812321 C194.712558,201.444982 195.170401,200.107083 195.863614,198.877132 C196.556827,197.660265 197.543447,196.518635 198.87506,195.946185 C200.177656,195.380276 201.560858,195.148025 202.931162,195.046619 C204.307916,194.948485 205.694341,195.000823 207.051749,195.246159 C208.405933,195.481682 209.747219,195.857864 210.98533,196.466297 C212.207319,197.094357 213.351926,197.997193 214,199.223873"/>
    <path fill="#3B2B5B" d="M217.962497,381.65533 C218.408857,378.857204 214.765164,379.628983 212.650493,379 C213.286794,379.407989 213.923095,379.999574 212.944901,380.325965 C211.51085,380.808752 208.335677,380.404163 207.370146,379.309392 C207.040915,380.155969 206.977602,381.315339 207.006093,382.110918 C207.044081,383.137691 217.652261,383.606878 217.962497,381.65533"/>
    <path fill="#FF97A6" d="M212.502063,379.796038 C213.467501,379.505038 212.839497,378.983038 212.211494,378.623038 C210.917993,378.278038 209.833828,378.041038 209.587,377.945038 C208.955872,377.693038 208.768409,377.141038 208.768409,377.141038 L208.112285,377.027038 C208.112285,377.027038 207.099981,378.683038 207,378.896038 C207.952941,379.862038 211.086711,380.222038 212.502063,379.796038"/>
    <path fill="#3B2B5B" d="M159.037513,379.653337 C158.591031,376.857128 162.23572,377.629317 164.35097,377 C163.714495,377.404804 163.078021,377.996702 164.056482,378.323267 C165.487759,378.80631 168.666967,378.401506 169.629595,377.309556 C169.962082,378.153181 170.022247,379.313166 169.993748,380.109167 C169.958916,381.136485 159.347834,381.609323 159.037513,379.653337"/>
    <path fill="#FF97A6" d="M163.498197,377.796005 C162.532255,377.505005 163.160586,376.983005 163.788917,376.626005 C165.083091,376.281005 166.167822,376.041005 166.411652,375.945005 C167.046235,375.693005 167.233796,375.141005 167.233796,375.141005 L167.887135,375.027005 C167.887135,375.027005 168.903093,376.683005 169,376.899005 C168.049689,377.862005 164.91116,378.222005 163.498197,377.796005"/>
    <path fill="#3B2B5B" d="M202.0675,255.926248 C202.099396,256.249361 206.309626,262.430085 209.355664,270.667851 C214.101742,283.509169 211.374661,363.506679 209.521522,377.243755 C209.269546,379.096053 204.861562,377.243755 204.762685,374.93718 C204.118393,360.457906 187.870731,285.662186 187.870731,285.662186 L168.538756,376.437573 L164,376.437573 C164,376.437573 169.556228,258.818264 171.737893,255.385595 C176.024673,254.477041 195.423629,255.388794 202.0675,255.926248"/>
    <path fill="#30193B" d="M202.155645,256.011131 C202.187257,256.334021 206.360125,262.510491 209.379131,270.742586 C214.08309,283.575064 211.38021,363.517504 209.543517,377.245123 C209.410743,378.229777 208.108303,378.165839 206.907023,377.542437 C206.388576,377.273895 206.802701,348.958683 199.987018,315.912015 C193.88578,286.318031 186.425199,259.275197 189.874137,259.393483 C195.485379,259.585299 199.171412,255.768165 202.155645,256.011131"/>
    <path fill="#FFE5B0" d="M177.225373 219.872699C180.53311 217.463869 190.032002 215.128812 206.673548 219.272897 208.329024 219.680249 209.916994 220.331371 211.498536 221.283998 210.119509 226.855419 212 234.415489 212 234.415489 210.103436 237.966188 208.669762 242.123103 207.670048 245.786065 206.374598 250.513915 206.991785 255.344405 208.345096 260.049802 210.469891 267.462327 210.955283 273.524496 210.955283 273.524496 210.955283 273.524496 195.133438 276.44011 191.227802 275.942948 189.958068 275.782573 187.566469 264.501808 187.566469 264.501808 187.566469 264.501808 184.451604 275.237299 183.104722 274.993529 179.719837 274.374482 167 269.71399 167 269.71399 167 269.71399 172.030716 254.718943 172.062862 252.002193 172.120723 246.607184 172.660761 242.697245 174.345168 235.098686 176.315665 226.22675 177.225373 219.872699 177.225373 219.872699M146.581028 177.737771C149.257102 181.093415 162 201.07636 162 201.07636 162 201.07636 159.796365 209.239086 155.871242 206.400435 151.544869 203.272782 146.574557 198.4079 140.714377 193.228326 134.957745 188.141875 136.090303 174 136.090303 174 136.090303 174 143.908191 174.385337 146.581028 177.737771"/>
    <path fill="#FFE5B0" d="M157.089823,197 C157.089823,197 173.201358,208.608064 177.298742,211.279085 C179.083648,212.44273 181.519333,213.918572 188.56418,216.453993 C190.718703,217.226602 184.122451,219.178624 185.310282,225 C180.802211,223.502084 156.511703,206.816871 152.992438,203.66967 C149.302581,200.3711 157.089823,197 157.089823,197"/>
    <path fill="#F9CB9D" d="M211.532323,221 C215.525684,224.884142 216.159201,226.880694 217.807605,230.280921 C221.164297,237.196745 224.524142,257.630153 224.959093,261.187412 C225.781719,267.914157 213.924557,253.75242 213.924557,253.75242 C213.924557,253.75242 214.154641,248.272319 210.602535,239.625936 C209.754694,237.562085 207,231.892904 207,231.892904 C207,231.892904 209.745239,226.435235 211.532323,221"/>
    <path fill="#F9CB9D" d="M226.942808,283.589408 C230.490972,277.906755 224.388769,247.512932 219.267905,252.563828 C216.579611,255.210889 214,253.549369 214,253.549369 L216.851318,283.390405 C216.851318,283.390405 220.674385,293.628025 226.942808,283.589408"/>
    <path fill="#FF97A6" d="M221.307736 287.003615C221.576905 286.911493 224.507848 288.600398 225.18243 289.751924 225.700829 290.642438 226.269073 293.442949 225.860336 293.750023 225.451599 294.057096 225.252215 293.461374 225.252215 293.461374 225.252215 293.461374 225.205692 294.087804 224.747109 293.98954 224.461325 293.931196 224.079173 292.619992 223.504283 291.784751 223.152038 291.271938 222.477455 290.881955 222.344533 290.504254 222.344533 290.504254 222.420963 291.757115 222.00558 291.723337 221.59352 291.692629 220.958815 289.570751 221.021953 288.870623 221.068476 288.4008 220.822569 287.175576 221.307736 287.003615M132.247189 173.533218C131.56627 171.877869 132.369327 169.595196 133.712845 170.061584 133.871624 170.117419 134.45178 170.587092 134.931171 170.991076 135.312853 171.309664 135.630412 171.585556 135.630412 171.585556 135.630412 171.585556 134.772392 170.330907 135.245677 170.192961 135.725068 170.055015 136.176979 170.692193 136.46095 171.243976 136.747974 171.792474 138.63806 174.57438 137.776987 176.650134 137.944927 176.581161 137.340343 177.031127 137.102174 176.998283 135.847206 176.811071 132.986124 175.323228 132.247189 173.533218"/>
    <path fill="#FF97A6" d="M131.237534,169.318216 C131.237534,169.318216 130.256298,169.246216 132.282487,170.959216 L135,171.682216 C135,171.682216 131.963904,169.435216 131.237534,169.318216"/>
    <path fill="#F9CB9D" d="M196.626233,217 C196.626233,217 198.801737,217.28079 199.960532,217.471211 C202.076043,217.826232 204.343113,218.297443 206.768057,218.917117 C208.394159,219.330234 209.953953,219.982183 211.507433,220.943969 C210.152875,226.546858 212,234.154006 212,234.154006 C210.13393,237.726815 208.728851,241.909617 207.743718,245.595388 C206.474411,250.35268 207.080647,255.213251 208.406789,259.951177 C210.49704,267.406634 210.973819,273.506553 210.973819,273.506553 C210.973819,273.506553 195.432706,276.440324 191.596369,275.943293 C190.349165,275.778692 188,264.427679 188,264.427679 C188,264.427679 188.543086,257.914643 189.275622,246.502308 C190.080779,233.934538 196.626233,217 196.626233,217"/>
    <path fill="#FF97A6" d="M198.999588,212.764788 C198.999588,212.764788 199.040493,219.01109 198.307341,219.548681 C197.577334,220.083073 195.207961,220.476667 194.235668,218.703895 C193.269669,216.931123 195.58555,212 195.58555,212 L198.999588,212.764788 Z"/>
    <path fill="#C95D77" d="M198.888172,216.973805 C197.600717,217.195879 195.943369,215.981003 195,214.276259 C195.166308,213.156091 195.117563,213.812516 195.42724,212.917688 L199,212 C198.982796,212.911157 198.971326,215.928751 198.888172,216.973805"/>
    <path fill="#FF97A6" d="M193.253221,209.585677 C193.233373,208.833742 194.32171,206.864982 194.880765,205.907122 C195.112326,205.507754 195.48944,205.189507 195.95587,205.086545 C198.466654,204.524934 202.198096,206.849381 202.724071,207.663718 C203.362518,208.649658 202.750535,209.913284 202.320493,210.864903 C201.890451,211.816523 198.929776,216.225172 195.773929,214.671381 C192.343516,212.980306 192.929035,211.635559 193.253221,209.585677"/>
    <path fill="#FF5E4D" d="M194,220.688747 L194.774194,222.707747 L195.921534,222.860747 L198,221.114747 C198,221.114747 195.925022,219.239747 194,220.688747"/>
    <path fill="#FF5E4D" d="M196.170454,221.877318 C196.170454,221.877318 197.003194,236.852883 196.999991,241.844739 C196.999991,246.83343 195.882198,247.997564 195.882198,247.997564 L191.362986,250 L188,246.260854 C188,246.260854 193.637005,223.84812 195.4338,221.877318 C197.230596,219.903352 196.170454,221.877318 196.170454,221.877318"/>
    <path fill="#F9CB9D" d="M194.341505,216 C194.341505,216 193.921505,217.346391 195.880505,220.076105 L194.041505,222 C194.041505,222 191.779505,219.918299 194.341505,216"/>
    <path fill="#FFE5B0" d="M199.500036,217 C199.500036,217 199.53018,217.731377 196,220.196388 L197.369871,223 C197.369871,223 201.375654,221.513544 199.500036,217"/>
  </g>
</svg>
