<svg xmlns="http://www.w3.org/2000/svg" viewBox="0 0 236 352">
  <g fill="none" fill-rule="evenodd">
    <path fill="#D5EAF5" d="M193.63484,332.29664 C194.969819,331.80384 195.683729,331.28864 195.683729,330.75744 C195.683729,327.35584 166.701556,324.60064 130.954847,324.60064 C95.2081389,324.60064 66.2291667,327.35584 66.2291667,330.75744 C66.2291667,330.77984 66.2451736,330.80224 66.248375,330.83104 C27.4827569,332.65184 0.811986111,336.45024 0.811986111,340.84064 C0.811986111,347.00384 53.3499792,351.99904 118.158896,351.99904 C182.964611,351.99904 235.505806,347.00384 235.505806,340.84064 C235.505806,337.41024 219.226743,334.34464 193.63484,332.29664"/>
    <path fill="#AACBE8" d="M89.869 332C89.284 332 88.807 331.4958 88.804 330.863141L88.066 169.143282C88.063 168.513835 88.54 168.003211 89.128 168L89.134 168C89.722 168 90.196 168.5042 90.199 169.133648L90.934 330.856718C90.937 331.486165 90.463 331.996789 89.875 332L89.869 332zM173.869 331C173.281 331 172.804 330.492588 172.801 329.863141L172.066 168.146494C172.063 167.513835 172.54 167.003211 173.128 167L173.131 167C173.719 167 174.196 167.507412 174.199 168.133648L174.934 329.853506C174.937 330.486165 174.463 330.996789 173.872 331L173.869 331z"/>
    <path fill="#AACBE8" d="M172.859069 206.5665L88.1441448 206.5665C87.5110085 206.5665 87 206.0895 87 205.5015 87 204.9105 87.5110085 204.4335 88.1441448 204.4335L172.859069 204.4335C173.488992 204.4335 174 204.9105 174 205.5015 174 206.0895 173.488992 206.5665 172.859069 206.5665M173.86423 249.5665L89.1389696 249.5665C88.5086971 249.5665 88 249.0925 88 248.5015 88 247.9105 88.5086971 247.4335 89.1389696 247.4335L173.86423 247.4335C174.491303 247.4335 175 247.9105 175 248.5015 175 249.0925 174.491303 249.5665 173.86423 249.5665"/>
    <polygon fill="#295A6E" points="86 170 177 170 177 166 86 166"/>
    <path fill="#295A6E" d="M86.8565451,170.058074 L177.143455,170.058074 L177.143455,166.945467 L86.8565451,166.945467 L86.8565451,170.058074 Z M86,171 L178,171 L178,166 L86,166 L86,171 Z"/>
    <path fill="#3B2B5B" d="M160.986347,164.679727 C161.237409,162.600721 157.96725,163.355221 156.006426,163 C156.610246,163.26435 157.217243,163.669137 156.346472,163.95827 C155.068917,164.385086 152.154694,164.250157 151.220363,163.492903 C150.962946,164.13175 150.97248,164.985382 151.042396,165.569156 C151.128202,166.320902 160.811557,166.128147 160.986347,164.679727"/>
    <path fill="#FF97A6" d="M156.530696,163.502817 C157.470195,163.187817 156.815289,162.746817 156.163812,162.455817 C154.854,162.215817 153.756776,162.062817 153.509901,161.984817 C152.865281,161.795817 152.638979,161.306817 152.638979,161.306817 L151.980644,161.237817 C151.980644,161.237817 151.078863,162.797817 151,162.995817 C152.008075,163.817817 155.152308,163.964817 156.530696,163.502817"/>
    <path fill="#3B2B5B" d="M135.9794,164.80777 C136.290501,162.713097 133.004902,163.401108 131.055764,163 C131.649394,163.281333 132.246198,163.701939 131.366864,163.974915 C130.081195,164.378808 127.176535,164.175468 126.262281,163.392751 C125.989275,164.030624 125.970228,164.89412 126.024194,165.487425 C126.090859,166.250644 135.763535,166.267357 135.9794,164.80777"/>
    <path fill="#FF97A6" d="M131.519051,163.572941 C132.469783,163.275941 131.824521,162.825941 131.182691,162.519941 C129.878437,162.252941 128.786983,162.069941 128.539862,161.991941 C127.898032,161.781941 127.685233,161.289941 127.685233,161.289941 L127.029674,161.208941 C127.029674,161.208941 126.085806,162.747941 126,162.945941 C126.985054,163.788941 130.125559,164.007941 131.519051,163.572941"/>
    <path fill="#30193B" d="M182,27 C182.96232,30.8611369 185.244579,35.1190323 189.399462,40.5349461 C194.357361,46.9927541 195.817097,53.8376434 205.541082,53.9989274 C212.729224,54.1182775 206.483896,44.2380248 206.483896,44.2380248 C206.483896,44.2380248 208.606852,46.883081 201.519494,39.9672268 C199.825681,38.3124538 192.748076,30.3159973 192.748076,30.3159973 C192.748076,30.3159973 188.073021,27.3515989 182,27"/>
    <path fill="#D3E7F2" d="M161.065183,23.0264047 C154.82035,27.0357217 150.992051,43.4847749 150,44.7839724 C152.918919,49.1571925 172.317965,60.6871711 175.00159,61 C175.030207,60.9201967 178.696343,54.4593227 182.737679,48.1389025 C187.065183,41.3683918 192,30.1193207 192,30.1193207 C171.786963,13.5170452 166.629571,19.4512175 161.065183,23.0264047"/>
    <path fill="#7F65C1" d="M149.600081,45 C149.523882,45.2818955 137.817843,51.736661 133.820581,58.6366932 C127.594505,69.3935679 127.486557,148.625414 127.00079,161.224219 C126.953166,162.457512 129.070857,161.941772 130.239238,161.563775 C130.705956,161.413218 131.06155,161.028815 131.182198,160.548311 L151.730472,79.9454278 L158.683611,106.155299 L150.28587,160.81419 C150.203321,161.35876 150.61924,161.845671 151.162156,161.845671 L154.892722,161.845671 C155.134018,161.845671 155.346739,161.707926 155.438813,161.486895 C157.077087,157.594815 171.431034,123.158721 172.901035,106.6326 C174.17419,92.3199981 175.879138,63.5986941 174.469461,60.1743048 C170.796044,58.6847436 155.600735,45.5637909 149.600081,45"/>
    <path fill="#FF97A6" d="M224.865499 59.9163331C225.580388 59.7941328 227.516418 60.2135773 227.516418 60.2135773 227.516418 60.2135773 230.317679 59.1864335 231.563365 59.0345087 232.072685 58.9684545 233.029962 58.9123083 232.99928 59.7214731 232.980871 60.1805502 232.428596 60.781644 232.290527 61.1086126 232.275186 61.1779696 231.529615 63.879589 230.695066 63.9753677 230.575407 63.9918813 230.446543 63.9819731 230.31461 63.972065 229.639608 64.0777518 228.648581 63.8729836 228.050284 63.5361068 227.952101 63.5394096 224.929931 62.3041948 224.135269 62.0003452 223.650494 61.818696 224.604702 60.239999 224.865499 59.9163331M230.84125 27.4964783C231.171287 26.637483 232.049473 25.1141567 231.997815 24.2860605 231.920328 23.1304337 231.199986 21.7708727 230.657577 20.8068204 230.439466 20.4144016 229.986024 19.7006321 229.503883 20.1363096 229.231243 20.3835025 229.145147 21.0818225 229.013132 21.3475548 228.981563 21.3939035 227.698723 23.3034687 228.066069 23.9461702 228.117727 24.0388676 228.192344 24.1253851 228.266961 24.2149925 228.54534 24.7464573 228.780671 25.1512357 228.955734 26.220345 229.004522 26.2914129 227.939794 27.8054695 228.0345 28.3276645 228.109117 28.7849714 228.726143 32.5052246 229.429266 30.3144774 229.693295 29.9622276 230.778113 27.8456383 230.84125 27.4964783"/>
    <path fill="#FF97A6" d="M230.723624,21.9139127 C230.723624,21.9139127 231.719624,20.0581976 232.166624,20.0006065 C232.616624,19.9430153 231.527624,24.0063915 231.677624,23.9999925 C231.806624,23.9967929 230.723624,21.9139127 230.723624,21.9139127"/>
    <path fill="#3B2B5B" d="M178,20.092881 C178,20.092881 171.742222,43.1422134 168.688785,49.3419091 C165.632138,55.5416049 149.770966,66 149.770966,66 C149.770966,66 138.488342,64.732606 136,54.9637754 C136,54.9637754 139.541472,50.705076 148.441709,44.428762 L150.429172,42.5069201 C150.429172,42.5069201 154.086232,25.146495 163.818057,19.7034048 C171.055118,15.6554057 178,20.092881 178,20.092881"/>
    <path fill="#AACBE8" d="M180.521369,22.9868069 C180.521369,22.9868069 176.652298,46.6574816 168,54.9485638 C168,54.9485638 172.619065,58.8608884 175.957024,60 C175.957024,60 186.041715,25.242819 185.99987,24.8525384 L181.844321,22 L180.521369,22.9868069 Z"/>
    <path fill="#FF97A6" d="M181.231324,17 C181.231324,17 177.798044,21.3169479 178.00937,22.1055606 C178.220696,22.8941733 179.638724,24.5185271 181.274202,23.8367384 C182.909681,23.1518078 184,18.4107057 184,18.4107057 L181.231324,17 Z"/>
    <path fill="#C95D77" d="M179,20.0461095 C179.893086,20.9221902 181.291933,21.8126801 182.866837,22 C183.356594,21.204611 183.743918,20.2334294 184,19.4956772 L180.651729,18 C180.15557,18.5792507 179.518566,19.3429395 179,20.0461095"/>
    <path fill="#30193B" d="M183.484498,23 L175,59.8371883 L175.438255,73 C175.438255,73 179.915397,72.7326203 181.479243,71.556794 L179.03258,59.4055151 L193,29.7456994 C193,29.7456994 184.922228,23.2995941 183.484498,23"/>
    <path fill="#3B2B5B" d="M192.923509,60.2006568 C201.004011,64.3200832 197.015862,51.1766973 197.015862,51.1766973 C197.015862,51.1766973 190.877333,43.7165941 184.628286,36.0880267 C180.359103,30.8719938 176.43095,24.8009255 172.831195,24.0476045 C171.261829,23.7202118 167.065273,25.1314968 167.002119,26.7462102 C166.790555,32.3214216 182.465275,54.8701954 192.923509,60.2006568"/>
    <path fill="#6C56B2" d="M151.471284,80.1262802 L158.501871,106.330866 L150.010591,160.968853 C149.927123,161.513247 150.347674,162 150.896637,162 L154.671966,162 C154.91274,162 155.127831,161.8623 155.22093,161.64134 C156.880662,157.750521 171.391281,123.325579 172.877656,106.80481 C174.164992,92.496843 175.88893,63.7848403 174.463551,60.3647624 C173.140902,59.8331772 167.789309,56 167.789309,56 L151.471284,80.1262802 Z"/>
    <path fill="#30193B" d="M204.838213,53.9998222 C211.92136,53.9611589 231.665112,44.7399786 230.982746,34.0109323 C230.662387,28.9363834 227.061547,27 227.061547,27 L202.864799,42.8776997 C202.864799,42.8776997 195.256263,54.0513731 204.838213,53.9998222"/>
    <path fill="#3B2B5B" d="M188.720587,56.228482 C193.426438,64.288435 214.031477,72.3940719 221.764822,67.531995 C225.082802,65.4501124 227,59.6645672 227,59.6645672 L195.511471,49.9371503 C195.511471,49.9371503 182.404162,45.417703 188.720587,56.228482"/>
    <path fill="#FFCA48" d="M194.464139,2.02864549 C194.136582,2.07443294 193.581021,2.0188339 193.275943,1.73756817 C193.022248,1.51517201 192.990134,1.05729757 192.69148,0.798925562 C191.085811,-0.555074575 188.860354,0.112113899 187.161556,0.622316849 C183.776806,1.63291115 183.596971,4.99174724 184.133264,4.98193565 C184.133264,4.98193565 182.071585,3.1013799 180.144782,4.3376409 C177.800505,5.83554443 178.359278,8.2034094 178.712525,8.00390697 C178.712525,8.00390697 177.119702,7.89597942 177.000882,10.1951632 C176.975192,10.6726609 177.517908,11.5851392 177.665629,12.0397431 C177.511485,12.6546031 176.988037,13.1876998 177.087588,13.9006757 C177.485794,16.7002508 179.332314,16.922647 179.746576,17.0927147 C180.465916,17.4263089 181.252694,17.6552461 181.9624,17.8089611 C182.074796,17.9822993 182.325281,18.0869563 182.527595,17.9038065 C185.607268,15.1238545 188.744745,15.2285116 191.519342,12.1084243 C192.816722,10.6497671 196.26891,8.09221132 196.911178,4.96231246 C197.344709,2.84954896 196.137246,1.80951987 194.464139,2.02864549"/>
    <path fill="#FF97A6" d="M187.058627,12.759967 C185.354514,11.0629361 181.138275,12.6396551 180.488221,13.3330315 C179.771339,14.0928961 180.011313,15.3498388 180.16927,16.2901712 C180.327227,17.2273375 181.754915,21.0963147 184.722686,20.9981655 C190.311935,20.8113655 187.058627,12.759967 187.058627,12.759967"/>
    <path fill="#FFE19F" d="M194,2.15378712 C193.705669,2.19568915 193.398256,2.17634975 193.110465,2.08287599 C192.806323,2.00874162 192.574128,1.74121325 192.469477,1.46723841 C192.351744,1.18359388 192.181686,0.990199876 191.916788,0.845154374 C191.674782,0.687215939 191.406613,0.567956305 191.135174,0.480929004 C190.016715,0.152159201 188.819767,0.342329969 187.691497,0.654983606 C187.125727,0.809698807 186.546875,0.983753409 186.023619,1.19326358 C185.506904,1.43500608 185.029433,1.74765972 184.62718,2.13444772 C184.228198,2.52445896 183.914244,2.99827426 183.718023,3.51076837 C183.613372,3.76862704 183.561047,4.03615541 183.521802,4.30046054 C183.518532,4.43261311 183.508721,4.56154244 183.528343,4.67757885 C183.531613,4.73559705 183.554506,4.77105261 183.564317,4.81617788 C183.570858,4.81617788 183.570858,4.81617788 183.567587,4.82584758 C183.564317,4.81617788 183.508721,4.77105261 183.476017,4.79683848 L183.299419,5.26420732 C182.772892,4.83874051 182.118823,4.50030101 181.458212,4.36170198 C180.791061,4.22632617 180.107558,4.32624641 179.538517,4.68402531 C178.949855,5.04825068 178.446221,5.54785185 178.15516,6.15381973 C178.007994,6.45358043 177.919695,6.78557347 177.896802,7.11112004 C177.886991,7.27550494 177.893532,7.43988984 177.922965,7.58815857 C177.936047,7.66551617 177.958939,7.72998084 177.981831,7.78799904 C177.991642,7.80089198 178.011265,7.82990108 178.001453,7.82345461 C177.994913,7.81056168 177.975291,7.80411521 177.958939,7.80733844 C177.926235,7.78799904 177.860828,7.79444551 177.831395,7.82345461 L177.939317,8.29404668 C177.618823,8.28760021 177.242733,8.44231542 176.997456,8.69372762 C176.755451,8.95480952 176.591933,9.30614196 176.510174,9.68970673 C176.461119,9.8702078 176.448038,10.0958341 176.431686,10.260219 C176.438227,10.4149342 176.500363,10.6115515 176.572311,10.7952758 C176.716206,11.1756173 176.915698,11.5333962 177.066134,11.9620863 C177.079215,11.9943186 177.079215,12.0329974 177.069404,12.0652297 C176.899346,12.6325188 176.526526,13.0386462 176.457849,13.518908 C176.418605,13.9701606 176.55923,14.5342265 176.726017,15.0080418 C176.905887,15.4915268 177.190407,15.9460027 177.59593,16.2844422 C177.988372,16.6422211 178.501817,16.8356151 179.011991,17 C178.495276,16.8678474 177.962209,16.7066858 177.527253,16.3682463 C177.085756,16.0426997 176.75218,15.5850006 176.529797,15.0853994 C176.323765,14.5729053 176.127544,14.0894203 176.153706,13.4770059 C176.232195,12.883931 176.611555,12.4359016 176.716206,11.9749792 L176.719477,12.0748994 C176.578852,11.7171205 176.356468,11.3432254 176.18968,10.9467677 C176.107922,10.743704 176.019622,10.5406403 176,10.2763352 C176.006541,10.0216998 176.013081,9.82830576 176.062137,9.60267943 C176.137355,9.16431969 176.307413,8.71306702 176.637718,8.35528811 C176.987645,8.00717891 177.445494,7.78799904 177.975291,7.79122228 C178.112645,7.79122228 178.227108,7.90081221 178.227108,8.03618801 C178.227108,8.13610825 178.168241,8.21991231 178.083212,8.26181435 C178.007994,8.29726991 177.896802,8.31016285 177.818314,8.29404668 C177.762718,8.26826081 177.707122,8.23602848 177.658067,8.19734968 C177.586119,8.12966178 177.559956,8.07486681 177.520712,8.01362538 C177.471657,7.90403544 177.435683,7.79444551 177.416061,7.69130204 C177.370276,7.48501511 177.363735,7.2819514 177.373547,7.08211094 C177.396439,6.68243 177.49782,6.28919553 177.667878,5.93141662 C178.001453,5.20941235 178.583576,4.63245358 179.234375,4.21343324 C179.911337,3.76862704 180.797602,3.62680477 181.575945,3.81052907 C182.360828,3.99103014 183.047602,4.35847874 183.662427,4.86452638 L183.675509,4.87741931 C183.786701,4.96766985 183.803052,5.12883152 183.711483,5.24164468 C183.652616,5.30933258 183.567587,5.33834169 183.485828,5.33189522 C183.384448,5.32222552 183.247093,5.27065378 183.194767,5.21263558 C183.148983,5.16106385 183.106468,5.09982242 183.070494,5.03858098 C183.037791,4.94188398 183.001817,4.83874051 182.995276,4.75171321 C182.972384,4.57443538 182.982195,4.41005048 182.992006,4.24566557 C183.037791,3.9297887 183.109738,3.6203583 183.234012,3.3302673 C183.462936,2.74363883 183.822674,2.21825179 184.277253,1.78311528 C184.728561,1.34797878 185.271439,1.01920898 185.84702,0.780689707 C186.435683,0.567956305 187.007994,0.41968757 187.596657,0.281088535 C188.75436,0.0167833994 190.036337,-0.183057069 191.210392,0.264972368 C191.494913,0.377785536 191.769622,0.519607804 192.014898,0.703332106 C192.273256,0.858047308 192.489099,1.14169184 192.574128,1.41888991 C192.718023,2.02163455 193.430959,2.19568915 194,2.15378712"/>
    <path fill="#3B2B5B" d="M197.936232,337.90013 C198.552487,335.135944 194.555071,335.728269 192.284485,335 C192.956763,335.433725 193.619154,336.055181 192.538237,336.333542 C190.959703,336.741373 187.522518,336.184651 186.527283,335.048551 C186.125235,335.870686 186.006597,337.02297 186.000006,337.819211 C185.99012,338.838788 197.50782,339.829234 197.936232,337.90013"/>
    <path fill="#FF97A6" d="M192.478912,335.884805 C193.463615,335.644172 192.860184,335.109741 192.244744,334.732002 C190.962829,334.340273 189.88506,334.060467 189.644888,333.956938 C189.023445,333.682728 188.855325,333.139903 188.855325,333.139903 L188.206862,333 C188.206862,333 187.108077,334.566916 187,334.776771 C187.909649,335.756094 191.040885,336.237361 192.478912,335.884805"/>
    <path fill="#3B2B5B" d="M149.936232,336.900299 C150.552487,334.135952 146.555071,334.728312 144.284485,334 C144.956763,334.43375 145.619154,335.055243 144.541533,335.33362 C142.959703,335.741474 139.522518,335.18472 138.527283,334.045317 C138.12853,334.870737 138.006597,336.023088 138.000006,336.816138 C137.99012,337.839012 149.50782,338.829516 149.936232,336.900299"/>
    <path fill="#FF97A6" d="M144.479655,335.884942 C145.464491,335.64453 144.857976,335.110592 144.245456,334.733201 C142.963367,334.339038 141.882448,334.062285 141.645247,333.958852 C141.020716,333.684894 140.855576,333.14257 140.855576,333.14257 L140.207025,333 C140.207025,333 139.105089,334.568268 139,334.775134 C139.909773,335.756349 143.041433,336.237173 144.479655,335.884942"/>
    <path fill="#3B2B5B" d="M151.893391,209.116751 C151.845622,209.449287 147.731083,212.237476 144.157931,220.691573 C138.594386,233.871522 137.154935,318.722642 138.435155,333.159195 C138.607125,335.103254 143.291712,333.383018 143.511451,330.978524 C144.871287,315.889688 165.287935,240.84839 165.287935,240.84839 L179.564621,271.189132 L186.656786,333.095246 L191.389143,333.315871 C191.389143,333.315871 196.691548,289.849536 195.924053,269.635164 C195.293496,253.133049 187.561221,213.778654 185.446628,210.085582 C181.019995,208.9281 158.851803,208.873743 151.893391,209.116751"/>
    <path fill="#D3E7F2" d="M191,180.116509 C189.297277,177.973997 186.883493,174.209342 180.21609,172.609685 C176.482217,171.713491 171.243316,171.938343 164.464312,172.436228 C162.701006,172.564715 158.743929,175.137657 157.570518,176.666646 C153.91636,181.414223 152.46235,207.153283 152,209.038822 C157.210204,212.385896 183.503557,213.635427 186.548688,212.697476 C186.548688,212.597899 187.881531,206.353454 189.274957,197.581038 C190.770419,188.188674 191,180.116509 191,180.116509"/>
    <path fill="#1F6864" d="M184.340753,185 C188.231818,184.325669 192.602866,182.379741 198.24747,178.664497 C204.986436,174.233177 216.134848,163.822787 216.973219,154.256916 C217.590798,147.182859 207.322354,153.836261 207.322354,153.836261 C207.322354,153.836261 203.680881,159.812121 196.775521,166.764155 C189.431776,174.156111 183,173.558846 183,173.558846 C183,173.558846 185.115126,179.046618 184.340753,185"/>
    <path fill="#FF97A6" d="M229.1627 130.825044C230.053628 130.197136 230.918059 129.416913 231.365179 128.580738 231.984523 127.40885 232.011019 125.646355 231.997771 124.378105 231.994459 123.858992 231.924907 122.889154 231.123403 123.010384 230.669659 123.088095 230.143052 123.709787 229.835036 123.886969 229.772108 123.911836 227.178814 124.97182 227.195374 125.823537 227.195374 125.944767 227.225182 126.078431 227.251678 126.208986 227.235118 126.895955 227.572941 127.868902 227.986941 128.431532 227.996877 128.531003 226.241518 131.291312 226.02955 131.857052 225.83083 132.345079 226.682014 131.406325 227.158942 131.65811 227.447085 131.813533 227.960445 131.745147 228.172413 131.689195 228.142605 131.794882 228.877869 131.126564 229.1627 130.825044M226.486805 162.859778C226.779553 161.868657 227.217168 160.852988 227.838881 160.177921 228.711092 159.242032 230.310647 158.616061 231.46957 158.195678 231.943401 158.020774 232.84881 157.750748 232.990657 158.490253 233.066108 158.910636 232.661692 159.579566 232.598313 159.907894 232.595295 159.9754 232.444394 162.586683 231.665742 162.865915 231.554075 162.905805 231.4243 162.924216 231.297543 162.942627 230.672811 163.194243 229.682897 163.234133 229.037039 163.065367 228.94348 163.086846 226.981761 165.556978 226.532075 165.934402 226.148785 166.271935 226.740319 165.213307 226.360047 164.884979 226.124641 164.685528 226.028064 164.216049 226.012974 164.013529 225.925451 164.074899 226.302705 163.206517 226.486805 162.859778"/>
    <path fill="#1F6864" d="M214.811764,161.696695 C221.191794,158.609247 237.697839,139.016934 229.991173,131.594875 C228.494702,130.152142 226.674583,129.440394 225.277449,129.090932 C224.027719,128.77353 222.72031,129.305738 222.024947,130.395803 L204,158.682987 C204,158.682987 206.185425,165.871003 214.811764,161.696695"/>
    <path fill="#357A5F" d="M174.49411 174.259707L167.523712 212.214081C167.523712 212.214081 158.484927 232.694915 156.080348 232.984814 153.675769 233.268341 143.247387 229.496477 142.209992 228.79881 141.169395 228.101143 143.971002 216.161157 151.178336 209.069799 151.178336 209.069799 154.501843 178.483939 158.097505 175.4639 161.850057 172.310062 169.870658 171.937335 173.344651 172.007421 174.330816 172.026535 175 172.11892 175 172.11892L174.49411 174.259707zM215.28115 160.59674C211.337237 162.616478 196.315989 172.185657 196.315989 172.185657 196.315989 172.185657 192.655376 181.932395 197.544682 180.927282 202.940108 179.820707 206.371535 178.97413 214.081106 176.586591 221.656984 174.243442 230 168.777152 230 163.662809 230 162.213798 219.225064 158.577003 215.28115 160.59674"/>
    <polygon fill="#AACBE8" points="177.288 173.947 176 212.958 186.225 214 187 178.696 178.81 172"/>
    <path fill="#FF97A6" d="M176.30962,167 C176.30962,167 173.571813,172.766981 174.057815,173.570882 C174.547056,174.377887 176.704901,175.73738 178.425346,174.505146 C180.14579,173.272911 179.99675,167.726304 179.99675,167.726304 L176.30962,167 Z"/>
    <path fill="#C95D77" d="M175,170.77666 C176.185383,171.534199 177.902555,172.170886 179.587047,171.958657 C179.851456,170.921094 179.958408,169.712569 180,168.798806 L176.087344,168 C175.748663,168.79291 175.323827,169.839316 175,170.77666"/>
    <path fill="#1F6864" d="M180,173 L180,213.071149 L184.649271,230.93895 C184.826748,231.623845 185.479611,232.073009 186.180013,231.990184 L195,229.817633 L189.244665,210.793474 C189.244665,210.793474 193.529474,187.156625 190.864145,180.46058 C188.195648,173.761349 180,173 180,173"/>
    <path fill="#357A5F" d="M196.46388,172 C196.46388,172 185.87318,175.335566 178.579344,175.587887 C176.335822,175.661737 162.916056,173.095444 159.084565,177.83724 C159.062289,177.864934 159.046377,177.898782 159.040012,177.93263 C158.228525,182.369794 169.684811,185.769979 200.3081,179.781961 C205.705284,178.729596 196.46388,172 196.46388,172"/>
    <path fill="#FF97A6" d="M230.874772 127.003725C230.874772 127.003725 232.329772 124.729497 232.623772 125.026801 232.914772 125.324106 231.864772 128.324738 230.784772 128.910153 229.704772 129.498632 230.874772 127.003725 230.874772 127.003725M229.309699 158.620251C229.309699 158.620251 230.656699 156.571251 231.424699 156.397251 232.192699 156.220251 231.052699 157.432251 231.034699 157.939251 231.016699 158.449251 229.309699 158.620251 229.309699 158.620251"/>
    <path fill="#3B2B5B" d="M185.636143,146.101715 C182.459526,145.486444 178.737332,147.783455 176.477543,149.736546 C173.940124,151.926279 171.680335,155.106755 171.380106,158.486012 C170.463277,158.205196 169.478655,158.429218 168.778121,159.161232 C167.64177,160.338135 167.916173,162.130308 168.548914,163.477594 C169.798254,166.18163 173.355807,169.557731 176.674468,168.917219 C178.098134,169.355796 179.518573,167.954872 180.403119,166.98937 C181.629861,165.642085 183.134235,163.906706 183.318246,162.054583 C185.855666,158.621687 189,153.49443 189,149.951102 C189,148.029563 188.079943,146.571845 185.636143,146.101715"/>
    <path fill="#FF97A6" d="M182.87703,165.325176 C182.983795,164.212608 181.217326,160.535869 181.217326,160.535869 C178.836152,158.863726 174.025274,161.55298 173.365275,162.504258 C172.637335,163.541118 173.161452,164.979556 173.52704,166.059207 C173.889392,167.135567 176.574684,172.207953 179.910268,170.733307 C183.546735,169.123705 183.048501,167.602977 182.87703,165.325176"/>
    <path fill="#7F65C1" d="M185,146.195625 C183.270404,146.012496 181.62103,146.597224 180.148146,147.38757 C178.659217,148.17149 177.308271,149.212434 176.095307,150.372251 C174.875926,151.512791 173.81699,152.826821 172.969841,154.250087 C172.141945,155.676565 171.535463,157.241193 171.381436,158.8508 L171.381436,158.87329 C171.352556,159.172079 171.089426,159.387336 170.790999,159.361634 C170.749283,159.358421 170.704358,159.348783 170.665852,159.335931 C169.732062,159.01144 168.653873,159.486932 168.207836,160.421854 C167.768217,161.340712 167.899781,162.574422 168.329774,163.644281 C168.756557,164.743055 169.462515,165.742232 170.235859,166.670728 C171.022039,167.592799 171.955829,168.395996 173.037227,169 C171.862771,168.591976 170.81667,167.849822 169.892507,167.001645 C168.965136,166.143831 168.191791,165.118951 167.620607,163.955922 C167.084721,162.80253 166.70928,161.376052 167.299717,160.000979 C167.607772,159.335931 168.121195,158.764055 168.801482,158.43635 C169.47535,158.092582 170.287202,158.057241 170.996368,158.278924 L170.280784,158.757629 C170.425184,156.932765 171.086217,155.201072 172.013589,153.681423 C172.928125,152.148923 174.118626,150.812403 175.44711,149.649373 C176.794847,148.515259 178.274149,147.548209 179.881807,146.83497 C181.479839,146.157072 183.31212,145.729771 185,146.195625"/>
    <path fill="#6C56B2" d="M78,203.674149 C78,203.674149 74.5865422,191.858315 73.1302995,188.280927 C72.495527,186.718791 72.4239595,185.302412 69.8164138,182.289042 C68.2761571,180.50827 66.2629327,180.749086 62,179 C62.5071956,182.735819 70.4480747,202.739402 72.3492804,205.933385 C74.3376118,209.28263 78,203.674149 78,203.674149"/>
    <path fill="#FF97A6" d="M86.5031187,183.061058 C86.3381187,182.97244 86.0861187,180.484309 86.3621187,179.512916 C86.5751187,178.75966 87.7211187,176.95321 88.0511187,177.000927 C88.3811187,177.045236 88.1771187,177.474695 88.1771187,177.474695 C88.1771187,177.474695 88.5071187,177.161122 88.6601187,177.450836 C88.7561187,177.631481 88.2701187,178.538115 88.1081187,179.29137 C88.0091187,179.748096 88.1111187,180.310481 87.9821187,180.583153 C87.9821187,180.583153 88.5701187,179.86739 88.7381187,180.102569 C88.9031187,180.33434 88.1261187,181.810176 87.7511187,182.151016 C87.6521187,182.246451 87.4241187,183.787047 87.2741187,183.957466 C87.0461187,184.223321 86.6831187,183.159901 86.5031187,183.061058"/>
    <path fill="#3B2B5B" d="M37.9626796,335.656273 C38.407769,332.858009 34.7664221,333.630302 32.6506351,333 C33.2892415,333.408657 33.9246227,333.997401 32.944136,334.326405 C31.5121094,334.807789 28.3352036,334.406058 27.3708433,333.308225 C27.038639,334.153245 26.9773586,335.313416 27.0063861,336.109952 C27.0418643,337.138522 37.6530523,337.606054 37.9626796,335.656273"/>
    <path fill="#FF97A6" d="M32.500228,334.7723 C33.4678608,334.4873 32.8408093,333.9743 32.2105748,333.6233 C30.9150929,333.2843 29.8328721,333.0503 29.5877809,332.9573 C28.9575464,332.7083 28.7665663,332.1683 28.7665663,332.1683 L28.1108678,332.0543 C28.1108678,332.0543 27.0954901,333.6803 27,333.8903 C27.9517177,334.8383 31.086975,335.1893 32.500228,334.7723"/>
    <path fill="#3B2B5B" d="M77.9626796,334.655124 C78.407769,331.85807 74.7664221,332.630029 72.6506351,332 C73.2860162,332.411942 73.9213974,332.99697 72.944136,333.325831 C71.5121094,333.807007 68.3352036,333.40545 67.3708433,332.308091 C67.038639,333.152746 66.9773586,334.312415 67.0063861,335.112068 C67.0418643,336.136731 77.6530523,336.607522 77.9626796,334.655124"/>
    <path fill="#FF97A6" d="M72.5022749,332.7723 C73.4670836,332.4873 72.8397987,331.9773 72.2125139,331.6233 C70.9165499,331.2843 69.8307421,331.0503 69.5887439,330.9573 C68.9550907,330.7083 68.7640395,330.1683 68.7640395,330.1683 L68.1112812,330.0543 C68.1112812,330.0543 67.0955256,331.6803 67,331.8903 C67.9520719,332.8383 71.088496,333.1893 72.5022749,332.7723"/>
    <path fill="#3B2B5B" d="M36.7400326,211.343653 C36.7113996,211.660061 30.5712085,218.652986 27.5901935,226.732563 C22.9421007,239.328137 25.611334,317.787604 27.4279398,331.258892 C27.6729111,333.07424 31.9869521,331.258892 32.0887583,328.9961 C32.7186847,314.792919 48.6259153,241.437521 48.6259153,241.437521 L67.5555198,330.46308 L72,330.46308 C72,330.46308 66.5629086,215.114975 64.4217953,211.743158 C60.2286493,210.851464 43.2460899,210.819504 36.7400326,211.343653"/>
    <path fill="#30193B" d="M63.6596221,212.322196 C61.8746714,211.951827 59.3705572,211.961405 53.9897893,212.053998 L57.1191221,212.006105 L48,242.060293 C48,242.060293 57.5564512,291.121448 67.2716368,331 L71.7971833,331 C71.7971833,331 77.6152804,250.444687 63.6596221,212.322196"/>
    <path fill="#FFE5B0" d="M71,183.476797 C68.8819282,180.262893 56.0698611,176.652799 47.7627448,177.026804 C45.7288778,177.11872 40.6636419,179.714565 39.5268787,180.988716 C35.789486,185.175665 36.56676,194.370471 36.2785209,198.040786 C35.9060771,202.769725 36.9877835,209.077089 36.0485773,213.904283 C34.6365295,221.178354 64.4708981,217.048456 65.3064677,214.544528 C66.9646523,209.571536 67.735449,205.818812 68.6778938,198.329213 C69.7757934,189.58765 71,183.476797 71,183.476797"/>
    <path fill="#FF97A6" d="M57.5495398,171 C57.5495398,171 55.5822605,177.025378 56.0810074,177.78897 C56.5797543,178.559232 58.6086072,179.746301 60.0371167,178.362498 C61.4625475,176.975361 60.8837549,171.420143 60.8837549,171.420143 L57.5495398,171 Z"/>
    <path fill="#C95D77" d="M56,175.161812 C57.2943448,175.768865 59.1195347,176.218317 60.8365896,175.888524 C61.0168148,174.904983 61.0200916,173.775514 60.9774929,172.929143 L57.4876773,171 C57.2091474,171.761734 56.2490385,174.265826 56,175.161812"/>
    <path fill="#FF97A6" d="M64.9009454,169.850373 C64.9941405,169.092718 64.2419229,166.937267 63.7593054,165.922936 C63.5596016,165.505453 62.8406679,164.268465 62.3746924,164.126211 C59.8550963,163.353094 55.9974847,166.35279 55.3850597,167.132092 C54.6394989,168.075295 55.1454152,169.401965 55.4948968,170.39774 C55.8477068,171.390423 58.4704833,176.0817 61.8454774,174.770493 C65.5200271,173.344864 65.040738,171.943975 64.9009454,169.850373"/>
    <path fill="#7F65C1" d="M39.1968709,182.120866 C38.4731553,184.617802 39.863451,187.240067 41.4346756,190.35722 C44.631086,196.704001 52.5697379,204.185169 54.9345103,206.479651 C59.3974229,210.81153 64,204.509739 64,204.509739 C64,204.509739 55.6614,195.8267 51.309584,188.377667 C50.2716236,186.600569 46.4276782,179.620716 44.8532794,178.447767 C42.6789585,176.831346 39.8253607,179.9485 39.1968709,182.120866"/>
    <path fill="#F9CB9D" d="M70,182.651386 C69.0541387,181.13653 66.0411633,179.647568 62.0854586,178.294555 C61.8286353,178.20716 61.0675615,178 61.0675615,178 C61.0675615,178 63.2129754,188.134648 61.1239374,197.443894 C58.6841163,208.319786 56,216.978421 56,216.978421 C56,216.978421 56.2975391,217.026974 56.5888143,216.978421 C61.0706935,216.266309 64.2308725,215.217562 64.4939597,214.379212 C66.0975391,209.300559 66.842953,205.468102 67.7543624,197.819371 C68.8161074,188.892077 70,182.651386 70,182.651386"/>
    <path fill="#6C56B2" d="M79.6567682,185.258504 C77.8915657,188.719352 72,204.099452 72,204.099452 C72,204.099452 75.9093567,210.353722 78.9830763,207.023103 C82.3709695,203.344121 81.6519329,202.992501 85.3993444,196.640559 C87.3232532,193.381567 89.9014205,189.11004 88.6868316,185.61989 C87.6179934,182.549731 85.1661433,181 85.1661433,181 C85.1661433,181 81.4219707,181.7944 79.6567682,185.258504"/>
    <path fill="#7F65C1" d="M55.9836555,177.412311 C55.9836555,177.412311 56.5060347,209.298271 51.6443831,217.88234 C51.6443831,217.88234 43.3888692,235.955405 39.4790373,236.873079 C35.5660006,237.787566 25.0126592,233.460481 25.0126592,233.460481 C25.0126592,233.460481 24.169802,225.529617 36.2390044,212.105459 C36.2390044,212.105459 33.9892487,189.0298 38.0625244,182.408532 C39.7354197,179.690562 44.1035352,177.272111 47.6287934,177.055438 C51.4456867,176.819647 55.9836555,177.412311 55.9836555,177.412311"/>
    <path fill="#6C56B2" d="M62.5313155,179 C62.5313155,179 65.598603,189.007774 64.0405122,202.530412 C62.4824214,216.056245 62,217.248103 62,217.248103 C62,217.248103 66.0125728,233.643343 67.7108265,235.573322 C69.4090803,237.506497 76,232.243788 76,232.243788 C76,232.243788 69.3406286,215.187115 69.0016298,215.321319 L68.4735739,198.967619 L71.355064,183.633229 C71.355064,183.633229 70.2044237,180.981105 62.5313155,179"/>
    <path fill="#FF97A6" d="M86.5972177,201.365898 C86.3932177,201.467898 86.4502177,201.422898 86.3182177,201.602898 C86.3032177,201.623898 86.3332177,201.650898 86.3512177,201.638898 C86.4532177,201.575898 86.5522177,201.521898 86.6572177,201.464898 C86.7232177,201.428898 86.6632177,201.329898 86.5972177,201.365898"/>
    <path fill="#FF97A6" d="M89.5535453,199.74772 C89.571415,199.728156 90.1462236,199.431435 89.9645484,199.111889 C89.887113,198.974941 89.1544553,199.16406 89.0472371,199.21623 C89.3361306,199.014069 89.5058927,198.720608 89.3420872,198.590181 C89.1455205,198.433669 87.1024182,199.278183 87.0279611,199.340136 C87.2007015,199.062979 87.7189228,198.332588 87.5849001,198.074995 C87.5670304,198.039128 87.5193778,198 87.4747036,198 C87.2751586,198.029346 86.679502,198.73039 86.5276095,198.978201 C86.2744554,199.395567 85.9766271,199.835758 85.7770821,200.302034 C85.6341246,200.422678 85.3392745,201.420444 85.2677957,201.4987 C84.91338,201.518264 84.1866789,201.93889 84.0526562,202.333432 C83.9543728,202.610589 83.9990471,202.382342 84.1420047,202.646456 C84.1688092,202.695366 84.2134835,202.71493 84.2492229,202.757319 C84.1956138,202.747537 84.1509395,202.747537 84.1062653,202.747537 C84.0526562,202.734494 84.040743,202.81275 84.0794607,202.845357 C84.9908154,203.10295 86.417413,203.089907 87.5283127,202.408427 C87.8112496,202.268218 88.0882299,202.114967 88.3532971,201.945412 C88.4337108,201.883459 88.5230593,201.83781 88.6064512,201.785639 C88.6392123,201.766075 88.6838866,201.736729 88.740474,201.697601 C88.8030179,201.658473 88.8744967,201.616084 88.9400189,201.570435 C89.1365856,201.443268 89.4999362,200.954168 89.6160892,200.774831 C89.6965029,200.52702 89.4820665,200.507456 89.4105877,200.507456 C89.4195225,200.491153 89.9109393,200.112915 89.8900913,199.94336 C89.8573302,199.620553 89.6071544,199.79989 89.5535453,199.74772"/>
    <path fill="#7F65C1" d="M82.0403045,206.827614 C77.8169745,210.327091 51.8357224,209.538476 55.3206174,204.896125 C57.1505111,202.45943 55.4274961,200.669645 55.4274961,200.669645 L80.5083758,199 C80.5083758,199 89.4991456,200.64192 82.0403045,206.827614"/>
    <path fill="#80540A" d="M65.5395759,171.650021 C64.9861739,169.994431 63.9497447,167.88644 64.0073241,168.3613 C64.2152497,170.180524 64.5063455,172.689578 61.8768863,173.684215 C59.5065343,174.579389 57.6352038,174.284206 56.2820879,172.317391 C55.5911351,170.786932 55.3576186,169.907801 55.0217388,168.265044 C54.973756,167.729223 55.3416244,166.378441 56.4228375,166.218016 C58.869962,165.849037 60.7956731,165.43514 62.8269464,163.968851 C64.0425115,163.099346 64.6662883,161.228785 64.7526574,159.788165 C65.0981338,158.132574 64.4999478,155.921912 63.0700594,154.29199 C62.6478105,153.810713 61.8896817,153.942262 62.1136016,154.555087 C63.4667175,158.097281 57.7983454,157.288737 56.4196387,156.855588 C55.6263225,156.608533 54.9193754,156.133674 54.0524856,156.197844 C53.0000621,156.255597 52.1043825,156.929384 51.4230263,157.686592 C49.8747802,159.415978 49.4269404,161.966742 50.9016128,163.84372 C50.2202566,164.154945 49.8843768,164.8544 50.1818703,166.195556 C50.6904884,168.508891 52.3922795,170.796558 54.3115929,172.192259 C54.3499791,172.962301 54.3499791,174.030734 54.5483082,174.903449 C54.6218819,175.577235 54.7978189,176.17081 55.1177045,176.494869 C56.147736,177.528009 59.2090407,177.9772 60.5749521,177.999659 C61.8896817,178.012493 64.5223398,177.665974 65.3284514,176.395405 C66.134563,175.140878 66.2273298,173.546249 65.5395759,171.650021"/>
    <path fill="#C97B14" d="M54.83377,173 C54.2190997,172.593224 53.6532127,172.1116 53.119848,171.594181 C52.5897355,171.076761 52.0791363,170.530054 51.6465905,169.915008 C50.7880033,168.694678 50.1278019,167.246554 50.0822707,165.665008 C50.0790185,165.642228 50.0822707,165.616194 50.0887752,165.596669 C50.1570719,165.281011 50.2578908,165.01742 50.4400154,164.744066 C50.6156355,164.480475 50.9213445,164.223392 51.3018547,164.155054 L51.0481813,164.750574 C50.5701043,163.995597 50.2448819,163.211332 50.085523,162.342458 C49.9326684,161.483346 49.9684429,160.546133 50.3261875,159.706547 C50.6741755,158.86696 51.3311248,158.196593 51.9945785,157.685681 C52.6612844,157.171516 53.4158004,156.686639 54.3166664,156.51742 C55.2240369,156.318913 56.1509208,156.598775 56.8859234,156.937213 C57.6274305,157.288668 58.3364153,157.509954 59.1429669,157.60758 C59.9235006,157.701953 60.7268,157.724732 61.4975771,157.558767 C62.2423364,157.415582 63.0456357,156.885145 62.9708345,156 C63.0553924,156.397014 62.9578256,156.859112 62.6553688,157.178025 C62.3659209,157.493683 61.975654,157.701953 61.5788827,157.835375 C60.7755833,158.108729 59.9235006,158.164051 59.0941835,158.105475 C58.2713708,158.069678 57.3965226,157.8549 56.6452588,157.549005 C55.8907428,157.275651 55.1720013,157.099923 54.4662687,157.25938 C53.7572839,157.409074 53.1003346,157.835375 52.4986732,158.320253 C51.8937595,158.814893 51.3864126,159.3616 51.1197302,160.044985 C50.5440865,161.379211 50.9083356,163.042113 51.6856172,164.317764 L51.6953738,164.334035 C51.8059495,164.516271 51.7474094,164.753828 51.5685371,164.864472 C51.5262582,164.890505 51.4774748,164.906776 51.4319437,164.913285 C51.2986025,164.936064 51.1717658,165.020674 51.0579379,165.176876 C50.9473623,165.329824 50.8530478,165.55111 50.8107689,165.7366 L50.8172734,165.668262 C50.8237778,166.3549 50.9148401,167.048047 51.1294869,167.721669 C51.3571425,168.392037 51.6661038,169.039625 52.0368574,169.657925 C52.7946256,170.884763 53.7507794,172.004211 54.83377,173"/>
    <path fill="#30193B" d="M185.43881,213.929258 C183.58717,213.447065 178.640967,213.156473 173,213 L175.95115,214.868095 C175.95115,214.868095 188.418642,265.921017 189.419356,282.756226 C190.209729,296.040457 190.126867,321.823363 190.056754,332.936134 L191.385727,333 C191.385727,333 196.69206,289.589941 195.923996,269.401741 C195.29616,252.920991 187.558156,217.617548 185.43881,213.929258 Z"/>
  </g>
</svg>
