<svg xmlns="http://www.w3.org/2000/svg" viewBox="0 0 182 319">
  <g fill="none" fill-rule="evenodd" transform="matrix(-1 0 0 1 182 0)">
    <path fill="#D5EAF5" d="M179.986762,311.424842 C179.986762,315.608167 139.695932,319.000114 89.9932662,319.000114 C40.2917491,319.000114 -0.000229668987,315.608167 -0.000229668987,311.424842 C-0.000229668987,307.241516 40.2917491,303.849569 89.9932662,303.849569 C139.695932,303.849569 179.986762,307.241516 179.986762,311.424842"/>
    <path fill="#30193B" d="M142.015129,309.780902 C142.606527,306.829245 137.604336,306.860122 134.645051,305.878905 C135.523535,306.466721 136.388239,307.296981 134.981516,307.673229 C132.923682,308.224449 128.445137,307.476528 127.145211,305.948665 C126.623862,307.05911 126.469984,308.609846 126.463094,309.676834 C126.453907,311.052597 141.492632,312.383759 142.015129,309.780902"/>
    <path fill="#FF97A6" d="M134.981516,307.673458 C136.388239,307.29721 135.523535,306.465806 134.645051,305.879134 C132.808848,305.268446 131.26662,304.833874 130.924414,304.671482 C130.033298,304.247202 129.795591,303.399787 129.795591,303.399787 L128.864283,303.182501 C128.864283,303.182501 127.295644,305.627539 127.145211,305.948894 C128.445137,307.476757 132.923682,308.223534 134.981516,307.673458"/>
    <path fill="#30193B" d="M32.0733889,310.312567 C32.0722405,307.136762 36.1810187,307.708567 38.9221181,306.857721 C38.1033481,307.381494 37.2937649,308.130559 38.582208,308.501088 C40.4677903,309.044303 44.6029804,308.435903 45.8248195,307.056709 C46.2853058,308.085958 46.402437,309.513183 46.3909535,310.493257 C46.3771734,311.759233 32.0745372,312.75303 32.0733889,310.312567"/>
    <path fill="#FF97A6" d="M38.5827821,308.501088 C37.2931908,308.130559 38.1039223,307.381494 38.9215439,306.857721 C40.6222427,306.330517 42.0496355,305.9577 42.3665787,305.814748 C43.1945354,305.440788 43.4265011,304.666564 43.4265011,304.666564 L44.2877598,304.482443 C44.2877598,304.482443 45.6910373,306.758227 45.8253936,307.056709 C44.6024063,308.435903 40.4683645,309.044303 38.5827821,308.501088"/>
    <path fill="#3B2B5B" d="M125.186938,91.9902119 C125.243207,92.500262 139.819149,110.12901 142.766951,123.828314 C151.647102,165.103487 134.397813,281.095275 131.851932,303.068598 C131.507428,306.032835 125.375266,302.623733 125.149043,298.943596 C123.73543,275.851823 105.800579,142.182111 105.800579,142.182111 L48.5636221,305.735496 L41.7700135,304.575876 C41.7700135,304.575876 50.6455715,231.036034 56.5744764,188.93975 C60.0861152,164.012483 63.9824496,126.196731 86.2683797,91.9387495 C93.0022744,90.3720038 114.691065,91.3131948 125.186938,91.9902119"/>
    <path fill="#30193B" d="M125.186938,91.9902119 C125.243207,92.500262 139.819149,110.12901 142.766951,123.828314 C151.647102,165.103487 134.397813,281.095275 131.851932,303.068598 C131.507428,306.032835 125.375266,302.623733 125.149043,298.943596 C123.73543,275.851823 105.800579,142.182111 105.800579,142.182111 C105.800579,142.182111 111.413689,129.086633 113.034003,115.356452 C113.767796,109.142075 113.584061,91.0856164 113.584061,91.0856164 C113.584061,91.0856164 120.754326,91.7043094 125.186938,91.9902119"/>
    <path fill="#FCCF8D" d="M137.676912,83.594056 C137.676912,83.594056 170.881305,81.9827095 178.320284,77.5226305 C178.881825,77.1852655 179.814281,75.7111523 180.135817,75.090172 C182.344085,70.8233631 185.603087,61.6756267 169.093332,63.5065463 C150.439617,65.5753368 137.111926,72.1076371 137.111926,72.1076371 C137.111926,72.1076371 137.914619,74.0483433 137.676912,83.594056"/>
    <path fill="#FCCF8D" d="M117.237061,34.5964284 C117.237061,34.5964284 131.846305,65.3332345 141.279959,75.6863359 C153.579881,89.1832212 151.657552,67.894921 151.657552,67.894921 C151.657552,67.894921 146.271814,50.523485 140.528941,42.867016 C135.17306,35.7263151 117.835348,25.85353 117.237061,34.5964284"/>
    <path fill="#FFE5B0" d="M136.975962,50.3311298 C138.952263,63.795994 139.630935,69.2898964 135.181099,86.5595511 C133.880024,91.6097329 85.6047512,95.8651057 84.9903866,93.0049371 C84.7676077,91.9665392 83.01064,83.8812165 82.0540686,79.5938226 C77.4526505,58.9802522 75.7553967,52.9888794 78.5320947,45.2752299 C80.4659076,39.9025501 81.492528,33.6184132 109.392717,30.3888585 C118.147698,29.37562 124.693264,31.8515357 127.546902,33.6458598 C132.600768,36.8228084 136.15145,44.7079994 136.975962,50.3311298"/>
    <path d="M96.0739823,17.1317883 C96.0992459,17.1306446 96.0980975,17.0906183 96.0716856,17.0917619"/>
    <path fill="#FCCF8D" d="M110.657159,30.1537323 C110.657159,30.1537323 117.186648,43.0719509 118.382075,57.4276873 C119.644107,72.5839507 117.249807,89.3206831 116.37362,91.9384064 C116.37362,91.9384064 128.152194,91.8114657 133.908847,88.1827912 C134.765513,87.6418636 135.376432,86.8253261 135.609546,85.8441087 C136.958851,80.1649414 141.956449,56.9016267 136.808418,43.5042355 C130.913964,28.1649945 110.657159,30.1537323 110.657159,30.1537323"/>
    <path fill="#FFEBC7" d="M95.5682512,82.4157946 C94.6736905,77.2695496 91.8246467,60.583136 91.8246467,60.583136 C91.8246467,60.583136 91.1161179,29.3751626 80.7040743,40.9016078 C73.5567755,48.8142455 78.4383898,77.8710885 85.2894157,94.4557208 C87.7882142,100.504274 97.6111568,94.167531 95.5682512,82.4157946"/>
    <path fill="#FFEBC7" d="M101.987385,83.3550415 C101.987385,83.3550415 140.770438,90.5369124 142.202424,96.3304406 C143.63441,102.121682 137.618231,107.575558 126.720438,108.958182 C121.99385,109.557434 92.5847362,109.439642 85.8634733,95.476164 C79.596955,82.4573077 101.987385,83.3550415 101.987385,83.3550415"/>
    <path fill="#FF97A6" d="M116.457105,21.8363711 C116.457105,21.8363711 114.17764,31.9184369 113.063746,32.709815 C111.949851,33.5011931 108.841281,33.8934514 108.291224,30.9315015 C107.741167,27.9695515 112.475793,20.2490404 112.475793,20.2490404 L116.457105,21.8363711 Z"/>
    <path fill="#C95D77" d="M114.81256,28.2825576 C112.964873,28.4941255 110.103198,26.472223 110.159466,24.3897091 C110.800243,22.6399858 110.549904,23.6818146 111.304366,22.2969028 L115.910378,24.1323969 C115.555539,25.5733455 115.309793,26.63919 114.81256,28.2825576"/>
    <path fill="#FF97A6" d="M110.226989,19.4676117 C110.204022,17.7281809 113.502069,12.2651559 113.502069,12.2651559 C116.744995,8.87663943 124.806376,14.8520017 125.733091,16.414173 C126.750524,18.1273008 125.729646,20.2875801 125.00504,21.9126499 C124.283879,23.5320016 122.40289,26.1748844 120.777982,27.0417408 C119.292024,27.8342625 116.175416,27.668439 114.721611,26.9308106 C110.355604,24.7167816 109.652817,22.9819252 110.226989,19.4676117"/>
    <path fill="#3B2B5B" d="M110.764759,32.7682535 C110.764759,32.7682535 111.515777,33.5013075 113.309491,32.7682535 L114.688654,34.6677897 L114.248838,35.8765855 C113.96979,36.6439478 113.263558,37.1757264 112.445936,37.2351942 C111.586974,37.2980927 110.777391,36.8246382 110.413365,36.0458398 L109.818523,34.775289 L110.764759,32.7682535 Z"/>
    <path fill="#3B2B5B" d="M113.319941,35.8969417 C113.319941,35.8969417 118.296868,48.2719456 119.411911,53.0636715 C121.287159,61.1158296 120.408675,70.6901325 120.408675,70.6901325 L116.11731,74.6939112 L110.225152,70.3939375 L111.780011,35.8306124 L113.319941,35.8969417 Z"/>
    <path fill="#FCCF8D" d="M108.331875,29.5149117 C108.331875,29.5149117 108.551209,30.4023531 109.73745,31.5573992 C110.259947,32.0663057 112.222468,33.0978419 112.222468,33.0978419 L110.054393,36.8431647 C110.054393,36.8431647 105.932983,32.901141 106.280931,30.7763136 L108.331875,29.5149117 Z"/>
    <path fill="#FFE5B0" d="M112.222583,33.0976132 L114.972869,36.235679 C114.972869,36.235679 116.615002,33.8924221 116.457679,31.162625 C116.425525,30.6194103 116.276241,30.2191468 116.276241,30.2191468 L114.357356,29.7937239 C114.357356,29.7937239 113.78548,31.6383668 112.222583,33.0976132"/>
    <polygon fill="#7F65C1" points="88.255 83.909 88.452 88.573 111.414 98.564 130.542 97.192 111.091 92.586"/>
    <polygon fill="#AACBE8" points="173.614 89.523 112.025 92.937 88.254 83.909 173.225 80.366"/>
    <polygon fill="#6A54AF" points="173.808 94.086 111.413 98.565 117.835 49.021 180.734 48.296"/>
    <polygon fill="#7F65C1" points="109.091 97.019 111.413 98.565 117.835 49.022 115.085 48.511"/>
    <polygon fill="#7F65C1" points="115.099 48.515 175.698 47.859 180.748 48.301 117.849 49.025"/>
    <path fill="#FF97A6" d="M144.6964,97.955053 C145.74369,96.8468949 146.268484,95.0971716 146.199583,94.0244654 C146.152501,93.2948422 145.731058,93.1541782 145.731058,93.1541782 C145.731058,93.1541782 145.913645,92.2244233 145.260237,92.1992639 C144.854871,92.1832533 143.831696,93.958136 142.73273,94.9679437 C142.057503,95.5854931 141.22725,96.1069792 140.674896,96.4157539 C140.674896,96.4157539 141.263997,94.6191426 140.695566,94.5150741 C140.127135,94.4121492 139.48521,96.6216037 139.10396,97.6908791 C138.767495,98.6320701 143.342501,99.3868527 144.6964,97.955053"/>
    <path fill="#FF97A6" d="M141.264915 96.0643226C142.402925 94.4701302 143.5306 91.7449076 143.939411 91.9496138 144.585929 92.2766863 144.247167 93.3356691 143.519116 94.7526019 142.793362 96.1683911 141.264915 96.0643226 141.264915 96.0643226M177.484289 69.7808482C176.563316 69.2810906 176.055748 68.7218653 175.2565 68.036843 175.160039 67.9613647 174.843095 67.6811802 174.587014 67.3987086 174.394093 67.2397468 174.056479 67.0144556 174.179352 66.7262659 174.253994 66.5695913 174.390647 66.535283 174.535339 66.5398575 174.545674 66.5387138 174.553712 66.5261341 174.564048 66.5249905 174.584718 66.5307086 174.608833 66.5467191 174.630652 66.5535808 174.693811 66.5627297 174.758118 66.582171 174.81209 66.5924635 174.854579 66.6061868 174.900513 66.6279154 174.94415 66.6404951 175.053243 66.6828087 175.173819 66.7228351 175.295543 66.7720103 175.130182 66.597038 174.974007 66.4106295 174.835057 66.2104978 174.692662 65.9909247 174.303373 65.5391987 174.324043 65.2487218 174.341269 65.0623133 174.391796 65.0531644 174.515817 64.9490959 174.605388 64.8724741 174.75697 64.9170749 174.815535 64.8450274 174.866062 64.7844161 174.765008 64.6185926 174.821277 64.5373963 174.782233 64.3166796 175.590668 63.7517363 176.579393 64.4642053 176.174027 63.9861763 176.445037 63.8146348 176.59547 63.8489431 177.178829 63.9598733 178.470717 64.7032198 178.758952 65.2109826 179.350349 66.2493805 177.868984 70.0393041 177.484289 69.7808482"/>
    <path fill="#3B2B5B" d="M114.364017,5.41870586 C114.364017,5.41870586 118.726579,-3.50717022 135.637106,3.04685871 C145.649526,6.92712746 146.152501,18.7143158 129.219007,16.9199917 C112.399198,15.1371037 114.22277,12.9631011 114.22277,12.9631011 C114.22277,12.9631011 114.914074,21.2314014 109.284887,20.2101577 C106.755083,19.7515701 106.275075,8.63339359 108.551095,5.71147002 C110.821372,2.79755173 113.320171,3.9251512 114.364017,5.41870586"/>
    <path fill="#7F65C1" d="M109.284428,20.2097002 C108.316373,19.9706857 107.87426,18.9162773 107.535498,18.0768676 C107.204775,17.1814209 106.996924,16.2528096 106.828118,15.3196238 C106.534141,13.4429598 106.491653,11.5411364 106.650124,9.62787685 C106.724767,8.67067527 106.887832,7.70432482 107.211665,6.7425488 C107.370137,6.26108899 107.600954,5.77619835 107.92249,5.3016002 C108.232544,4.88075172 108.57475,4.49421154 108.989303,4.14083604 C109.787403,3.43065423 110.998907,2.93661471 112.202372,3.13903368 C113.393206,3.3242985 114.386524,4.0219006 115.046822,4.94479388 L113.615985,5.05572405 C114.773516,3.07842235 116.502924,1.87191379 118.397693,1.02564239 C120.313132,0.251418418 122.364076,-0.0779412637 124.358752,0.0215528067 C126.361465,0.0512866668 128.306761,0.442401288 130.200382,0.92614832 C132.074481,1.51053303 133.891163,2.20470431 135.636647,3.04640127 C134.691559,2.81539205 133.757955,2.5695159 132.834685,2.30762921 C131.899933,2.0777636 130.949103,1.92680707 130.015499,1.73468059 C128.136806,1.41446979 126.242037,1.19146584 124.375977,1.31611933 C122.51451,1.40074647 120.670268,1.71523922 119.035024,2.48145793 C117.423896,3.19049613 115.906933,4.41758967 115.112278,5.78077279 L115.077828,5.84138412 C114.848159,6.23478596 114.342887,6.36744472 113.949005,6.13986633 C113.839912,6.07696778 113.748044,5.98890981 113.68144,5.89170296 C112.815588,4.62915752 111.179197,4.28378729 109.981473,5.34620099 C109.674865,5.58521548 109.382037,5.88827213 109.127104,6.20619571 C108.914661,6.50124709 108.721739,6.84318649 108.571305,7.2445936 C108.284219,8.03711533 108.041918,8.89939727 107.902969,9.79026947 C107.604399,11.5662958 107.51368,13.4109387 107.625069,15.2338531 C107.668706,16.1464539 107.751387,17.0624855 107.951199,17.9522141 C108.1935,18.7927674 108.40824,19.8048623 109.284428,20.2097002"/>
  </g>
</svg>
