<svg xmlns="http://www.w3.org/2000/svg" xmlns:xlink="http://www.w3.org/1999/xlink" viewBox="0 0 308 508">
  <defs>
    <polygon id="platform-holder-a" points=".002 .271 299.296 .271 299.296 29.999 .002 29.999"/>
    <polygon id="platform-holder-c" points="1 1 3 1 3 3 1 3"/>
  </defs>
  <g fill="none" fill-rule="evenodd" transform="matrix(-1 0 0 1 308 0)">
    <g transform="translate(0 478)">
      <mask id="platform-holder-b" fill="#fff">
        <use xlink:href="#platform-holder-a"/>
      </mask>
      <path fill="#D5EAF5" d="M299.297818,15.1348 C299.297818,23.3468 232.298937,29.9988 149.647713,29.9988 C67.0004763,29.9988 0.00159473684,23.3468 0.00159473684,15.1348 C0.00159473684,6.9228 67.0004763,0.2708 149.647713,0.2708 C232.298937,0.2708 299.297818,6.9228 299.297818,15.1348" mask="url(#platform-holder-b)"/>
    </g>
    <path fill="#3B2B5B" d="M217.572473,490 C219.138852,490.917869 220.705231,492.26599 218.347751,493.085516 C214.898553,494.29022 207.173455,493.519865 204.784331,491.016212 C204.020919,493.007661 203.929943,495.728488 204.036741,497.588813 C204.115851,498.932836 219.032053,499.203279 224.162341,498.871371 C226.345778,498.732052 228.99201,497.765011 228.999921,496.224301 C229.031565,491.290754 219.581868,490.528594 217.572473,490"/>
    <path fill="#FF97A6" d="M218.776988,493.468066 C221.171588,492.687064 219.580545,491.402316 217.989502,490.527593 C214.739113,489.723161 210.146784,488.930443 209.53608,488.700048 C207.941019,488.094771 208.178069,479 208.178069,479 L205.317405,479.06248 C205.317405,479.06248 205.224996,490.945429 205,491.496036 C207.426743,493.881998 215.273478,494.61614 218.776988,493.468066"/>
    <path fill="#3B2B5B" d="M95.066285,487 C93.561965,487.985865 92.0813352,489.389132 94.4779814,490.037099 C97.9841129,490.987186 105.636008,489.762806 107.870772,487.190813 C108.747305,489.075086 108.996051,491.706709 108.999999,493.511477 C109.003948,494.815362 94.1581653,496.003965 89.0292635,495.99999 C86.8418796,495.99999 83.8924649,495.495132 84.0030186,491.547698 C84.0740888,488.824645 93.0960602,487.636042 95.066285,487"/>
    <path fill="#FF97A6" d="M94.3146805,489.67241 C91.8219543,489.011198 93.3619417,487.579249 94.9265688,486.573233 C98.1954487,485.538822 100.897613,484.691011 101.546461,484.524694 C107.086309,483.076519 104.412891,475 104.412891,475 L109,477.717864 C109,477.717864 107.977448,486.212204 108.24438,486.767946 C105.924132,489.396567 97.9654772,490.641916 94.3146805,489.67241"/>
    <path fill="#3B2B5B" d="M167.557991,183 C167.474393,183.772493 145.336805,207.588382 137.518387,227.227232 C124.604463,259.644076 103.426264,472.74073 102.036942,477.515057 C100.993955,481.10277 122.37916,479.462218 122.773265,478.132255 L191.68203,264.087904 L196.331679,485.781531 L209.711365,487 C209.711365,487 232.024111,395.794027 240.829783,329.168472 C256.136207,213.294479 224.5162,199.385618 222.700926,188.869356 C215.985208,191.927474 180.53959,189.056507 167.557991,183"/>
    <path fill="#FF97A6" d="M304.994453,9.7025176 C304.594411,7.78072115 302.267243,9.79078383 300.555525,11.503951 C299.905457,11.9813911 299.232309,12.7436903 298.782262,12.6754846 C298.343754,12.4668553 298.766876,12.6634483 298.755336,12.6634483 C298.074495,11.503951 298.059109,10.0315099 297.989871,7.16686967 C297.955252,5.70245275 297.405194,0.522830154 295.905037,0.149704746 C295.751174,0.109583735 295.535767,0.145692645 295.439603,0.278091983 L295.393444,0.338273501 C295.374212,0.286116186 295.358825,0.237970972 295.324206,0.189825758 C295.051101,-0.167251245 294.189472,0.00928120584 293.935599,0.470672839 C292.993192,2.17581583 292.862409,5.64227123 293.108589,7.82886636 C293.154748,12.1258267 294.612593,14.3726034 293.389388,18.4970433 C293.093203,19.6485164 293.147055,20.8080136 294.654905,21.181139 C294.72799,21.1971874 294.797228,21.181139 294.866466,21.1931753 C295.18573,21.5301918 295.56654,21.7428332 295.989661,21.7869663 C296.12429,21.975535 296.355084,22.0958981 296.508946,21.8993051 C296.589724,21.7990026 296.689734,21.7267848 296.774359,21.6385185 C296.893602,21.5823491 297.008999,21.5863612 297.132089,21.5021071 C297.539824,21.2172479 298.009104,19.7568431 298.37068,19.2954515 C299.301547,18.6294427 305.206013,10.7055429 304.994453,9.7025176"/>
    <path fill="#30193B" d="M111.224553,479.67249 C116.502425,479.545124 121.959817,478.800831 122.155294,478.136141 L191.21045,264.185586 L195.869978,485.782065 L209.278088,487 C209.278088,487 231.638235,395.837975 240.462615,329.237635 C255.801556,213.414419 227.481362,199.511653 225.658242,189 C223.001354,190.205994 216.801948,191.563235 208.316661,191.089594 C195.33142,190.365201 105.94668,479.799856 111.224553,479.67249"/>
    <g transform="translate(38 505)">
      <mask id="platform-holder-d" fill="#fff">
        <use xlink:href="#platform-holder-c"/>
      </mask>
      <path fill="#3B2B5B" mask="url(#platform-holder-d)"/>
    </g>
    <path fill="#1D4F5E" d="M232.964517,140.067923 L232.085997,140.833131 C232.085997,140.833131 238.921604,134.886829 238.929627,134.878858 C240.040814,134.15749 240.975495,133.452064 241.797854,132.76258 C250.486777,126.210488 266.621057,112.647977 269.409054,96.9014351 C273.027432,76.5198065 258.846757,84.5664448 258.846757,84.5664448 C258.846757,84.5664448 244.537713,117.833057 225.483057,120.447517 C220.143742,121.180841 223.770144,146.066036 232.964517,140.067923"/>
    <path fill="#295A6E" d="M193.321512,118.706247 C193.444318,118.698308 193.567123,118.678459 193.693889,118.666549 C211.124292,116.86823 228.221932,119.277898 228.233817,119.281868 C229.497521,119.63518 234.683066,137.519123 235.344629,143.759647 C237.701694,165.946852 233.447092,188.018933 226.645273,197.637756 C225.179535,199.702051 213.968617,200.492041 201.814872,199.694111 C185.834362,198.654024 167.56017,195.101054 161,190.349205 C162.346895,186.002275 168.43169,164.01356 168.95064,145.621483 C169.338863,131.854221 173.878691,119.956734 193.321512,118.706247"/>
    <path fill="#1D4F5E" d="M254.000448 92.6548862C259.225832 80.8683519 266.967476 45.3587019 274.69252 24.4720678 276.652605 19.1824918 285.950241 17.5888849 292.084952 19.7143037 292.164468 19.7462648 292.244348 19.7708837 292.327477 19.8021969 305.100423 24.6135195 299.468992 35.5950918 297 45.4950688 294.534984 55.3910505 271.056771 97.5129863 265.812647 106.418171 263.005709 111.184383 254.871155 114.624205 249.471974 109.338625 247.189846 107.105337 251.630771 98 254.000448 92.6548862zM206.062017 118.008174C218.469561 117.881339 228.369492 119.272558 228.377403 119.276522 229.63912 119.633245 234.820466 137.489212 235.477033 143.71601 237.830393 165.87247 238.146811 188.67896 231.351733 198.282735 229.999045 200.189221 215.756276 200.236784 204.70933 199.717554 203.811494 199.677918 202 199.566938 202 199.566938 202 199.566938 211.769408 176.578123 214.617171 155.499759 217.22762 136.169337 204.203061 118.027991 206.062017 118.008174"/>
    <path fill="#295A6E" d="M179.339162,132.278142 C179.339162,132.278142 179.347154,132.310186 179.35115,132.322203 C179.730782,133.591976 180.142383,134.693513 180.565972,135.674883 C184.378273,145.877123 200.610523,174.38091 214.421124,182.540299 C232.435645,193.175143 221.985784,165.881045 221.985784,165.881045 L197.249784,134.537295 C195.771219,129.362071 176.206202,121.751448 179.339162,132.278142"/>
    <path fill="#295A6E" d="M215.238301,173.913776 C218.223408,154.979557 259.418682,138.240436 283.597652,132.107655 C284.678809,131.829794 286.964344,131.960785 287.862659,134.080465 C288.70135,136.065184 289.583766,138.677075 290.784168,142.45598 C296.19393,159.465022 282.3893,163.851251 272.241525,168.642363 C262.097726,173.433474 229.261547,182.642571 229.261547,182.642571 C229.261547,182.642571 212.845445,189.080999 215.238301,173.913776"/>
    <path fill="#FF97A6" d="M201.273528,101 C201.273528,101 198.203039,115.874465 199.198658,117.602921 C200.194277,119.335435 204.069227,121.737422 206.58217,118.10604 C209.099096,114.470601 207.49814,101.279961 207.49814,101.279961 L201.273528,101 Z"/>
    <path fill="#C95D77" d="M200,112.401719 C202.421203,113.791052 205.79924,114.644787 208.886066,113.388347 C209.102393,110.682169 208.973429,107.617583 208.807023,105.322164 L201.285484,105 C200.86531,107.126283 200.349452,109.921056 200,112.401719"/>
    <path fill="#1D4F5E" d="M179,136 C182.731921,140.776316 186.343586,145.625062 189.979303,150.457713 C193.607003,155.294387 197.178583,160.1713 200.878436,164.939568 C204.486093,169.776243 208.205988,174.548535 212.198462,178.994895 C213.232657,180.125599 214.238793,181.03499 215.477421,181.996691 C216.603812,182.942297 217.866492,183.630377 219.26947,184.016667 C222.091459,184.829486 225.165985,184.141406 228,183.187753 C225.302274,184.483434 222.219732,185.408921 219.085079,184.817414 C217.529777,184.539768 216.062664,183.783283 214.824035,182.857797 C213.625491,182.024858 212.318717,180.986704 211.256463,179.924406 C206.899215,175.614857 203.223413,170.782206 199.463433,166.026009 C195.839741,161.165192 192.27217,156.26816 188.852912,151.270531 C185.449689,146.256807 182.110602,141.202845 179,136"/>
    <path fill="#FF97A6" d="M307.356366 133.425321C305.121951 133.469545 302.708942 133.409239 300.446746 133.767056 300.240371 133.771076 300.026057 133.746954 299.819682 133.750974 300.708685 133.240381 301.573876 132.669482 302.470817 132.199094 302.931193 131.961889 303.740821 131.704583 304.280573 131.2945 304.316292 131.286459 304.348042 131.270378 304.383761 131.258317 304.756825 131.145745 304.820325 130.844214 304.756825 130.562785 304.764763 130.51454 304.812388 130.486397 304.808419 130.430111 304.808419 130.393927 304.756825 130.401968 304.744919 130.365784 304.792544 130.200947 304.736981 130.003947 304.546481 130.028069 304.502824 130.03209 304.463137 130.040131 304.41948 130.052192 304.407574 130.052192 304.411543 130.03209 304.399636 130.03209 304.359949 130.028069 304.316292 130.056212 304.276605 130.056212 304.193261 130.024049 304.117854 129.987865 304.014666 130.003947 301.669126 130.466295 299.236273 130.992969 297.144734 132.154869 296.585138 132.335788 296.049355 132.597115 295.553259 132.975034 295.549291 132.979054 295.541353 132.983075 295.537384 132.983075 295.652478 132.621237 295.719947 132.223216 295.763604 131.837256 295.763604 131.77293 295.811229 131.712623 295.803292 131.644276 295.803292 131.632215 295.791385 131.624174 295.783448 131.616133 295.874729 131.286459 295.989823 130.984928 296.077136 130.631132 296.180324 130.200947 295.61676 129.851171 295.315133 130.200947 294.6206 131.013071 294.001472 131.841277 293.441876 132.709687 292.580654 133.722831 291.782933 134.808343 291.100305 135.930039 290.219239 136.537122 289.369924 137.224613 289.143704 137.831696 288.861922 138.571452 289.012735 140.412803 289.437393 141.108335 290.250989 142.455174 292.921968 142.037051 295.148445 141.409866 296.517669 141.289253 297.867049 141.023906 299.14896 140.477129 299.704587 140.525374 300.252277 140.537436 300.811873 140.529395 302.387472 140.762579 304.256761 140.621864 304.963201 140.440946 305.241014 140.372599 305.248952 140.083129 305.137827 139.862006 305.15767 139.757475 305.129889 139.652944 305.010826 139.628822 304.990982 139.624801 304.971138 139.620781 304.951295 139.616761 304.951295 139.616761 304.951295 139.61274 304.947326 139.61274 304.895732 139.604699 304.844138 139.604699 304.792544 139.592638 304.538543 139.552434 304.276605 139.528311 304.018635 139.480066 302.403348 138.820718 300.494372 138.25786 298.79574 137.980451 299.50218 137.847778 300.200683 137.686961 300.871404 137.457797 301.919158 137.301001 302.931193 137.023592 303.895603 136.669796 304.328199 136.589388 304.748888 136.484857 305.165608 136.348163 305.96333 136.135081 306.741208 135.865713 307.515117 135.463671 307.884212 135.270691 307.622273 134.808343 307.273022 134.836486 307.241272 134.820405 307.229366 134.77216 307.193647 134.77216 307.18174 134.768139 307.165865 134.77216 307.14999 134.77216 307.157928 134.764119 307.138084 134.756078 307.146022 134.744017L307.384147 134.744017C308.225526 134.735976 308.193776 133.405218 307.356366 133.425321M214.483025 98.7788339C214.361475 97.5710606 212.189241 94.0841668 210.279714 91.2232286 208.699551 88.8478072 205.5157 88.2900647 203.237599 89.9673048 199.704779 92.5634156 195.948461 95.6570809 195.31718 97.1056064 194.329088 99.3767018 195.86612 101.924662 196.967921 103.85068 198.065801 105.764659 200.704633 108.794124 202.790605 109.652807 204.696211 110.435251 208.436844 109.80127 210.091506 108.685785 215.059412 105.331305 215.667167 103.072248 214.483025 98.7788339"/>
    <path fill="#3B2B5B" d="M202.2962,111.959658 C199.797037,111.129701 197.374585,109.999035 195.529485,107.918129 C195.517372,107.9061 195.52141,107.890063 195.513335,107.878034 C194.717963,107.128266 194.01949,106.318357 193.425989,105.476371 C193.276604,105.348069 193.131257,105.215757 192.98591,105.091464 C192.925349,105.099483 192.868825,105.123539 192.796152,105.103492 C190.567496,104.433913 188.100632,102.874236 186.865182,101.202294 C183.893641,97.1968491 183.215355,92.064748 184.915108,87.3135452 C186.719835,82.2736616 190.850115,80.6458233 195.218603,79.2866184 C197.354398,78.4807182 199.373108,77.277882 200.980001,75.6660815 C202.457697,74.1906025 203.261143,72.278093 204.662128,70.7545005 C204.884186,70.5139332 205.114319,70.2894038 205.352527,70.0929406 C206.430518,68.3929321 208.723772,67.6351453 210.871679,68.1684027 C213.714023,68.8700571 215.946716,71.7287978 216.725938,74.407113 C219.059566,82.4340397 212.365525,88.4241639 205.199105,90.1522385 C204.113039,90.5411556 203.026973,90.934082 201.977244,91.3991787 C199.175275,92.6461189 196.546914,94.3220706 196.02205,97.6418984 C195.804029,99.0131317 196.167397,100.248043 196.615551,101.470927 C196.78916,101.767627 196.958731,102.072345 197.124265,102.373054 C197.196939,102.513385 197.277687,102.653716 197.358436,102.790037 C198.484876,104.734622 200.039282,106.446659 202.02973,107.517183 C203.818307,108.475443 205.772418,108.916483 208.089897,108.122611 C210.681921,107.236522 212.539134,106.182035 213.879557,104.229431 C214.251,103.688155 215.171531,101.783664 214.674929,99.5744552 C213.923969,96.2506179 210.851492,91.6878594 210.944353,91.7840863 C212.753117,93.5682933 217.981575,102.685791 218.143072,103.002538 C218.155184,103.022586 218.171334,103.042633 218.183446,103.06669 C218.663899,103.960798 218.962668,104.674481 218.966706,105.360097 C219.003042,105.648778 219.015155,105.921421 218.974781,106.170007 C218.611413,108.363178 215.21998,110.620501 213.459665,111.606826 C209.8381,113.63962 205.954102,113.170513 202.2962,111.959658"/>
    <path fill="#7F65C1" d="M198.903108,77 C196.231946,79.050125 192.862732,80.1555846 189.933331,81.5022353 C187.06849,83.0378192 185.571509,86.1572251 184.869421,89.248492 C184.542588,90.7840759 184.352943,92.5085928 184.619252,93.9034818 C184.954156,95.6038796 185.27292,97.1274039 185.962903,98.5544517 C187.185504,101.472865 189.860701,103.494851 192.987816,104.190286 C193.193601,104.234504 193.359035,104.367159 193.455875,104.531973 L193.472015,104.556092 C194.254802,105.934902 195.396704,107.253414 196.627375,108.382992 C197.874186,109.504531 199.290467,110.461256 200.856042,111.120512 C202.421617,111.755649 204.071927,112.27019 205.794866,112.426964 C207.505701,112.656096 209.248815,112.53952 211,112.390786 C209.2932,112.776692 207.533946,113.058081 205.754516,112.989744 C203.967017,113.017883 202.187587,112.611878 200.492893,112.016939 C197.103503,110.754705 194.121648,108.427211 192.192924,105.223388 L192.673087,105.589194 C189.219138,104.925919 185.898343,102.562245 184.490133,99.2257671 C183.74366,97.6178259 183.412791,95.8169318 183.130342,94.2331097 C182.823683,92.3196597 183.106132,90.6474009 183.481386,88.9309236 C184.231893,85.5823861 186.237282,82.2097295 189.501587,80.6661059 C192.733612,79.3918125 195.973707,78.7164772 198.903108,77"/>
  </g>
</svg>
