<svg xmlns="http://www.w3.org/2000/svg" xmlns:xlink="http://www.w3.org/1999/xlink" width="101" height="24" viewBox="0 0 101 24">
  <defs>
    <path id="small-logo-a" d="M7.30570091,0.00876521664 L5.5005226,3.15097016 L3.72724583,6.23757859 C2.95438128,7.58191239 1.54597833,8.3269558 0.10318153,8.31293146 C0.118135374,8.31343233 0.133089219,8.3146845 0.147793833,8.3146845 L10.8532514,8.31368276 C10.8706975,8.31368276 10.8878944,8.31293146 10.9050914,8.31293146 C10.9434729,8.31218015 10.9808575,8.31142885 11.0187406,8.30992624 C11.0498944,8.30842363 11.0810483,8.30717146 11.1124514,8.30516798 C11.148839,8.30266363 11.1847283,8.30015929 11.221116,8.2966532 C11.2552606,8.29414885 11.2884083,8.29064276 11.3215559,8.28688624 C11.3532083,8.28287929 11.3843621,8.2786219 11.4160144,8.27461494 C11.4548944,8.26935581 11.4937744,8.26384625 11.5326544,8.25708451 C11.557079,8.25332799 11.5815036,8.24856972 11.6051805,8.24381146 C11.651039,8.23554712 11.696399,8.2267819 11.7415098,8.21651408 C11.7582082,8.21275755 11.7749067,8.20850016 11.7918544,8.20524451 C11.8441928,8.19297321 11.8967805,8.17970017 11.9488697,8.16517495 C11.957842,8.1626706 11.9665651,8.16041669 11.9747897,8.15791234 C12.0351036,8.14088278 12.0944205,8.12310191 12.1539866,8.10306713 C12.1557313,8.10206539 12.1567282,8.10181495 12.158722,8.10131409 C12.4184205,8.01416279 12.6723866,7.8997141 12.919125,7.75721672 C13.0397527,7.68734543 13.1541496,7.61196456 13.2643096,7.53257674 C13.2695435,7.52907066 13.2745281,7.525815 13.2800112,7.52205848 C13.3256204,7.48824979 13.3707312,7.45394023 13.4145958,7.41862893 C13.4268081,7.40886197 13.4390204,7.39959588 13.4517311,7.38932806 C13.4871219,7.36102893 13.521765,7.33097676 13.5559096,7.30092459 C13.5753496,7.28439589 13.5947896,7.26811764 13.6127342,7.25133851 C13.6391527,7.2275472 13.6653219,7.20200286 13.6922388,7.17771069 C13.7154173,7.15492112 13.7403404,7.13213156 13.7642665,7.10859069 C13.7847034,7.08855591 13.8046419,7.06701852 13.8240819,7.04648287 C13.8507496,7.01868461 13.878165,6.99088635 13.9038357,6.96233679 C13.9222788,6.94205158 13.9394757,6.92176636 13.9579188,6.90022897 C13.984088,6.87042723 14.0095096,6.84162724 14.0339342,6.81132463 C14.0561157,6.78527942 14.0765526,6.7584829 14.097488,6.73243768 C14.1166788,6.70764464 14.1366172,6.6828516 14.1560572,6.65780812 C14.1872111,6.61523421 14.2183649,6.57165856 14.2475249,6.52858379 C14.2542542,6.51881683 14.2617311,6.50930031 14.2689588,6.49953335 C14.6413095,5.94832644 14.8745895,5.31597867 14.9548418,4.6605909 C14.9555895,4.65433003 14.9568356,4.6483196 14.9573341,4.64230917 C14.9635649,4.59122047 14.9675526,4.54013178 14.9717895,4.4897944 C14.9732849,4.4675057 14.9752787,4.44596831 14.9767741,4.42443092 C14.9792664,4.38486223 14.9805126,4.34554397 14.9825064,4.30722746 C14.9830049,4.27241702 14.9845002,4.23935964 14.9849987,4.20479964 C14.9849987,4.17374573 14.9849987,4.14269182 14.9845002,4.11113704 C14.9840018,4.07106748 14.9830049,4.03074748 14.9815095,3.99092835 C14.9805126,3.96237879 14.9782695,3.93357879 14.9772726,3.90578053 C14.9742818,3.86571097 14.9717895,3.82489011 14.968051,3.78532141 C14.9655587,3.75501881 14.9625679,3.72546751 14.9600756,3.69616664 C14.9548418,3.65910229 14.9508541,3.62178751 14.9451218,3.58547447 C14.9406356,3.55266752 14.9363987,3.51961013 14.9309156,3.48630231 C14.9251833,3.45499796 14.919451,3.42369362 14.9139679,3.39163797 C14.9062418,3.35382232 14.8992633,3.31575624 14.8910387,3.27769015 C14.8858049,3.25239624 14.8798233,3.22710233 14.8735926,3.20281016 C14.8633741,3.15873364 14.8521587,3.11490756 14.8409433,3.07133191 C14.8364572,3.05204843 14.8307249,3.03351626 14.8252418,3.01473365 C14.8107864,2.96514757 14.7960818,2.91631279 14.780131,2.86697714 C14.7761433,2.85420497 14.771408,2.8414328 14.7674203,2.82841019 C14.7484787,2.77431628 14.7300357,2.72047281 14.708851,2.66662934 C14.705611,2.65861542 14.7021218,2.65035108 14.6993803,2.64158586 C14.676451,2.58473717 14.6525249,2.52688674 14.6276018,2.47003805 C14.6248603,2.46452848 14.6228664,2.45977022 14.6203741,2.45451109 C14.5942049,2.39540849 14.5657926,2.33730762 14.5366326,2.2794572 C14.5341403,2.2744485 14.5313987,2.26969024 14.5289064,2.26493198 C14.5002449,2.20858416 14.4690911,2.15223634 14.4374388,2.09638938 C13.7251373,0.848723405 12.3872666,0.00876521664 10.8530021,0.00876521664 L7.30570091,0.00876521664 Z"/>
    <linearGradient id="small-logo-b" x1="81.258%" x2="60.054%" y1="-41.787%" y2="20.529%">
      <stop offset="0%" stop-color="#D8AF1F"/>
      <stop offset="100%" stop-color="#FFD41F"/>
    </linearGradient>
    <path id="small-logo-d" d="M0.55653226,9.34722702 C0.554787645,9.35073311 0.55329226,9.35423919 0.551547645,9.35749485 C0.518649186,9.41459397 0.487495343,9.47219397 0.457836884,9.5300444 C0.456341499,9.53330005 0.454347653,9.53705657 0.452353807,9.54131396 C0.422695348,9.59966526 0.394283043,9.65876786 0.367366122,9.71887221 C0.365621507,9.7231296 0.36337843,9.72738699 0.361633815,9.73189481 C0.335713817,9.78999568 0.311787665,9.84784611 0.288609206,9.90669828 C0.285369206,9.91396089 0.282876899,9.92122349 0.280384591,9.92823567 C0.258950747,9.98308088 0.239759979,10.0379261 0.220319981,10.0935226 C0.21658152,10.1055435 0.212843059,10.1175643 0.208855367,10.1295852 C0.192156907,10.1789209 0.177203062,10.2297591 0.162747678,10.2798461 C0.158012294,10.2978774 0.152778448,10.3154078 0.147793833,10.3334391 C0.135581527,10.3775156 0.124864605,10.4223435 0.114147682,10.4666704 C0.108664606,10.491213 0.102683068,10.5160061 0.0971999916,10.5402982 C0.0887261462,10.5788652 0.0812492238,10.6176826 0.0742707628,10.6557486 C0.0687876864,10.6868026 0.0628061484,10.7178565 0.0580707642,10.7489104 C0.0525876878,10.7824686 0.0473538421,10.8165278 0.0428676886,10.8498356 C0.0378830737,10.8856478 0.0331476895,10.9222112 0.0294092282,10.9587747 C0.0259199978,10.9888269 0.022679998,11.0193799 0.0201876906,11.0491817 C0.0166984601,11.0882495 0.0137076911,11.128319 0.0114646144,11.1676373 C0.00947076842,11.1969382 0.00822461468,11.2259886 0.00722769169,11.255039 C0.00548307645,11.2941069 0.00473538421,11.3336755 0.00373846122,11.3737451 C0.00373846122,11.4052999 0.00348923047,11.4371051 0.00373846122,11.4686599 C0.00423692271,11.5024686 0.00498461496,11.5357764 0.00623076869,11.5698355 C0.00797538393,11.6086529 0.00947076842,11.6487225 0.0114646144,11.6877903 C0.0137076911,11.7095781 0.0149538449,11.7306146 0.0164492294,11.7514007 C0.0206861521,11.8027399 0.0251723055,11.8545798 0.0311538435,11.9061694 C0.0319015357,11.9114285 0.032649228,11.9169381 0.0336461509,11.9221972 C0.112901529,12.5790876 0.347178432,13.212938 0.721523015,13.7643953 C0.72326763,13.767651 0.726009168,13.7701553 0.727753783,13.7731606 C0.762147627,13.8237484 0.797538393,13.8733345 0.834175313,13.9229205 C0.848879927,13.9419536 0.864332233,13.9609866 0.879535309,13.980771 C0.904707614,14.0128266 0.929381458,14.0448823 0.955799918,14.0766875 C0.976984531,14.1022318 0.999166068,14.1272753 1.02084914,14.1523188 C1.04278145,14.1773623 1.06396606,14.2024057 1.08664606,14.2271988 C1.10932606,14.2519918 1.13250452,14.2765344 1.15568298,14.3003257 C1.17960913,14.3248683 1.20278759,14.3496614 1.2272122,14.374204 C1.24739989,14.3939883 1.26858451,14.4142735 1.28976912,14.4340579 C1.31867989,14.4616057 1.34759065,14.489404 1.37824604,14.5169518 C1.39319988,14.5307257 1.4103968,14.5447501 1.42609834,14.558524 C1.46348295,14.5913309 1.50086756,14.623637 1.5392491,14.6549413 C1.5489691,14.6627048 1.55893833,14.6702179 1.56865833,14.6777309 C1.61551371,14.7150457 1.66286755,14.75211 1.71196601,14.7871709 C1.71445831,14.7889239 1.71670139,14.790677 1.7191937,14.79243 C1.8310983,14.8735709 1.94773829,14.9489518 2.06961213,15.0195744 C2.3165998,15.1630735 2.57156286,15.2777726 2.83200899,15.3646735 C2.83250745,15.3651743 2.83325514,15.3656752 2.83400283,15.3656752 C2.89381821,15.3859604 2.95463051,15.4037413 3.01519359,15.4215222 C3.02316897,15.4237761 3.03089512,15.4262804 3.03911974,15.427783 C3.09195666,15.4430595 3.14529204,15.4560821 3.19887665,15.468103 C3.21457818,15.4723604 3.23027972,15.4761169 3.24623049,15.4791221 C3.29208895,15.4896404 3.3379474,15.4989065 3.38405509,15.5071708 C3.40773201,15.5114282 3.4319074,15.5159361 3.45583355,15.5196926 C3.49496278,15.5267048 3.53384277,15.5327152 3.572972,15.537223 C3.60437507,15.5417308 3.63552892,15.5459882 3.66718122,15.5497447 C3.70032891,15.5535013 3.73397506,15.5567569 3.76762121,15.5595117 C3.8040089,15.5627674 3.84039659,15.5655221 3.87678428,15.5682769 C3.90793813,15.5702804 3.93909197,15.5715326 3.96974735,15.5727847 C4.00787965,15.5740369 4.04576273,15.5747882 4.08414426,15.5755395 C5.52943337,15.5920682 6.94082709,14.8470248 7.7149378,13.5001867 L9.48821457,10.4135782 L7.68303626,7.27137329 L5.90801488,4.18376312 C5.16131956,2.88450758 5.19297186,1.34834075 5.85742103,0.120709555 L0.55653226,9.34722702 Z"/>
    <linearGradient id="small-logo-e" x1="112.722%" x2="73.949%" y1="80.672%" y2="61.744%">
      <stop offset="0%" stop-color="#009EDD"/>
      <stop offset="100%" stop-color="#00ACED"/>
    </linearGradient>
    <path id="small-logo-g" d="M0.37010766,0.142747814 C0.231784595,0.142747814 0.120378451,0.255193022 0.120378451,0.394434749 C0.120378451,0.532925172 0.231784595,0.645620814 0.37010766,0.645620814 L0.972996839,0.645620814 L0.972996839,6.8521455 C0.866326079,6.99213853 0.765387626,7.13714026 0.675664557,7.29366198 L0.623575331,7.38331763 C-0.0408738426,8.61094882 -0.0725261476,10.1471156 0.674169173,11.4463712 L2.44919056,14.5339814 L6.05954717,14.5339814 L9.6068484,14.5339814 C11.1411129,14.5339814 12.4789835,15.3739395 13.191285,16.6216055 C13.1897896,16.617849 13.1872973,16.6133412 13.1853035,16.6098351 L7.88740547,7.39007936 L7.83207625,7.29341155 C7.74509472,7.14164808 7.64939011,6.99789853 7.54745473,6.86166202 L7.54745473,0.645620814 L8.055387,0.645620814 C8.19346083,0.645620814 8.3058639,0.532925172 8.3058639,0.394434749 C8.3058639,0.255193022 8.19346083,0.142747814 8.055387,0.142747814 L0.37010766,0.142747814 Z"/>
    <linearGradient id="small-logo-h" x1="-7.959%" x2="28.375%" y1="72.07%" y2="58.057%">
      <stop offset="0%" stop-color="#CC6715"/>
      <stop offset="100%" stop-color="#E67923"/>
    </linearGradient>
  </defs>
  <g fill="none" fill-rule="evenodd">
    <path fill="#02414A" d="M3.77214911,19.1766936 L1.90487767,19.1766936 L1.90487767,8.25567907 L3.77214911,8.25567907 L3.77214911,19.1766936 Z M1.75347728,5.35888501 C1.75347728,5.05608272 1.84599882,4.80038684 2.03104466,4.59178971 C2.2160905,4.38319258 2.49029068,4.27889558 2.85365343,4.27889558 C3.21701617,4.27889558 3.49289856,4.38319258 3.68130888,4.59178971 C3.86971919,4.80038684 3.96392293,5.05608272 3.96392293,5.35888501 C3.96392293,5.66168729 3.86971919,5.91401875 3.68130888,6.11588694 C3.49289856,6.31775513 3.21701617,6.41868771 2.85365343,6.41868771 C2.49029068,6.41868771 2.2160905,6.31775513 2.03104466,6.11588694 C1.84599882,5.91401875 1.75347728,5.66168729 1.75347728,5.35888501 Z M8.94136635,5.61121898 L8.94136635,8.25567907 L10.9802249,8.25567907 L10.9802249,9.69902943 L8.94136635,9.69902943 L8.94136635,16.4716734 C8.94136635,16.9090545 9.03220567,17.2370854 9.21388704,17.4557759 C9.39556842,17.6744665 9.705095,17.7838101 10.1424761,17.7838101 C10.3578022,17.7838101 10.6538711,17.7434371 11.0306917,17.6626898 L11.0306917,19.1766936 C10.5394791,19.3112724 10.0617315,19.3785608 9.59743469,19.3785608 C8.76304616,19.3785608 8.13389974,19.1262294 7.70997653,18.6215589 C7.28605333,18.1168884 7.07409491,17.4002671 7.07409491,16.4716734 L7.07409491,9.69902943 L5.08570316,9.69902943 L5.08570316,8.25567907 L7.07409491,8.25567907 L7.07409491,5.61121898 L8.94136635,5.61121898 Z M17.3404585,19.3785608 C15.8600918,19.3785608 14.6556296,18.8924022 13.7270359,17.9200704 C12.7984423,16.9477386 12.3341524,15.6473905 12.3341524,14.0189871 L12.3341524,13.6758129 C12.3341524,12.5924536 12.5410642,11.6251831 12.954894,10.7739722 C13.3687238,9.9227613 13.9474039,9.25660626 14.6909517,8.77548707 C15.4344996,8.29436788 16.240278,8.05381189 17.1083112,8.05381189 C18.5281175,8.05381189 19.6316471,8.52146619 20.418933,9.45678881 C21.206219,10.3921114 21.5998561,11.7311504 21.5998561,13.4739457 L21.5998561,14.2511344 L14.2014238,14.2511344 C14.2283396,15.3277648 14.5429128,16.1974672 15.1451529,16.8602677 C15.747393,17.5230683 16.5127984,17.8544636 17.4413921,17.8544636 C18.1008282,17.8544636 18.6593218,17.7198868 19.1168897,17.4507292 C19.5744576,17.1815716 19.9748235,16.8249432 20.3179994,16.3808332 L21.458549,17.2690488 C20.5434132,18.6753972 19.1707301,19.3785608 17.3404585,19.3785608 Z M17.1083112,9.58800248 C16.35467,9.58800248 15.7221592,9.86220266 15.2107597,10.4106112 C14.6993603,10.9590198 14.3831049,11.7277897 14.261984,12.7169438 L19.7325846,12.7169438 L19.7325846,12.5756368 C19.6787531,11.6268563 19.4230572,10.8917306 18.9654893,10.3702378 C18.5079214,9.84874498 17.8888683,9.58800248 17.1083112,9.58800248 Z M28.6868115,9.93117669 C28.4041961,9.88407411 28.0980339,9.86052318 27.7683159,9.86052318 C26.5436488,9.86052318 25.7126372,10.3820082 25.2752561,11.4249938 L25.2752561,19.1766936 L23.4079847,19.1766936 L23.4079847,8.25567907 L25.2247894,8.25567907 L25.2550694,9.51734897 C25.8674029,8.5416527 26.7354231,8.05381189 27.8591561,8.05381189 C28.2225188,8.05381189 28.4984012,8.10091376 28.6868115,8.19511892 L28.6868115,9.93117669 Z M36.3894619,19.1766936 C36.2817989,18.9613676 36.194324,18.5778238 36.1270346,18.0260507 C35.2590013,18.9277286 34.2227602,19.3785608 33.01828,19.3785608 C31.9416496,19.3785608 31.0584895,19.0740809 30.3687732,18.4651118 C29.6790569,17.8561428 29.3342039,17.0840085 29.3342039,16.1486859 C29.3342039,15.0114951 29.7665318,14.128335 30.6312005,13.4991791 C31.4958693,12.8700233 32.7121069,12.5554501 34.2799499,12.5554501 L36.0967545,12.5554501 L36.0967545,11.6975145 C36.0967545,11.0448074 35.9016182,10.5250046 35.5113397,10.1380906 C35.1210612,9.75117652 34.5457454,9.5577224 33.7853753,9.5577224 C33.1192102,9.5577224 32.5607166,9.72594337 32.1098776,10.0623904 C31.6590387,10.3988373 31.4336226,10.8059321 31.4336226,11.2836868 L29.5562578,11.2836868 C29.5562578,10.7386427 29.7497119,10.2121111 30.1366259,9.70407611 C30.52354,9.19604116 31.0483894,8.79399304 31.71119,8.49791969 C32.3739905,8.20184635 33.1023873,8.05381189 33.8964022,8.05381189 C35.1547139,8.05381189 36.1404888,8.36838511 36.8537564,8.99754097 C37.567024,9.62669683 37.9371102,10.4930348 37.9640259,11.5965809 L37.9640259,16.6230738 C37.9640259,17.6256858 38.0918739,18.4230532 38.3475736,19.0151999 L38.3475736,19.1766936 L36.3894619,19.1766936 Z M33.2908007,17.75353 C33.8762184,17.75353 34.4313476,17.6021311 34.9562049,17.2993289 C35.4810622,16.9965266 35.8612416,16.6028895 36.0967545,16.1184058 L36.0967545,13.8776801 L34.6332174,13.8776801 C32.3453779,13.8776801 31.2014753,14.5471996 31.2014753,15.8862586 C31.2014753,16.4716763 31.3966116,16.9292374 31.7868902,17.2589554 C32.1771687,17.5886735 32.6784671,17.75353 33.2908007,17.75353 Z M43.072683,5.61121898 L43.072683,8.25567907 L45.1115416,8.25567907 L45.1115416,9.69902943 L43.072683,9.69902943 L43.072683,16.4716734 C43.072683,16.9090545 43.1635223,17.2370854 43.3452037,17.4557759 C43.5268851,17.6744665 43.8364117,17.7838101 44.2737928,17.7838101 C44.4891188,17.7838101 44.7851877,17.7434371 45.1620084,17.6626898 L45.1620084,19.1766936 C44.6707958,19.3112724 44.1930482,19.3785608 43.7287514,19.3785608 C42.8943628,19.3785608 42.2652164,19.1262294 41.8412932,18.6215589 C41.41737,18.1168884 41.2054116,17.4002671 41.2054116,16.4716734 L41.2054116,9.69902943 L39.2170198,9.69902943 L39.2170198,8.25567907 L41.2054116,8.25567907 L41.2054116,5.61121898 L43.072683,5.61121898 Z M51.4717752,19.3785608 C49.9914084,19.3785608 48.7869463,18.8924022 47.8583526,17.9200704 C46.9297589,16.9477386 46.4654691,15.6473905 46.4654691,14.0189871 L46.4654691,13.6758129 C46.4654691,12.5924536 46.6723808,11.6251831 47.0862106,10.7739722 C47.5000404,9.9227613 48.0787206,9.25660626 48.8222684,8.77548707 C49.5658162,8.29436788 50.3715947,8.05381189 51.2396279,8.05381189 C52.6594342,8.05381189 53.7629638,8.52146619 54.5502497,9.45678881 C55.3375357,10.3921114 55.7311727,11.7311504 55.7311727,13.4739457 L55.7311727,14.2511344 L48.3327405,14.2511344 C48.3596563,15.3277648 48.6742295,16.1974672 49.2764696,16.8602677 C49.8787097,17.5230683 50.6441151,17.8544636 51.5727088,17.8544636 C52.2321449,17.8544636 52.7906385,17.7198868 53.2482064,17.4507292 C53.7057743,17.1815716 54.1061402,16.8249432 54.4493161,16.3808332 L55.5898657,17.2690488 C54.6747299,18.6753972 53.3020468,19.3785608 51.4717752,19.3785608 Z M51.2396279,9.58800248 C50.4859867,9.58800248 49.8534758,9.86220266 49.3420764,10.4106112 C48.830677,10.9590198 48.5144216,11.7277897 48.3933006,12.7169438 L53.8639013,12.7169438 L53.8639013,12.5756368 C53.8100698,11.6268563 53.5543739,10.8917306 53.096806,10.3702378 C52.6392381,9.84874498 52.0201849,9.58800248 51.2396279,9.58800248 Z M57.5897682,18.4499718 C57.5897682,18.2144589 57.6654676,18.0142759 57.8168688,17.8494169 C57.9682699,17.6845579 58.1785461,17.6021296 58.4477037,17.6021296 C58.7168613,17.6021296 58.9288197,17.6845579 59.0835853,17.8494169 C59.2383509,18.0142759 59.3157326,18.2144589 59.3157326,18.4499718 C59.3157326,18.6854847 59.2383509,18.8789388 59.0835853,19.0303399 C58.9288197,19.1817411 58.7168613,19.2574405 58.4477037,19.2574405 C58.1785461,19.2574405 57.9682699,19.1817411 57.8168688,19.0303399 C57.6654676,18.8789388 57.5897682,18.6854847 57.5897682,18.4499718 Z M69.1783618,19.1766936 C69.0572409,18.8335177 68.9798593,18.3254904 68.9462146,17.6525964 C68.5222914,18.2043695 67.982302,18.6299685 67.3262304,18.9294064 C66.6701588,19.2288442 65.9754062,19.3785608 65.2419518,19.3785608 C64.1922372,19.3785608 63.3427213,19.0858563 62.6933786,18.5004386 C62.0440359,17.9150208 61.7193694,17.1748486 61.7193694,16.2798996 C61.7193694,15.2167271 62.1617906,14.3756223 63.0466462,13.7565598 C63.9315017,13.1374973 65.1645614,12.8279708 66.7458623,12.8279708 L68.9361212,12.8279708 L68.9361212,11.5864876 C68.9361212,10.8059306 68.6955652,10.191924 68.214446,9.74444955 C67.7333268,9.29697505 67.0318454,9.07324116 66.1099806,9.07324116 C65.2688632,9.07324116 64.5724284,9.28856401 64.0206553,9.71921615 C63.4688822,10.1498683 63.1929999,10.6679889 63.1929999,11.2735935 L61.9817968,11.2635001 C61.9817968,10.3954669 62.3855271,9.64351913 63.1929999,9.00763433 C64.0004726,8.37174953 64.9929763,8.05381189 66.1705408,8.05381189 C67.3884789,8.05381189 68.3490206,8.35829185 69.0521948,8.96726089 C69.755369,9.57622994 70.1170441,10.4257458 70.1372309,11.5158341 L70.1372309,16.6836339 C70.1372309,17.7400775 70.2482568,18.530716 70.4703118,19.0555733 L70.4703118,19.1766936 L69.1783618,19.1766936 Z M65.3832588,18.3086648 C66.1907316,18.3086648 66.9123995,18.1135284 67.5482843,17.7232499 C68.1841691,17.3329714 68.6467768,16.8114864 68.9361212,16.1587793 L68.9361212,13.7565598 L66.7761423,13.7565598 C65.5716621,13.7700177 64.6296247,13.9903871 63.9500018,14.4176748 C63.2703789,14.8449625 62.9305725,15.4320537 62.9305725,16.178966 C62.9305725,16.7912995 63.1576708,17.2993268 63.6118743,17.7030632 C64.0660777,18.1067996 64.6565333,18.3086648 65.3832588,18.3086648 Z M74.3576724,19.1766936 L73.1464693,19.1766936 L73.1464693,8.25567907 L74.3576724,8.25567907 L74.3576724,19.1766936 Z M72.9345088,5.09645767 C72.9345088,4.86767372 73.008526,4.6742196 73.1565627,4.51608952 C73.3045994,4.35795943 73.5064645,4.27889558 73.7621642,4.27889558 C74.0178639,4.27889558 74.2214113,4.35795943 74.3728125,4.51608952 C74.5242136,4.6742196 74.599913,4.86767372 74.599913,5.09645767 C74.599913,5.32524162 74.5242136,5.51701352 74.3728125,5.67177914 C74.2214113,5.82654475 74.0178639,5.9039264 73.7621642,5.9039264 C73.5064645,5.9039264 73.3045994,5.82654475 73.1565627,5.67177914 C73.008526,5.51701352 72.9345088,5.32524162 72.9345088,5.09645767 Z" transform="translate(25.92 .8)"/>
    <g transform="translate(0 .56)">
      <g transform="translate(4.237 14.525)">
        <mask id="small-logo-c" fill="#fff">
          <use xlink:href="#small-logo-a"/>
        </mask>
        <path fill="url(#small-logo-b)" d="M7.30570091,0.00876521664 L5.5005226,3.15097016 L3.72724583,6.23757859 C2.95438128,7.58191239 1.54597833,8.3269558 0.10318153,8.31293146 C0.118135374,8.31343233 0.133089219,8.3146845 0.147793833,8.3146845 L10.8532514,8.31368276 C10.8706975,8.31368276 10.8878944,8.31293146 10.9050914,8.31293146 C10.9434729,8.31218015 10.9808575,8.31142885 11.0187406,8.30992624 C11.0498944,8.30842363 11.0810483,8.30717146 11.1124514,8.30516798 C11.148839,8.30266363 11.1847283,8.30015929 11.221116,8.2966532 C11.2552606,8.29414885 11.2884083,8.29064276 11.3215559,8.28688624 C11.3532083,8.28287929 11.3843621,8.2786219 11.4160144,8.27461494 C11.4548944,8.26935581 11.4937744,8.26384625 11.5326544,8.25708451 C11.557079,8.25332799 11.5815036,8.24856972 11.6051805,8.24381146 C11.651039,8.23554712 11.696399,8.2267819 11.7415098,8.21651408 C11.7582082,8.21275755 11.7749067,8.20850016 11.7918544,8.20524451 C11.8441928,8.19297321 11.8967805,8.17970017 11.9488697,8.16517495 C11.957842,8.1626706 11.9665651,8.16041669 11.9747897,8.15791234 C12.0351036,8.14088278 12.0944205,8.12310191 12.1539866,8.10306713 C12.1557313,8.10206539 12.1567282,8.10181495 12.158722,8.10131409 C12.4184205,8.01416279 12.6723866,7.8997141 12.919125,7.75721672 C13.0397527,7.68734543 13.1541496,7.61196456 13.2643096,7.53257674 C13.2695435,7.52907066 13.2745281,7.525815 13.2800112,7.52205848 C13.3256204,7.48824979 13.3707312,7.45394023 13.4145958,7.41862893 C13.4268081,7.40886197 13.4390204,7.39959588 13.4517311,7.38932806 C13.4871219,7.36102893 13.521765,7.33097676 13.5559096,7.30092459 C13.5753496,7.28439589 13.5947896,7.26811764 13.6127342,7.25133851 C13.6391527,7.2275472 13.6653219,7.20200286 13.6922388,7.17771069 C13.7154173,7.15492112 13.7403404,7.13213156 13.7642665,7.10859069 C13.7847034,7.08855591 13.8046419,7.06701852 13.8240819,7.04648287 C13.8507496,7.01868461 13.878165,6.99088635 13.9038357,6.96233679 C13.9222788,6.94205158 13.9394757,6.92176636 13.9579188,6.90022897 C13.984088,6.87042723 14.0095096,6.84162724 14.0339342,6.81132463 C14.0561157,6.78527942 14.0765526,6.7584829 14.097488,6.73243768 C14.1166788,6.70764464 14.1366172,6.6828516 14.1560572,6.65780812 C14.1872111,6.61523421 14.2183649,6.57165856 14.2475249,6.52858379 C14.2542542,6.51881683 14.2617311,6.50930031 14.2689588,6.49953335 C14.6413095,5.94832644 14.8745895,5.31597867 14.9548418,4.6605909 C14.9555895,4.65433003 14.9568356,4.6483196 14.9573341,4.64230917 C14.9635649,4.59122047 14.9675526,4.54013178 14.9717895,4.4897944 C14.9732849,4.4675057 14.9752787,4.44596831 14.9767741,4.42443092 C14.9792664,4.38486223 14.9805126,4.34554397 14.9825064,4.30722746 C14.9830049,4.27241702 14.9845002,4.23935964 14.9849987,4.20479964 C14.9849987,4.17374573 14.9849987,4.14269182 14.9845002,4.11113704 C14.9840018,4.07106748 14.9830049,4.03074748 14.9815095,3.99092835 C14.9805126,3.96237879 14.9782695,3.93357879 14.9772726,3.90578053 C14.9742818,3.86571097 14.9717895,3.82489011 14.968051,3.78532141 C14.9655587,3.75501881 14.9625679,3.72546751 14.9600756,3.69616664 C14.9548418,3.65910229 14.9508541,3.62178751 14.9451218,3.58547447 C14.9406356,3.55266752 14.9363987,3.51961013 14.9309156,3.48630231 C14.9251833,3.45499796 14.919451,3.42369362 14.9139679,3.39163797 C14.9062418,3.35382232 14.8992633,3.31575624 14.8910387,3.27769015 C14.8858049,3.25239624 14.8798233,3.22710233 14.8735926,3.20281016 C14.8633741,3.15873364 14.8521587,3.11490756 14.8409433,3.07133191 C14.8364572,3.05204843 14.8307249,3.03351626 14.8252418,3.01473365 C14.8107864,2.96514757 14.7960818,2.91631279 14.780131,2.86697714 C14.7761433,2.85420497 14.771408,2.8414328 14.7674203,2.82841019 C14.7484787,2.77431628 14.7300357,2.72047281 14.708851,2.66662934 C14.705611,2.65861542 14.7021218,2.65035108 14.6993803,2.64158586 C14.676451,2.58473717 14.6525249,2.52688674 14.6276018,2.47003805 C14.6248603,2.46452848 14.6228664,2.45977022 14.6203741,2.45451109 C14.5942049,2.39540849 14.5657926,2.33730762 14.5366326,2.2794572 C14.5341403,2.2744485 14.5313987,2.26969024 14.5289064,2.26493198 C14.5002449,2.20858416 14.4690911,2.15223634 14.4374388,2.09638938 C13.7251373,0.848723405 12.3872666,0.00876521664 10.8530021,0.00876521664 L7.30570091,0.00876521664 Z" mask="url(#small-logo-c)"/>
      </g>
      <path fill="#8DC63F" d="M7.19763446 1.08550947C7.2255483 1.06347121 7.25346214 1.04193382 7.28187445 1.0208973 7.25346214 1.04193382 7.2255483 1.06347121 7.19763446 1.08550947M7.35497383.968105656C7.38837075.944564788 7.42176767.92152479 7.45591228.898985662 7.42176767.921274355 7.38837075.944564788 7.35497383.968105656M12.1092248.961268787C12.139631.982555741 12.1700371 1.004594 12.200194 1.02713313 12.1700371 1.004594 12.139631.982806176 12.1092248.961268787M6.77546249 1.46456753C6.78219172 1.45755535 6.78941942 1.45004231 6.79639788 1.44303014 6.78941942 1.45004231 6.78219172 1.45755535 6.77546249 1.46456753M6.90957356 1.33251328C6.92353048 1.31949067 6.93723817 1.30646806 6.95119509 1.29369589 6.93723817 1.30646806 6.92353048 1.31949067 6.90957356 1.33251328M7.05001509 1.20656964C7.07095047 1.1882879 7.09188585 1.17000616 7.1133197 1.15272616 7.09188585 1.17000616 7.07095047 1.1882879 7.05001509 1.20656964M12.2652433 1.0769446C12.3001356 1.10349069 12.3340309 1.13103851 12.3681756 1.1590872 12.3345294 1.13103851 12.3001356 1.10349069 12.2652433 1.0769446M11.8040168.764877847C11.7898107.756863935 11.776103.749601327 11.7616476.741587414 11.7918045.758616978 11.821463.776147411 11.850623.793677845 11.8351707.784411759 11.8197184.773893499 11.8040168.764877847M9.6405444.209213199C9.67792901.208461895 9.71606132.208962765 9.75369516.209213199 9.71606132.208962765 9.67792901.20821146 9.6405444.209213199M11.3776079.550405518C11.4222202.56943856 11.4660849.590224645 11.5101987.61101073 11.4660849.58997421 11.4222202.569688994 11.3776079.550405518M7.52315474.855359926C7.55904396.832319928 7.59568088.810031235 7.6323178.787992976 7.59593012.8097808 7.55904396.832319928 7.52315474.855359926M11.572307.641138032C11.607947.658668465 11.6425901.677200637 11.6774824.695983244 11.6425901.677200637 11.6074485.658668465 11.572307.641138032M8.28654852.472870916C8.29103467.471368307 8.29502236.469865699 8.29901005.46836309 8.29502236.469865699 8.29103467.471368307 8.28654852.472870916M9.83025885.209213199C10.3526465.221734937 10.8675572.33392971 11.3470772.537533171 10.8558434.327668841 10.3414311.220232329 9.83025885.209213199M7.89420947.645044814C7.92087716.631270902 7.94779408.618749164 7.97471101.605976991 7.94779408.618749164 7.92087716.631270902 7.89420947.645044814M8.08965623.55308517C8.10585623.546072996 8.12205622.539311258 8.13825622.532549519 8.12205622.539311258 8.10585623.546323431 8.08965623.55308517M7.70364764.746771414C7.73779226.727487937 7.77193687.708955765 7.80657994.690674027 7.77193687.708955765 7.73779226.727487937 7.70364764.746771414M11.9417916.849499753C11.9699547.867531056 11.998367.886063228 12.02653.9045954 11.998367.886063228 11.9699547.867531056 11.9417916.849499753M1.53882541 16.6877954C1.51789002 16.6680111 1.49695464 16.6479763 1.47626849 16.628192 1.49695464 16.6479763 1.51789002 16.6680111 1.53882541 16.6877954M3.0832585 17.619588C3.08251081 17.619588 3.08176312 17.6190872 3.08126466 17.6185863 3.08176312 17.6190872 3.08251081 17.6190872 3.0832585 17.619588M3.28830064 17.6816959C3.28032526 17.6796924 3.27234987 17.6774385 3.26437449 17.675435 3.27234987 17.6774385 3.28032526 17.6796924 3.28830064 17.6816959M.252994132 13.6277832C.253741824 13.5877136.254738747 13.5481449.256234132 13.5088267.254738747 13.5481449.253741824 13.5877136.252994132 13.6277832M1.81798877 16.9316187C1.80801954 16.9241057 1.79829954 16.9165926 1.78882877 16.9088292 1.79829954 16.9165926 1.80801954 16.9241057 1.81798877 16.9316187M3.91638705 17.8034823C3.88473474 17.7999762 3.8535809 17.7957188 3.82217782 17.791211 3.8535809 17.7957188 3.88473474 17.7999762 3.91638705 17.8034823M3.70498953 17.7736555C3.68106338 17.7696486 3.65738645 17.7653912 3.63321107 17.7608833 3.65738645 17.7653912 3.68106338 17.7696486 3.70498953 17.7736555M.260545824 13.4216253C.2627889 13.382307.2660289 13.3422375.2692689 13.3029192.2660289 13.3427383.2627889 13.382307.260545824 13.4216253M3.49556093 17.73306C3.47961016 17.7300548 3.46390862 17.7262983 3.44795786 17.7220409 3.46390862 17.7262983 3.47961016 17.7300548 3.49556093 17.73306M1.96839952 17.0463178C1.96615645 17.0443144 1.96366414 17.0428118 1.96142106 17.0410587 1.96366414 17.0428118 1.96615645 17.0443144 1.96839952 17.0463178M1.27012974 16.4060563C1.24844666 16.3810129 1.22626513 16.3562198 1.20483128 16.3306755 1.22626513 16.3562198 1.24844666 16.3810129 1.27012974 16.4060563M1.40508819 16.5542636C1.3816605 16.5302219 1.35848204 16.5059297 1.33580204 16.4808862 1.35848204 16.5059297 1.3816605 16.5302219 1.40508819 16.5542636M.282702437 14.1761101C.281954745 14.170851.281207053 14.1653414.28045936 14.1603327.281207053 14.1653414.281954745 14.170851.282702437 14.1761101M1.1285916 16.2346087C1.11388698 16.2148243 1.09793621 16.1960417 1.08348083 16.1767583 1.09793621 16.1957913 1.11388698 16.2148243 1.1285916 16.2346087M.976959608 16.0269732C.975214993 16.023968.972473455 16.0217141.97072884 16.018208.972473455 16.0217141.975214993 16.023968.976959608 16.0269732M1.67525432 16.8125119C1.65955278 16.798738 1.64285432 16.7847137 1.62740201 16.7709398 1.64285432 16.7847137 1.65905432 16.798738 1.67525432 16.8125119M.255436593 13.8234479C.25419044 13.7896392.253442747 13.7563313.252944286 13.7227731.253442747 13.7558305.25419044 13.7896392.255436593 13.8234479M.265655054 14.0053887C.26415967 13.9846026.262664285 13.9633157.26091967 13.9417783.262664285 13.9633157.26415967 13.9846026.265655054 14.0053887M.701559632 11.794776C.703553478 11.7910195.705547324 11.787263.707042708 11.7840073.705547324 11.787263.703553478 11.7910195.701559632 11.794776M12.4129872 1.19702807C12.4523657 1.23058633 12.4914949 1.26489589 12.5298765 1.29995676 12.4914949 1.26514633 12.4528642 1.23083676 12.4129872 1.19702807M6.6456382 1.60471082C6.64688435 1.60320821 6.6481305 1.60195604 6.64912743 1.60045343 6.6481305 1.60195604 6.64688435 1.60320821 6.6456382 1.60471082M.610665178 11.9857826C.612659024 11.9812748.61465287 11.9770174.616646716 11.97276.61465287 11.9770174.612659024 11.9812748.610665178 11.9857826M.529615339 12.1821485C.532356877 12.1751363.534849185 12.1678737.537839954 12.1606111.534849185 12.1678737.532356877 12.1751363.529615339 12.1821485M12.5531795 1.32199502C12.5975426 1.36381762 12.6414072 1.4061411 12.6845241 1.45021761 12.6416565 1.40639153 12.5980411 1.36381762 12.5531795 1.32199502M13.3704819 2.38145927C13.1892912 2.04512539 12.9602481 1.73258281 12.6880881 1.45359848 12.925605 1.69752194 13.1372019 1.97525409 13.3149035 2.28454102L13.3704819 2.38145927zM4.33330024 17.8294023C4.29491871 17.8289014 4.25703563 17.8278997 4.21915256 17.8266475 4.25703563 17.8278997 4.29491871 17.8289014 4.33330024 17.8294023M.278315976 13.2125123C.282303668 13.1759488.287039052 13.1396357.292272898 13.1035731.287039052 13.1401366.282303668 13.1759488.278315976 13.2125123M4.12606488 17.8220896C4.08967719 17.8193348 4.0532895 17.8168305 4.01690181 17.8135748 4.0532895 17.8168305 4.08992642 17.8193348 4.12606488 17.8220896M.307276589 13.002673C.312011973 12.9718695.317993511 12.9408156.323476588 12.9097617.317993511 12.9408156.312011973 12.9718695.307276589 13.002673M.346455662 12.7943112C.351938739 12.7697686.357920277 12.745226.363403353 12.720433.357920277 12.745226.351938739 12.7697686.346455662 12.7943112M.457936576 12.383448C.461924268 12.3714271.46591196 12.3594062.469899652 12.3473854.46591196 12.3594062.461924268 12.3714271.457936576 12.383448M.396974735 12.587402C.40195935 12.5693707.407442426 12.5515899.412177811 12.5335586.406943965 12.5515899.40195935 12.5693707.396974735 12.587402" transform="translate(0 5.009)"/>
      <g transform="translate(.25 7.263)">
        <mask id="small-logo-f" fill="#fff">
          <use xlink:href="#small-logo-d"/>
        </mask>
        <path fill="url(#small-logo-e)" d="M0.55653226,9.34722702 C0.554787645,9.35073311 0.55329226,9.35423919 0.551547645,9.35749485 C0.518649186,9.41459397 0.487495343,9.47219397 0.457836884,9.5300444 C0.456341499,9.53330005 0.454347653,9.53705657 0.452353807,9.54131396 C0.422695348,9.59966526 0.394283043,9.65876786 0.367366122,9.71887221 C0.365621507,9.7231296 0.36337843,9.72738699 0.361633815,9.73189481 C0.335713817,9.78999568 0.311787665,9.84784611 0.288609206,9.90669828 C0.285369206,9.91396089 0.282876899,9.92122349 0.280384591,9.92823567 C0.258950747,9.98308088 0.239759979,10.0379261 0.220319981,10.0935226 C0.21658152,10.1055435 0.212843059,10.1175643 0.208855367,10.1295852 C0.192156907,10.1789209 0.177203062,10.2297591 0.162747678,10.2798461 C0.158012294,10.2978774 0.152778448,10.3154078 0.147793833,10.3334391 C0.135581527,10.3775156 0.124864605,10.4223435 0.114147682,10.4666704 C0.108664606,10.491213 0.102683068,10.5160061 0.0971999916,10.5402982 C0.0887261462,10.5788652 0.0812492238,10.6176826 0.0742707628,10.6557486 C0.0687876864,10.6868026 0.0628061484,10.7178565 0.0580707642,10.7489104 C0.0525876878,10.7824686 0.0473538421,10.8165278 0.0428676886,10.8498356 C0.0378830737,10.8856478 0.0331476895,10.9222112 0.0294092282,10.9587747 C0.0259199978,10.9888269 0.022679998,11.0193799 0.0201876906,11.0491817 C0.0166984601,11.0882495 0.0137076911,11.128319 0.0114646144,11.1676373 C0.00947076842,11.1969382 0.00822461468,11.2259886 0.00722769169,11.255039 C0.00548307645,11.2941069 0.00473538421,11.3336755 0.00373846122,11.3737451 C0.00373846122,11.4052999 0.00348923047,11.4371051 0.00373846122,11.4686599 C0.00423692271,11.5024686 0.00498461496,11.5357764 0.00623076869,11.5698355 C0.00797538393,11.6086529 0.00947076842,11.6487225 0.0114646144,11.6877903 C0.0137076911,11.7095781 0.0149538449,11.7306146 0.0164492294,11.7514007 C0.0206861521,11.8027399 0.0251723055,11.8545798 0.0311538435,11.9061694 C0.0319015357,11.9114285 0.032649228,11.9169381 0.0336461509,11.9221972 C0.112901529,12.5790876 0.347178432,13.212938 0.721523015,13.7643953 C0.72326763,13.767651 0.726009168,13.7701553 0.727753783,13.7731606 C0.762147627,13.8237484 0.797538393,13.8733345 0.834175313,13.9229205 C0.848879927,13.9419536 0.864332233,13.9609866 0.879535309,13.980771 C0.904707614,14.0128266 0.929381458,14.0448823 0.955799918,14.0766875 C0.976984531,14.1022318 0.999166068,14.1272753 1.02084914,14.1523188 C1.04278145,14.1773623 1.06396606,14.2024057 1.08664606,14.2271988 C1.10932606,14.2519918 1.13250452,14.2765344 1.15568298,14.3003257 C1.17960913,14.3248683 1.20278759,14.3496614 1.2272122,14.374204 C1.24739989,14.3939883 1.26858451,14.4142735 1.28976912,14.4340579 C1.31867989,14.4616057 1.34759065,14.489404 1.37824604,14.5169518 C1.39319988,14.5307257 1.4103968,14.5447501 1.42609834,14.558524 C1.46348295,14.5913309 1.50086756,14.623637 1.5392491,14.6549413 C1.5489691,14.6627048 1.55893833,14.6702179 1.56865833,14.6777309 C1.61551371,14.7150457 1.66286755,14.75211 1.71196601,14.7871709 C1.71445831,14.7889239 1.71670139,14.790677 1.7191937,14.79243 C1.8310983,14.8735709 1.94773829,14.9489518 2.06961213,15.0195744 C2.3165998,15.1630735 2.57156286,15.2777726 2.83200899,15.3646735 C2.83250745,15.3651743 2.83325514,15.3656752 2.83400283,15.3656752 C2.89381821,15.3859604 2.95463051,15.4037413 3.01519359,15.4215222 C3.02316897,15.4237761 3.03089512,15.4262804 3.03911974,15.427783 C3.09195666,15.4430595 3.14529204,15.4560821 3.19887665,15.468103 C3.21457818,15.4723604 3.23027972,15.4761169 3.24623049,15.4791221 C3.29208895,15.4896404 3.3379474,15.4989065 3.38405509,15.5071708 C3.40773201,15.5114282 3.4319074,15.5159361 3.45583355,15.5196926 C3.49496278,15.5267048 3.53384277,15.5327152 3.572972,15.537223 C3.60437507,15.5417308 3.63552892,15.5459882 3.66718122,15.5497447 C3.70032891,15.5535013 3.73397506,15.5567569 3.76762121,15.5595117 C3.8040089,15.5627674 3.84039659,15.5655221 3.87678428,15.5682769 C3.90793813,15.5702804 3.93909197,15.5715326 3.96974735,15.5727847 C4.00787965,15.5740369 4.04576273,15.5747882 4.08414426,15.5755395 C5.52943337,15.5920682 6.94082709,14.8470248 7.7149378,13.5001867 L9.48821457,10.4135782 L7.68303626,7.27137329 L5.90801488,4.18376312 C5.16131956,2.88450758 5.19297186,1.34834075 5.85742103,0.120709555 L0.55653226,9.34722702 Z" mask="url(#small-logo-f)"/>
      </g>
      <g transform="translate(5.483)">
        <mask id="small-logo-i" fill="#fff">
          <use xlink:href="#small-logo-g"/>
        </mask>
        <path fill="url(#small-logo-h)" d="M0.37010766,0.142747814 C0.231784595,0.142747814 0.120378451,0.255193022 0.120378451,0.394434749 C0.120378451,0.532925172 0.231784595,0.645620814 0.37010766,0.645620814 L0.972996839,0.645620814 L0.972996839,6.8521455 C0.866326079,6.99213853 0.765387626,7.13714026 0.675664557,7.29366198 L0.623575331,7.38331763 C-0.0408738426,8.61094882 -0.0725261476,10.1471156 0.674169173,11.4463712 L2.44919056,14.5339814 L6.05954717,14.5339814 L9.6068484,14.5339814 C11.1411129,14.5339814 12.4789835,15.3739395 13.191285,16.6216055 C13.1897896,16.617849 13.1872973,16.6133412 13.1853035,16.6098351 L7.88740547,7.39007936 L7.83207625,7.29341155 C7.74509472,7.14164808 7.64939011,6.99789853 7.54745473,6.86166202 L7.54745473,0.645620814 L8.055387,0.645620814 C8.19346083,0.645620814 8.3058639,0.532925172 8.3058639,0.394434749 C8.3058639,0.255193022 8.19346083,0.142747814 8.055387,0.142747814 L0.37010766,0.142747814 Z" mask="url(#small-logo-i)"/>
      </g>
    </g>
  </g>
</svg>
