<svg xmlns="http://www.w3.org/2000/svg" xmlns:xlink="http://www.w3.org/1999/xlink" viewBox="0 0 217 410">
  <defs>
    <polygon id="strategic-illustration-a" points="1.333 1.333 2.667 1.333 2.667 2.667 1.333 2.667"/>
    <polygon id="strategic-illustration-c" points=".46 .533 74.282 .533 74.282 52.92 .46 52.92"/>
  </defs>
  <g fill="none" fill-rule="evenodd" transform="matrix(-1 0 0 1 218 0)">
    <path fill="#F4E7D0" d="M218,399.001132 C218,405.077667 175.020142,410 122.001142,410 C68.9821426,410 26,405.077667 26,399.001132 C26,392.924596 68.9821426,388 122.001142,388 C175.020142,388 218,392.924596 218,399.001132"/>
    <path fill="#30193B" d="M97.2738716,398 C97.7715857,398.947546 97.9702147,400.322374 97.9998949,401.261064 C98.0455568,402.456567 83.1917577,403.634358 83.002261,402.607111 C82.8858233,401.145942 87.2921916,398.905482 90.3127228,398.192609 C88.3538296,398.599965 88.7990326,399.441244 90.0958291,399.731264 C92.0181929,400.156332 96.1140606,399.379255 97.2738716,398"/>
    <path fill="#FF97A6" d="M90.2744291,399.229895 C90.3422058,399.21332 90.4099825,399.194376 90.4821319,399.161225 C92.0322507,398.772879 93.2784676,398.098011 93.5736242,397.939358 C93.9540483,397.726242 94.2032917,397.269226 94.3475905,396.864305 C94.5093801,396.459384 94.5705977,396.12787 94.5705977,396.12787 L96.079176,396 C96.079176,396 96.1207166,396.168125 96.1906797,396.409657 C96.5885945,397.759393 97.1920258,399.918971 96.9405961,399.023883 C95.8299327,400.499121 91.9076291,401.330274 90.0667263,400.875626 C88.8248821,400.565424 88.3985447,399.6656 90.2744291,399.229895"/>
    <path fill="#30193B" d="M159.869922,378 C160.94113,378.248876 162.159141,379.006922 162.922979,379.605139 C163.902434,380.367751 155.234138,392.519316 154.293677,391.982747 C153.621592,392.037546 154.133111,386.240322 155.520864,383.457016 C154.575815,385.22655 155.532333,385.445744 156.601247,384.642033 C158.18168,383.452449 160.211699,379.803784 159.869922,378"/>
    <path fill="#FF97A6" d="M154.358577,384.336452 C154.394975,384.271217 154.431373,384.201322 154.453212,384.122108 C155.253963,382.614708 155.617941,381.170213 155.702869,380.827728 C155.809636,380.38273 155.625221,379.891136 155.414113,379.516033 C155.215139,379.126951 154.994325,378.86834 154.994325,378.86834 L152,372 C152,372 154.584244,372.312197 156.404133,375.939743 C157.527612,378.174051 158.699621,378.721561 158.959259,378.768158 C159.323237,380.608724 157.17334,384.334123 155.503895,385.547964 C154.373136,386.363405 153.361278,386.142071 154.358577,384.336452"/>
    <path fill="#FF97A6" d="M57.002077,247.959602 C56.8583691,238.21785 64.2102851,202.613769 67.1277846,196.858213 C67.1277846,196.858213 87.4385077,196.294301 92.7397341,192.719053 C96.1796005,190.356102 98.4492736,188.490855 98.6180735,188 C102.703485,189.646075 104.612748,196.545436 113.791808,209.314505 C120.876838,219.174975 130.664946,307.515105 130.664946,307.515105 C130.664946,307.515105 155.097577,370.216643 156.999997,380.070264 C157.002278,380.106793 155.718031,381.047407 155.718031,381.047407 C155.718031,381.047407 118.454332,331.635472 110.60286,313.839138 C103.670662,298.131791 89.5165702,248.473287 89.5165702,248.473287 L96.2024113,396.126917 C96.309622,397.782124 94.6033753,396.738773 94.4436998,395.823272 C91.8638,381.161559 80.7002017,343.749306 71.2291637,309.736507 C63.6400155,282.479237 57.1343796,257.404558 57.002077,247.959602"/>
    <path fill="#FF5E4D" d="M78.300342,121.354287 C77.6607135,121.638384 77.1166878,122.10806 76.4793356,122.412777 C75.9239287,122.690001 75.3321016,122.797682 74.8290486,123.200917 C74.2053539,123.718706 73.8502576,124.410619 73.606698,125.18043 C73.5384103,125.400376 73.5543441,125.613448 73.5042664,125.810483 C73.4678463,125.897545 73.4314262,125.986898 73.4154924,126.076251 C73.2720881,126.708596 73.1423414,127.576924 73.4223211,128.220724 C73.517924,128.924093 73.738721,129.616006 74.0414633,130.259806 C74.3533107,131.329751 71.1847595,134.390665 72.2022469,142.061279 C73.8661914,147.028391 81.1297307,151.124883 86.1784709,147.789037 C88.4592814,146.290655 87.2414834,140.409393 87.1344993,138.356565 C86.8932159,133.584197 85.8302034,128.658325 84.220889,124.117358 C85.7414294,125.65927 86.8977684,127.806034 87.5351207,129.501451 C87.6170659,129.751181 88.0381737,129.677866 87.997201,129.402933 C87.4645567,125.618031 82.791399,119.457254 78.300342,121.354287"/>
    <path fill="#3B2B5B" d="M70.0476293,185.976967 C70.0476293,185.976967 54.8623579,207.991456 55.0009428,228.14534 C55.1395277,248.301508 63.8794648,284 63.8794648,284 C63.8794648,284 93.7501931,281.799236 107.538256,278.906738 L105.972928,257.451572 L112.609101,278.064329 L131,270.583102 C131,270.583102 130.706927,238.93228 124.886361,219.572862 C119.063522,200.213445 111.10057,190.209557 101.008862,183 L70.0476293,185.976967 Z"/>
    <path fill="#30193B" d="M106.995885,257.400696 L113.622962,278 L132,271.376921 C132,271.376921 131.695985,238.895773 125.881127,219.54671 C120.068538,200.202209 112.116499,190.20257 102.036353,183 L89,184.914145 C89,184.914145 96.7909566,202.79623 100.389226,213.208814 C104.280167,224.476945 106.995885,257.400696 106.995885,257.400696"/>
    <path fill="#FF97A6" d="M122.229328 112.740577C122.665202 112.641826 121.946529 112.192744 121.959501 111.809497 121.99323 110.831392 122.916867 109.347777 122.999891 107.509129 122.999891 107.509129 123.010269 105.085028 122.828655 104.342045 122.657419 103.627276 122.050309 102.162471 122.050309 102.162471 122.050309 102.162471 121.510655 101.760414 121.051431 102.221251 120.776415 102.496343 120.638908 103.970554 120.498805 105.599944 120.382053 106.944838 119.5129 108.623603 118.37392 108.158063 118.37392 108.158063 117.569629 106.641531 117.094838 106.996564 116.620047 107.349246 118.031448 110.394067 119.03292 111.007733 119.03292 111.007733 119.839805 111.562619 120.127794 112.550129 120.350919 113.307219 121.443199 112.919269 122.229328 112.740577M1.00707754 95.7047453C1.00707754 95.7047453.901260396 95.1275066 1.50794538 95.0059826 2.11463036 94.8822886 5.00226277 96.7051477 5.92404771 97.8357544 5.92404771 97.8357544 4.96934188 96.5619231 5.48902165 96.3774671 6.00870143 96.1930111 8.02157874 98.6104695 8.10623246 99.6173821 8.10623246 99.6173821 8.79286818 100.552682 8.95276964 101.119071 9.15264648 101.820004 8.68469953 102.247507 8.17677722 102.733603 7.89459816 103.004862 7.47603255 103.076474 7.13976917 102.913719 6.27442004 102.492725 4.23332482 101.501003 2.60138925 100.721948"/>
    <path fill="#725CB7" d="M131.663905,126.594583 C132.029074,137.918705 132.340747,145.263897 131.21733,156.125671 C129.810151,169.72965 120.201795,168.249223 119.880819,164.083531 C119.366792,157.483108 118.75275,149.566244 117.808428,145.115854 C115.812793,135.723119 112.691415,125.956861 112.049462,121.588464 C111.193525,115.76925 121.729921,111 121.729921,111 C121.729921,111 131.324322,116.097222 131.663905,126.594583"/>
    <g transform="translate(0 407)">
      <mask id="strategic-illustration-b" fill="#fff">
        <use xlink:href="#strategic-illustration-a"/>
      </mask>
      <path fill="#3B2B5B" mask="url(#strategic-illustration-b)"/>
    </g>
    <path fill="#FF97A6" d="M83.1266504,134 C83.1266504,134 85.3658444,142.546423 84.9480435,143.558771 C84.527512,144.571119 82.6924652,146.01274 81.2533735,143.951314 C79.8197432,141.889889 80.0081632,134.247922 80.0081632,134.247922 L83.1266504,134 Z"/>
    <path fill="#C95D77" d="M83,137.011977 C82.0400296,138.980627 80.2276486,139.281205 79.1439846,138.79649 C78.9154202,136.941571 79.0337359,136.914492 79.0095349,135.338489 L82.5616942,135 C82.8574834,136.45144 82.7203448,135.314118 83,137.011977"/>
    <path fill="#FF97A6" d="M74.1723235,132.204694 C73.6709483,130.833845 74.2782479,125.646121 75.8035584,124.721022 C78.7082392,122.962662 85.7039533,124.848699 86.9515067,125.847717 C88.3214615,126.943052 88.0225194,128.909728 87.8365634,130.379135 C87.6506073,131.841822 86.7302425,134.408805 85.541536,135.50862 C84.4564,136.512117 81.6741207,137.172902 80.1911799,136.960107 C75.7400038,136.319482 74.6407445,135.127828 74.1723235,132.204694"/>
    <path fill="#D3E7F2" d="M59,147.408937 C62.3034348,145.43411 70.8621258,142.498246 81.3634747,140.972974 C84.8639243,140.468372 88.5797157,140.115151 92.3894328,140.00735 C92.4673224,140.005056 92.5475029,140.002762 92.6231016,140.002762 C100.2265,139.846795 106.306469,146.317163 105.988038,153.925178 C105.502374,165.487435 104.83344,182.084239 104.867803,185.02469 C97.2277507,190.731274 97.2277507,190.634941 88.927928,192.173976 C76.1219637,194.550191 73.0728155,191.272574 70.9148158,188.978931 C69.5838202,183.357211 62.9059337,175.561117 62.0583117,167.618229 C60.6448448,154.351796 59,147.408937 59,147.408937"/>
    <path fill="#7F65C1" d="M28.6104886,127.393754 C21.5937566,116.504581 39.7776774,122.823019 39.7776774,122.823019 C39.7776774,122.823019 53.5312846,139.428539 68.9866016,144.060186 C73.4439981,145.400248 61.7532063,159 61.7532063,159 C61.7532063,159 38.2068683,142.286713 28.6104886,127.393754"/>
    <path fill="#7F65C1" d="M45.2649391,137.48329 C38.5959807,141.749955 1.96516922,118.610171 6.36575871,104.239342 C8.00415333,98.8961935 13.0601007,99.0001458 13.0601007,99.0001458 C13.0601007,99.0001458 56.0460372,130.587787 45.2649391,137.48329"/>
    <path fill="#725CB7" d="M119.81431,167.433552 C95.2271405,157.818482 87.5460696,152.34936 82.3972699,146.701553 C79.9970776,144.068774 89.0626997,138.631318 93.7811043,140.318648 C104.837019,144.272339 121.827375,155.18118 125.74192,157.648844 C130.428443,160.600542 127.515876,170.446319 119.81431,167.433552"/>
    <path fill="#2A6B4F" d="M78.1880492,140.2611 C78.1880492,140.2611 85.168717,138.956925 86.675454,138 L89,140.351226 L77,142 L78.1880492,140.2611 Z"/>
    <path fill="#7F65C1" d="M103.062011,183.353862 C103.153933,178.387542 103.735344,164.103396 104.171976,153.826917 C104.493705,146.27383 98.3946418,139.8479 90.7650676,140.002741 C90.6892315,140.002741 90.6110973,140.005019 90.5329631,140.007296 C86.7112818,140.114319 82.9838212,140.462712 79.4700805,140.965948 C68.9380508,142.480209 60.3524818,145.392599 57.0386727,147.353168 C57.0386727,147.353168 56.4227915,154.685378 60.1065889,167.416553 C63.5008302,179.145811 65.4335024,180.814914 67.9383928,185.703813 C66.3159592,190.105416 59.2769876,203.442295 57.9647927,209.317171 C57.9647927,209.317171 78.7163154,216.881643 98.1809218,210.328196 C117.645528,203.777026 116.997474,200.57317 116.997474,200.57317 C116.997474,200.57317 113.320571,191.98401 103.062011,183.353862"/>
    <path fill="#725CB7" d="M103.006923,183.153687 C103.101516,178.006973 103.731367,162.816121 104.174339,152.531757 C104.460425,145.923295 99.2601177,140.257603 92.5301722,140.02191 C91.8449498,139.996981 91.1412702,139.992449 90.428362,140.012845 C88.2573375,140.071768 86.1209201,140.210011 84.0306456,140.409443 C83.6061307,140.44797 87.7082367,152.033176 89.1409745,163.811016 C90.522955,175.165062 89.2263389,186.729872 89.2263389,186.729872 L98.1065446,210 C98.1065446,210 100.475984,209.195472 101.5465,208.812471 C117.56963,203.092389 116.997458,200.291271 116.997458,200.291271 C116.997458,200.291271 113.306024,191.742875 103.006923,183.153687"/>
    <path fill="#FF5E4D" d="M104.06795,145.482827 C103.464506,144.196755 103.608076,140.100549 103.107824,138.690904 C101.093355,133.013425 97.9684606,134.297208 97.9684606,134.297208 C97.9684606,134.297208 98.192789,127.219238 96.4520007,124.287818 C93.3876749,119.056574 88.2213921,117.967303 83.0573526,119.880392 C80.2689508,120.914741 78.1490475,119.722493 77.4536295,122.633317 C77.4468996,122.548647 77.4132504,122.491437 77.3818444,122.409056 C77.3437086,122.294636 77.1754623,122.308367 77.1552727,122.425074 C76.580992,124.287818 77.7071206,126.16887 78.777167,127.647165 C79.8113208,129.07054 80.7893926,130.44357 81.7113823,131.876098 C82.3193122,133.619846 80.1702463,135.601587 80.4708463,137.455177 C80.634606,138.542159 81.5094867,139.313345 82.5369108,139.411745 C80.7804195,142.949586 82.5974794,147.723154 85.9108097,149.727778 C81.890845,155.229052 78.3913221,162.075896 82.1510659,168.725938 C86.2360859,175.902309 92.3826837,176.208952 98.935316,173.204305 C99.2919981,173.064713 101.288521,171.801526 101.050733,171.673376 C114.440894,173.213458 115.672457,150.160283 104.06795,145.482827"/>
    <path fill="#FF7166" d="M88,174 C85.8252704,172.94833 83.9491252,171.294718 82.5314366,169.304386 C81.151365,167.288686 80.3284943,164.841708 80.3190901,162.367055 C80.3120369,161.123963 80.4460473,159.915465 80.7399296,158.651617 C81.1184501,157.496164 81.5533961,156.375305 82.0353632,155.263671 C83.0204569,153.061161 84.1254547,150.86557 85.9028553,148.983634 L86.0368657,150.189826 C85.0893889,149.54637 84.3323479,148.840644 83.6481897,147.998847 C82.9757868,147.161662 82.4185858,146.220695 82.0424164,145.203619 C81.6497895,144.186544 81.4805132,143.079523 81.5463429,141.995565 C81.5628003,140.900075 81.8990018,139.862243 82.2704691,138.868231 L82.8911487,139.836874 C82.3033839,139.772298 81.8402253,139.617776 81.3488539,139.315652 C80.87394,139.013527 80.4719089,138.503836 80.3096858,137.94802 C80.0275587,136.822548 80.4084303,135.858518 80.7893019,135.074378 C81.1208012,134.354814 81.4264389,133.577593 81.5980662,132.830354 C81.6827043,132.472879 81.7250234,132.05544 81.6638958,131.86863 C81.6121725,131.727946 81.2383542,131.31512 80.991493,131.019914 C79.8817931,129.737615 78.8097102,128.381514 77.9962437,126.866279 C77.5801063,126.114428 77.250958,125.304919 77.0793307,124.460815 C76.9030013,123.621324 77.0064479,122.680357 77.5330851,122 C77.0957881,122.747239 77.1545646,123.619018 77.3826173,124.38932 C77.6224253,125.168847 78.005648,125.904555 78.4758598,126.587218 C79.4092302,127.957156 80.5518449,129.174879 81.708566,130.397215 C82.0024483,130.745465 82.2869265,130.902293 82.625479,131.504236 C82.8417764,132.120016 82.743032,132.572049 82.6866065,133.028696 C82.5337877,133.92815 82.265767,134.739965 81.9413208,135.565618 C81.6145236,136.282876 81.4899175,137.03934 81.6427363,137.55595 C81.7649914,138.040271 82.3715646,138.370071 82.98284,138.430035 C83.3895732,138.469242 83.6858066,138.824411 83.6434876,139.2234 C83.6411365,139.276445 83.6293812,139.32949 83.6129238,139.377922 L83.6035196,139.400985 C83.3072861,140.268151 83.0322122,141.151461 83.0439675,142.04861 C83.0063506,142.943451 83.1568183,143.838293 83.500073,144.670865 C83.8292212,145.50805 84.3111883,146.294496 84.9060063,147.002528 C85.4984732,147.69211 86.2061419,148.381692 86.9114597,148.875238 L86.9373213,148.893689 C87.2970333,149.149687 87.3793204,149.638622 87.1207039,149.993791 L87.04547,150.083736 C85.49142,151.654322 84.3464542,153.741518 83.3707647,155.840245 C82.8887976,156.896527 82.4444475,157.985098 82.0635759,159.073668 C81.8026083,160.113807 81.5698535,161.248503 81.5204812,162.376281 C81.2665669,166.940436 84.0149549,171.363907 88,174"/>
    <path fill="#FFCB48" d="M131.159918,27 C139.205427,38.9573672 142.811641,53.9228915 140.11611,69.2373529 C134.581256,100.657656 104.601749,121.646336 73.1569309,116.115797 C60.3388938,113.86253 49.2577739,107.549734 41,98.7373615 L131.159918,27 Z"/>
    <g transform="translate(49)">
      <mask id="strategic-illustration-d" fill="#fff">
        <use xlink:href="#strategic-illustration-c"/>
      </mask>
      <path fill="#FF9A2E" d="M74.2822727,16.8871255 C66.305,9.08001685 56.0140909,3.51664728 44.2595455,1.4223375 C28.2595455,-1.42371685 12.6436364,2.70513098 0.459545455,11.6525005 L31.8254545,52.9202886 L74.2822727,16.8871255 Z" mask="url(#strategic-illustration-d)"/>
    </g>
    <path fill="#FF5E4D" d="M29.6972849,39 C28.4659268,42.3249622 27.5189046,45.8073738 26.8883209,49.4287114 C24.2765576,64.4211417 27.5510071,79.0847805 35.040049,91 L78,56.8172589 L29.6972849,39 Z"/>
    <path fill="#AACBE8" d="M69,47 L36.450828,8 C36.450828,8 27.704094,12.3411539 22,27.1469407 L69,47 Z"/>
  </g>
</svg>
