<svg xmlns="http://www.w3.org/2000/svg" viewBox="0 0 11 317">
  <g fill="#AACBE8" fill-rule="evenodd">
    <polygon points="5.959 307 5 307 5.039 0 6 .003"/>
    <path d="M5.50162578,307.355897 C3.21578481,307.355897 1.35914868,309.215785 1.35914868,311.498374 C1.35914868,313.784215 3.21578481,315.644103 5.50162578,315.644103 C7.78746675,315.644103 9.64410287,313.784215 9.64410287,311.498374 C9.64410287,309.215785 7.78746675,307.355897 5.50162578,307.355897 M5.50162578,317 C2.46792787,317 0,314.532072 0,311.498374 C0,308.467928 2.46792787,306 5.50162578,306 C8.53532368,306 11,308.467928 11,311.498374 C11,314.532072 8.53532368,317 5.50162578,317"/>
  </g>
</svg>
