<svg xmlns="http://www.w3.org/2000/svg" xmlns:xlink="http://www.w3.org/1999/xlink" viewBox="0 0 126 30">
  <defs>
    <path id="logo-a" d="M9.13212668,0.0109565214 L6.87565366,3.93871294 L4.65905757,7.79697371 C3.69297683,9.47739105 1.93247303,10.4086954 0.12897692,10.3911649 C0.147669227,10.391791 0.166361534,10.3933562 0.184742303,10.3933562 L13.566565,10.3921041 C13.5883727,10.3921041 13.6098689,10.3911649 13.631365,10.3911649 C13.6793419,10.3902258 13.7260727,10.3892867 13.7734266,10.3874084 C13.8123689,10.3855302 13.8513112,10.3839649 13.890565,10.3814606 C13.9360496,10.3783302 13.9809112,10.3751997 14.0263958,10.3708171 C14.0690766,10.3676867 14.1105112,10.3633041 14.1519458,10.3586084 C14.1915112,10.3535997 14.2304535,10.348278 14.2700189,10.3432693 C14.3186189,10.3366954 14.3672189,10.3298084 14.4158188,10.3213562 C14.4463496,10.3166606 14.4768804,10.3107128 14.5064765,10.3047649 C14.5637996,10.2944345 14.6204996,10.283478 14.6768881,10.2706432 C14.6977611,10.2659476 14.7186342,10.2606258 14.7398188,10.2565563 C14.8052419,10.2412171 14.8709765,10.2246258 14.9360881,10.2064693 C14.9473035,10.2033389 14.9582073,10.2005215 14.9684881,10.197391 C15.0438804,10.1761041 15.1180265,10.153878 15.1924842,10.1288345 C15.194665,10.1275823 15.1959111,10.1272693 15.1984034,10.1266432 C15.5230265,10.0177041 15.8404842,9.87464322 16.1489073,9.69652148 C16.2996919,9.60918235 16.442688,9.51495627 16.580388,9.41572149 C16.5869303,9.41133888 16.5931611,9.40726932 16.6000149,9.40257366 C16.6570265,9.3603128 16.7134149,9.31742584 16.7682457,9.27328671 C16.7835111,9.26107802 16.7987765,9.24949541 16.8146649,9.23666062 C16.8589034,9.20128671 16.9022072,9.1637215 16.944888,9.12615628 C16.969188,9.10549541 16.993488,9.08514759 17.0159188,9.06417367 C17.0489419,9.03443454 17.0816534,9.00250411 17.1152995,8.97213889 C17.1442726,8.94365194 17.1754265,8.91516498 17.2053342,8.8857389 C17.2308803,8.86069542 17.2558034,8.83377368 17.2801034,8.80810411 C17.313438,8.77335629 17.3477072,8.73860846 17.3797957,8.70292151 C17.4028495,8.67756499 17.4243457,8.65220847 17.4473995,8.62528673 C17.4801111,8.58803456 17.511888,8.55203456 17.5424188,8.5141563 C17.5701457,8.48159978 17.5956918,8.44810412 17.6218611,8.4155476 C17.6458495,8.3845563 17.6707726,8.353565 17.6950726,8.32226065 C17.7340149,8.26904326 17.7729572,8.2145737 17.8094072,8.16073022 C17.8178188,8.14852152 17.8271649,8.13662587 17.8361995,8.12441718 C18.301638,7.4354085 18.593238,6.64497374 18.6935534,5.82573898 C18.694488,5.81791289 18.6960457,5.81039985 18.6966687,5.8028868 C18.7044572,5.73902593 18.7094418,5.67516507 18.714738,5.61224333 C18.7166072,5.58438246 18.7190995,5.55746072 18.7209687,5.53053898 C18.7240841,5.48107812 18.7256418,5.43193029 18.7281341,5.38403464 C18.7287572,5.3405216 18.7306264,5.29919986 18.7312495,5.25599986 C18.7312495,5.21718247 18.7312495,5.17836508 18.7306264,5.1389216 C18.7300033,5.08883465 18.7287572,5.03843465 18.726888,4.98866074 C18.7256418,4.95297378 18.722838,4.91697378 18.7215918,4.88222596 C18.7178534,4.832139 18.714738,4.78111292 18.7100649,4.73165205 C18.7069495,4.69377379 18.703211,4.65683466 18.7000957,4.62020857 C18.6935534,4.57387814 18.6885687,4.52723466 18.6814034,4.48184336 C18.6757957,4.44083466 18.6704995,4.39951293 18.6636457,4.35787815 C18.6564803,4.31874771 18.6493149,4.27961728 18.642461,4.23954771 C18.6328034,4.19227815 18.6240803,4.14469554 18.6137995,4.09711293 C18.6072572,4.06549554 18.5997803,4.03387815 18.5919918,4.00351294 C18.5792187,3.94841729 18.5651995,3.89363468 18.5511803,3.83916512 C18.5455726,3.81506077 18.5384072,3.79189555 18.5315534,3.76841729 C18.5134841,3.70643468 18.4951034,3.64539121 18.4751649,3.58372164 C18.4701803,3.56775643 18.464261,3.55179121 18.4592764,3.53551295 C18.4355995,3.46789556 18.4125457,3.40059121 18.3860649,3.33328687 C18.3820149,3.32326948 18.3776534,3.31293904 18.3742264,3.30198252 C18.3455649,3.23092165 18.3156572,3.15860861 18.2845034,3.08754774 C18.2810764,3.08066079 18.2785841,3.07471296 18.2754687,3.06813905 C18.2427572,2.99426079 18.2072418,2.92163471 18.1707918,2.84932166 C18.1676764,2.84306079 18.1642495,2.83711297 18.1611341,2.83116514 C18.1253072,2.76073036 18.0863649,2.69029558 18.0467995,2.62048689 C17.1564226,1.06090432 15.4840842,0.0109565214 13.5662535,0.0109565214 L9.13212668,0.0109565214 Z"/>
    <linearGradient id="logo-b" x1="81.258%" x2="60.054%" y1="-41.787%" y2="20.529%">
      <stop offset="0%" stop-color="#D8AF1F"/>
      <stop offset="100%" stop-color="#FFD41F"/>
    </linearGradient>
    <path id="logo-d" d="M0.695665366,11.6840345 C0.693484597,11.6884171 0.691615366,11.6927997 0.689434597,11.6968693 C0.648311521,11.7682432 0.609369215,11.8402432 0.572296139,11.9125562 C0.570426908,11.9166258 0.5679346,11.9213214 0.565442293,11.9266432 C0.528369217,11.9995823 0.492853833,12.0734605 0.45920768,12.148591 C0.457026911,12.1539127 0.454223065,12.1592345 0.452042296,12.1648692 C0.419642297,12.2374953 0.389734605,12.3098084 0.360761529,12.3833736 C0.356711529,12.3924518 0.353596144,12.4015301 0.35048076,12.4102953 C0.323688453,12.4788518 0.299699992,12.5474084 0.275399993,12.616904 C0.270726916,12.6319301 0.266053839,12.6469562 0.261069224,12.6619823 C0.240196147,12.7236518 0.22150384,12.7871997 0.20343461,12.8498084 C0.197515379,12.8723475 0.190973072,12.8942605 0.184742303,12.9167997 C0.169476919,12.9718953 0.156080765,13.0279301 0.142684612,13.0833388 C0.135830766,13.114017 0.128353843,13.1450083 0.121499997,13.1753736 C0.110907689,13.2235823 0.101561536,13.272104 0.0928384591,13.3196866 C0.0859846131,13.358504 0.0785076902,13.3973214 0.0725884596,13.4361388 C0.0657346136,13.4780866 0.0591923061,13.5206605 0.053584614,13.5622953 C0.0473538449,13.6070605 0.0414346143,13.6527649 0.0367615375,13.6984692 C0.0323999991,13.7360344 0.0283499992,13.7742257 0.0252346147,13.8114779 C0.0208730764,13.8603127 0.0171346149,13.9103996 0.0143307689,13.9595475 C0.0118384612,13.9961735 0.010280769,14.0324866 0.00903461515,14.0687996 C0.00685384597,14.1176344 0.00591923061,14.1670953 0.0046730768,14.2171822 C0.0046730768,14.2566257 0.00436153835,14.2963822 0.0046730768,14.3358257 C0.00529615371,14.3780866 0.00623076907,14.4197214 0.00778846133,14.4622953 C0.00996923051,14.510817 0.0118384612,14.560904 0.0143307689,14.6097387 C0.0171346149,14.6369735 0.0186923072,14.6632692 0.0205615379,14.6892518 C0.0258576916,14.7534257 0.0314653838,14.8182257 0.0389423067,14.8827126 C0.039876922,14.8892866 0.0408115374,14.8961735 0.0420576912,14.9027474 C0.141126919,15.7238605 0.433973065,16.5161735 0.901903822,17.2054952 C0.904084591,17.2095648 0.907511514,17.2126952 0.909692284,17.2164517 C0.95268459,17.2796865 0.996923051,17.3416691 1.0427192,17.4036517 C1.06109997,17.427443 1.08041536,17.4512343 1.0994192,17.4759648 C1.13088459,17.5160343 1.16172689,17.5561039 1.19474997,17.5958604 C1.22123074,17.6277908 1.24895766,17.6590952 1.2760615,17.6903995 C1.30347689,17.7217039 1.32995766,17.7530082 1.35830766,17.7839995 C1.38665766,17.8149908 1.41563073,17.8456691 1.44460381,17.8754082 C1.4745115,17.9060865 1.50348458,17.9370778 1.53401534,17.967756 C1.55924996,17.9924865 1.58573073,18.017843 1.6122115,18.0425734 C1.64834996,18.0770082 1.68448842,18.111756 1.72280765,18.1461908 C1.74149995,18.1634082 1.76299611,18.1809386 1.78262303,18.198156 C1.8293538,18.2391647 1.87608457,18.2795473 1.92406149,18.3186778 C1.93621149,18.3283821 1.94867303,18.3377734 1.96082302,18.3471647 C2.01939225,18.3938082 2.07858456,18.4401386 2.13995764,18.4839647 C2.14307302,18.486156 2.14587687,18.4883473 2.14899225,18.4905386 C2.28887302,18.5919647 2.43467301,18.6861908 2.58701532,18.7744691 C2.89574992,18.953843 3.21445376,19.0972169 3.54001144,19.205843 C3.54063452,19.2064691 3.54156914,19.2070951 3.54250375,19.2070951 C3.61727298,19.2324517 3.69328836,19.2546778 3.76899221,19.2769038 C3.77896144,19.2797212 3.78861913,19.2828517 3.7988999,19.2847299 C3.86494605,19.3038256 3.93161528,19.3201038 3.99859605,19.3351299 C4.01822297,19.3404517 4.03784989,19.3451473 4.05778835,19.3489038 C4.11511143,19.3620517 4.1724345,19.3736343 4.23006912,19.3839647 C4.25966527,19.3892864 4.2898845,19.3949212 4.31979219,19.3996169 C4.36870373,19.4083821 4.41730373,19.4158951 4.46621527,19.4215299 C4.50546911,19.4271647 4.54441142,19.4324864 4.5839768,19.4371821 C4.62541142,19.4418777 4.66746911,19.4459473 4.7095268,19.4493908 C4.75501141,19.4534604 4.80049603,19.4569038 4.84598064,19.4603473 C4.88492295,19.4628517 4.92386525,19.4644169 4.96218448,19.4659821 C5.00984987,19.4675473 5.05720371,19.4684864 5.10518063,19.4694256 C6.91179212,19.4900864 8.67603439,18.5587821 9.64367282,16.8752343 L11.8602689,13.0169736 L9.6037959,9.08921715 L7.38501904,5.22970421 C6.45164983,3.60563469 6.49121521,1.68542604 7.32177673,0.150886953 L0.695665366,11.6840345 Z"/>
    <linearGradient id="logo-e" x1="112.722%" x2="73.949%" y1="80.672%" y2="61.744%">
      <stop offset="0%" stop-color="#009EDD"/>
      <stop offset="100%" stop-color="#00ACED"/>
    </linearGradient>
    <path id="logo-g" d="M0.462634603,0.178434778 C0.289730762,0.178434778 0.150473073,0.318991296 0.150473073,0.493043465 C0.150473073,0.666156504 0.289730762,0.807026066 0.462634603,0.807026066 L1.21624612,0.807026066 L1.21624612,8.56518238 C1.08290766,8.74017368 0.95673459,8.92142585 0.844580747,9.11707802 L0.77946921,9.22914758 C-0.0510923063,10.7636867 -0.0906576899,12.6838953 0.842711516,14.3079648 L3.06148838,18.1674778 L7.57443441,18.1674778 L12.0085612,18.1674778 C13.9263919,18.1674778 15.5987304,19.2174256 16.4891073,20.7770081 C16.487238,20.7723125 16.4841226,20.7666777 16.4816303,20.7622951 L9.85925743,9.23759976 L9.79009589,9.11676498 C9.68136897,8.92706063 9.56173821,8.74737368 9.43431898,8.57707803 L9.43431898,0.807026066 L10.0692343,0.807026066 C10.2418267,0.807026066 10.3823305,0.666156504 10.3823305,0.493043465 C10.3823305,0.318991296 10.2418267,0.178434778 10.0692343,0.178434778 L0.462634603,0.178434778 Z"/>
    <linearGradient id="logo-h" x1="-7.959%" x2="28.375%" y1="72.07%" y2="58.057%">
      <stop offset="0%" stop-color="#CC6715"/>
      <stop offset="100%" stop-color="#E67923"/>
    </linearGradient>
  </defs>
  <g fill="none" fill-rule="evenodd">
    <path fill="#123E53" d="M4.71518667,24.2208671 L2.38109723,24.2208671 L2.38109723,10.569598 L4.71518667,10.569598 L4.71518667,24.2208671 Z M2.19184674,6.94860524 C2.19184674,6.57010236 2.30749866,6.2504825 2.53880598,5.98973607 C2.77011329,5.72898964 3.11286354,5.59861838 3.567067,5.59861838 C4.02127046,5.59861838 4.36612347,5.72898964 4.60163637,5.98973607 C4.83714927,6.2504825 4.95490396,6.57010236 4.95490396,6.94860524 C4.95490396,7.32710812 4.83714927,7.64252246 4.60163637,7.89485771 C4.36612347,8.14719297 4.02127046,8.2733587 3.567067,8.2733587 C3.11286354,8.2733587 2.77011329,8.14719297 2.53880598,7.89485771 C2.30749866,7.64252246 2.19184674,7.32710812 2.19184674,6.94860524 Z M11.1767086,7.26402273 L11.1767086,10.569598 L13.7252819,10.569598 L13.7252819,12.3737861 L11.1767086,12.3737861 L11.1767086,20.8395916 C11.1767086,21.386318 11.2902577,21.7963566 11.5173595,22.0697198 C11.7444612,22.343083 12.1313695,22.4797625 12.6780958,22.4797625 C12.9472534,22.4797625 13.3173396,22.4292962 13.7883654,22.3283621 L13.7883654,24.2208671 C13.1743496,24.3890906 12.5771651,24.4732011 11.9967941,24.4732011 C10.9538083,24.4732011 10.1673753,24.1577867 9.63747122,23.5269486 C9.10756719,22.8961105 8.84261914,22.0003337 8.84261914,20.8395916 L8.84261914,12.3737861 L6.35712931,12.3737861 L6.35712931,10.569598 L8.84261914,10.569598 L8.84261914,7.26402273 L11.1767086,7.26402273 Z M21.6755744,24.4732011 C19.8251158,24.4732011 18.3195381,23.8655028 17.1587959,22.650088 C15.9980537,21.4346732 15.4176914,19.8092379 15.4176914,17.7737335 L15.4176914,17.3447658 C15.4176914,15.9905666 15.6763311,14.7814783 16.1936184,13.7174646 C16.7109057,12.6534509 17.4342559,11.8207571 18.3636907,11.2193581 C19.2931256,10.6179591 20.3003487,10.317264 21.3853903,10.317264 C23.1601483,10.317264 24.5395603,10.901832 25.5236678,12.0709853 C26.5077753,13.2401386 26.9998216,14.9139374 26.9998216,17.0924318 L26.9998216,18.0639176 L17.7517808,18.0639176 C17.7854255,19.4097057 18.178642,20.4968337 18.9314422,21.3253345 C19.6842424,22.1538353 20.6409992,22.5680794 21.8017414,22.5680794 C22.6260365,22.5680794 23.3241536,22.3998584 23.8961135,22.0634114 C24.4680734,21.7269644 24.9685309,21.2811788 25.3975008,20.7260413 L26.8231878,21.8363108 C25.679268,23.5942464 23.963414,24.4732011 21.6755744,24.4732011 Z M21.3853903,12.2350024 C20.4433387,12.2350024 19.6527001,12.5777526 19.0134508,13.2632634 C18.3742014,13.9487742 17.9788821,14.9097365 17.827481,16.1461793 L24.6657322,16.1461793 L24.6657322,15.9695455 C24.5984428,14.7835698 24.2788229,13.8646627 23.706863,13.2127966 C23.1349031,12.5609305 22.3610866,12.2350024 21.3853903,12.2350024 Z M35.8585165,12.6639702 C35.5052471,12.605092 35.1225444,12.5756533 34.7103968,12.5756533 C33.1795629,12.5756533 32.1407984,13.2275096 31.594072,14.5312417 L31.594072,24.2208671 L29.2599826,24.2208671 L29.2599826,10.569598 L31.5309885,10.569598 L31.5688386,12.1466855 C32.3342555,10.9270651 33.4192809,10.317264 34.8239471,10.317264 C35.2781506,10.317264 35.6230036,10.3761414 35.8585165,10.4938978 L35.8585165,12.6639702 Z M45.48683,24.2208671 C45.3522512,23.9517095 45.2429076,23.4722797 45.1587958,22.7825633 C44.0737542,23.9096608 42.7784527,24.4732011 41.2728523,24.4732011 C39.9270643,24.4732011 38.8231141,24.0926011 37.9609687,23.3313897 C37.0988232,22.5701784 36.667757,21.6050105 36.667757,20.4358572 C36.667757,19.0143686 37.2081669,17.9104184 38.2890029,17.1239735 C39.3698389,16.3375286 40.890136,15.9443121 42.8499398,15.9443121 L45.1209457,15.9443121 L45.1209457,14.8718926 C45.1209457,14.0560086 44.8770253,13.4062551 44.3891771,12.9226125 C43.901329,12.43897 43.1821843,12.1971523 42.2317215,12.1971523 C41.3990152,12.1971523 40.7008981,12.4074285 40.1373494,12.8279873 C39.5738006,13.248546 39.2920305,13.7574145 39.2920305,14.3546079 L36.9453243,14.3546079 C36.9453243,13.6733028 37.187142,13.0151382 37.6707846,12.3800944 C38.1544272,11.7450507 38.810489,11.2424905 39.6389897,10.8723988 C40.4674905,10.5023071 41.3779865,10.317264 42.3705052,10.317264 C43.943395,10.317264 45.1756136,10.7104806 46.0671982,11.4969255 C46.9587828,12.2833703 47.4213905,13.3662929 47.4550352,14.7457256 L47.4550352,21.0288421 C47.4550352,22.2821072 47.6148451,23.2788165 47.9344698,24.0189999 L47.9344698,24.2208671 L45.48683,24.2208671 Z M41.6135032,22.4419124 C42.3452755,22.4419124 43.039187,22.2526638 43.6952587,21.8741609 C44.3513303,21.4956581 44.8265546,21.0036117 45.1209457,20.3980071 L45.1209457,17.5970998 L43.2915243,17.5970998 C40.4317247,17.5970998 39.0018464,18.4339991 39.0018464,20.107823 C39.0018464,20.8395952 39.2457668,21.4115466 39.733615,21.8236941 C40.2214631,22.2358417 40.8480863,22.4419124 41.6135032,22.4419124 Z M53.8408569,7.26402273 L53.8408569,10.569598 L56.3894302,10.569598 L56.3894302,12.3737861 L53.8408569,12.3737861 L53.8408569,20.8395916 C53.8408569,21.386318 53.954406,21.7963566 54.1815078,22.0697198 C54.4086095,22.343083 54.7955178,22.4797625 55.3422441,22.4797625 C55.6114017,22.4797625 55.9814879,22.4292962 56.4525137,22.3283621 L56.4525137,24.2208671 C55.8384979,24.3890906 55.2413134,24.4732011 54.6609424,24.4732011 C53.6179566,24.4732011 52.8315236,24.1577867 52.3016195,23.5269486 C51.7717155,22.8961105 51.5067674,22.0003337 51.5067674,20.8395916 L51.5067674,12.3737861 L49.0212776,12.3737861 L49.0212776,10.569598 L51.5067674,10.569598 L51.5067674,7.26402273 L53.8408569,7.26402273 Z M64.3397227,24.4732011 C62.4892642,24.4732011 60.9836864,23.8655028 59.8229442,22.650088 C58.662202,21.4346732 58.0818397,19.8092379 58.0818397,17.7737335 L58.0818397,17.3447658 C58.0818397,15.9905666 58.3404794,14.7814783 58.8577667,13.7174646 C59.375054,12.6534509 60.0984042,11.8207571 61.027839,11.2193581 C61.9572739,10.6179591 62.964497,10.317264 64.0495386,10.317264 C65.8242966,10.317264 67.2037086,10.901832 68.1878161,12.0709853 C69.1719236,13.2401386 69.6639699,14.9139374 69.6639699,17.0924318 L69.6639699,18.0639176 L60.4159291,18.0639176 C60.4495738,19.4097057 60.8427903,20.4968337 61.5955905,21.3253345 C62.3483907,22.1538353 63.3051475,22.5680794 64.4658897,22.5680794 C65.2901848,22.5680794 65.9883019,22.3998584 66.5602618,22.0634114 C67.1322217,21.7269644 67.6326792,21.2811788 68.0616491,20.7260413 L69.4873361,21.8363108 C68.3434163,23.5942464 66.6275623,24.4732011 64.3397227,24.4732011 Z M64.0495386,12.2350024 C63.107487,12.2350024 62.3168484,12.5777526 61.6775991,13.2632634 C61.0383497,13.9487742 60.6430304,14.9097365 60.4916293,16.1461793 L67.3298805,16.1461793 L67.3298805,15.9695455 C67.2625911,14.7835698 66.9429712,13.8646627 66.3710113,13.2127966 C65.7990514,12.5609305 65.0252349,12.2350024 64.0495386,12.2350024 Z M71.9872144,23.3124647 C71.9872144,23.0180736 72.0818387,22.7678449 72.2710901,22.5617711 C72.4603416,22.3556973 72.7231868,22.2526619 73.0596338,22.2526619 C73.3960808,22.2526619 73.6610289,22.3556973 73.8544859,22.5617711 C74.0479429,22.7678449 74.14467,23.0180736 74.14467,23.3124647 C74.14467,23.6068558 74.0479429,23.8486735 73.8544859,24.0379249 C73.6610289,24.2271764 73.3960808,24.3218007 73.0596338,24.3218007 C72.7231868,24.3218007 72.4603416,24.2271764 72.2710901,24.0379249 C72.0818387,23.8486735 71.9872144,23.6068558 71.9872144,23.3124647 Z M86.4729573,24.2208671 C86.3215561,23.7918971 86.224829,23.1568629 86.1827732,22.3157454 C85.6528691,23.0054618 84.9778825,23.5374606 84.1577929,23.9117579 C83.3377033,24.2860552 82.4692625,24.4732011 81.5524444,24.4732011 C80.2403011,24.4732011 79.1784061,24.1073204 78.3667277,23.3755482 C77.5550493,22.643776 77.1492162,21.7185606 77.1492162,20.5998743 C77.1492162,19.2709086 77.7022427,18.2195275 78.8083122,17.4456994 C79.9143818,16.6718712 81.4557065,16.284963 83.4323326,16.284963 L86.1701565,16.284963 L86.1701565,14.7331089 C86.1701565,13.7574126 85.8694615,12.9899044 85.2680624,12.4305612 C84.6666634,11.8712181 83.7898116,11.5915507 82.6374806,11.5915507 C81.5860837,11.5915507 80.7155401,11.8607043 80.0258237,12.3990195 C79.3361074,12.9373347 78.9912544,13.5849855 78.9912544,14.3419912 L77.4772504,14.3293745 C77.4772504,13.2443329 77.9819133,12.3043982 78.9912544,11.5095422 C80.0005954,10.7146861 81.2412251,10.317264 82.7131808,10.317264 C84.2356035,10.317264 85.4362807,10.697864 86.3152485,11.4590754 C87.1942163,12.2202867 87.6463102,13.2821817 87.6715437,14.644792 L87.6715437,21.1045423 C87.6715437,22.4250968 87.810326,23.413395 88.0878948,24.0694667 L88.0878948,24.2208671 L86.4729573,24.2208671 Z M81.7290782,23.1358309 C82.7384192,23.1358309 83.6405042,22.8919105 84.4353603,22.4040623 C85.2302163,21.9162142 85.8084759,21.2643579 86.1701565,20.4484739 L86.1701565,17.4456994 L83.4701827,17.4456994 C81.9645824,17.4625217 80.7870355,17.7379836 79.9375068,18.2720932 C79.0879781,18.8062028 78.6632202,19.5400668 78.6632202,20.4737073 C78.6632202,21.2391242 78.9470931,21.8741584 79.5148474,22.3788289 C80.0826017,22.8834994 80.8206713,23.1358309 81.7290782,23.1358309 Z M92.9470959,24.2208671 L91.4330919,24.2208671 L91.4330919,10.569598 L92.9470959,10.569598 L92.9470959,24.2208671 Z M91.1681412,6.62057105 C91.1681412,6.33459109 91.2606628,6.09277344 91.4457086,5.89511082 C91.6307545,5.6974482 91.8830859,5.59861838 92.2027106,5.59861838 C92.5223353,5.59861838 92.7767695,5.6974482 92.9660209,5.89511082 C93.1552724,6.09277344 93.2498967,6.33459109 93.2498967,6.62057105 C93.2498967,6.906551 93.1552724,7.1462659 92.9660209,7.33972293 C92.7767695,7.53317996 92.5223353,7.62990702 92.2027106,7.62990702 C91.8830859,7.62990702 91.6307545,7.53317996 91.4457086,7.33972293 C91.2606628,7.1462659 91.1681412,6.906551 91.1681412,6.62057105 Z" transform="translate(32.4 1)"/>
    <g transform="translate(0 .7)">
      <g transform="translate(5.296 18.157)">
        <mask id="logo-c" fill="#fff">
          <use xlink:href="#logo-a"/>
        </mask>
        <path fill="url(#logo-b)" d="M9.13212668,0.0109565214 L6.87565366,3.93871294 L4.65905757,7.79697371 C3.69297683,9.47739105 1.93247303,10.4086954 0.12897692,10.3911649 C0.147669227,10.391791 0.166361534,10.3933562 0.184742303,10.3933562 L13.566565,10.3921041 C13.5883727,10.3921041 13.6098689,10.3911649 13.631365,10.3911649 C13.6793419,10.3902258 13.7260727,10.3892867 13.7734266,10.3874084 C13.8123689,10.3855302 13.8513112,10.3839649 13.890565,10.3814606 C13.9360496,10.3783302 13.9809112,10.3751997 14.0263958,10.3708171 C14.0690766,10.3676867 14.1105112,10.3633041 14.1519458,10.3586084 C14.1915112,10.3535997 14.2304535,10.348278 14.2700189,10.3432693 C14.3186189,10.3366954 14.3672189,10.3298084 14.4158188,10.3213562 C14.4463496,10.3166606 14.4768804,10.3107128 14.5064765,10.3047649 C14.5637996,10.2944345 14.6204996,10.283478 14.6768881,10.2706432 C14.6977611,10.2659476 14.7186342,10.2606258 14.7398188,10.2565563 C14.8052419,10.2412171 14.8709765,10.2246258 14.9360881,10.2064693 C14.9473035,10.2033389 14.9582073,10.2005215 14.9684881,10.197391 C15.0438804,10.1761041 15.1180265,10.153878 15.1924842,10.1288345 C15.194665,10.1275823 15.1959111,10.1272693 15.1984034,10.1266432 C15.5230265,10.0177041 15.8404842,9.87464322 16.1489073,9.69652148 C16.2996919,9.60918235 16.442688,9.51495627 16.580388,9.41572149 C16.5869303,9.41133888 16.5931611,9.40726932 16.6000149,9.40257366 C16.6570265,9.3603128 16.7134149,9.31742584 16.7682457,9.27328671 C16.7835111,9.26107802 16.7987765,9.24949541 16.8146649,9.23666062 C16.8589034,9.20128671 16.9022072,9.1637215 16.944888,9.12615628 C16.969188,9.10549541 16.993488,9.08514759 17.0159188,9.06417367 C17.0489419,9.03443454 17.0816534,9.00250411 17.1152995,8.97213889 C17.1442726,8.94365194 17.1754265,8.91516498 17.2053342,8.8857389 C17.2308803,8.86069542 17.2558034,8.83377368 17.2801034,8.80810411 C17.313438,8.77335629 17.3477072,8.73860846 17.3797957,8.70292151 C17.4028495,8.67756499 17.4243457,8.65220847 17.4473995,8.62528673 C17.4801111,8.58803456 17.511888,8.55203456 17.5424188,8.5141563 C17.5701457,8.48159978 17.5956918,8.44810412 17.6218611,8.4155476 C17.6458495,8.3845563 17.6707726,8.353565 17.6950726,8.32226065 C17.7340149,8.26904326 17.7729572,8.2145737 17.8094072,8.16073022 C17.8178188,8.14852152 17.8271649,8.13662587 17.8361995,8.12441718 C18.301638,7.4354085 18.593238,6.64497374 18.6935534,5.82573898 C18.694488,5.81791289 18.6960457,5.81039985 18.6966687,5.8028868 C18.7044572,5.73902593 18.7094418,5.67516507 18.714738,5.61224333 C18.7166072,5.58438246 18.7190995,5.55746072 18.7209687,5.53053898 C18.7240841,5.48107812 18.7256418,5.43193029 18.7281341,5.38403464 C18.7287572,5.3405216 18.7306264,5.29919986 18.7312495,5.25599986 C18.7312495,5.21718247 18.7312495,5.17836508 18.7306264,5.1389216 C18.7300033,5.08883465 18.7287572,5.03843465 18.726888,4.98866074 C18.7256418,4.95297378 18.722838,4.91697378 18.7215918,4.88222596 C18.7178534,4.832139 18.714738,4.78111292 18.7100649,4.73165205 C18.7069495,4.69377379 18.703211,4.65683466 18.7000957,4.62020857 C18.6935534,4.57387814 18.6885687,4.52723466 18.6814034,4.48184336 C18.6757957,4.44083466 18.6704995,4.39951293 18.6636457,4.35787815 C18.6564803,4.31874771 18.6493149,4.27961728 18.642461,4.23954771 C18.6328034,4.19227815 18.6240803,4.14469554 18.6137995,4.09711293 C18.6072572,4.06549554 18.5997803,4.03387815 18.5919918,4.00351294 C18.5792187,3.94841729 18.5651995,3.89363468 18.5511803,3.83916512 C18.5455726,3.81506077 18.5384072,3.79189555 18.5315534,3.76841729 C18.5134841,3.70643468 18.4951034,3.64539121 18.4751649,3.58372164 C18.4701803,3.56775643 18.464261,3.55179121 18.4592764,3.53551295 C18.4355995,3.46789556 18.4125457,3.40059121 18.3860649,3.33328687 C18.3820149,3.32326948 18.3776534,3.31293904 18.3742264,3.30198252 C18.3455649,3.23092165 18.3156572,3.15860861 18.2845034,3.08754774 C18.2810764,3.08066079 18.2785841,3.07471296 18.2754687,3.06813905 C18.2427572,2.99426079 18.2072418,2.92163471 18.1707918,2.84932166 C18.1676764,2.84306079 18.1642495,2.83711297 18.1611341,2.83116514 C18.1253072,2.76073036 18.0863649,2.69029558 18.0467995,2.62048689 C17.1564226,1.06090432 15.4840842,0.0109565214 13.5662535,0.0109565214 L9.13212668,0.0109565214 Z" mask="url(#logo-c)"/>
      </g>
      <path fill="#8DC63F" d="M8.99704361 1.35688692C9.03193591 1.3293391 9.06682822 1.30241736 9.10234361 1.27612171 9.06682822 1.30241736 9.03193591 1.3293391 8.99704361 1.35688692M9.19371783 1.21013214C9.23546399 1.18070606 9.27721014 1.15190606 9.31989091 1.12373214 9.27721014 1.15159301 9.23546399 1.18070606 9.19371783 1.21013214M15.1365319 1.20158606C15.1745396 1.22819475 15.2125473 1.25574258 15.2502434 1.28391649 15.2125473 1.25574258 15.1745396 1.22850779 15.1365319 1.20158606M8.46932862 1.83070952C8.47774016 1.8219443 8.48677478 1.812553 8.49549785 1.80378778 8.48677478 1.812553 8.47774016 1.8219443 8.46932862 1.83070952M8.63696746 1.6656417C8.65441362 1.64936343 8.67154823 1.63308517 8.68899439 1.61711996 8.67154823 1.63308517 8.65441362 1.64936343 8.63696746 1.6656417M8.81251938 1.50821213C8.83868861 1.48535996 8.86485784 1.46250779 8.89165015 1.44090779 8.86485784 1.46250779 8.83868861 1.48535996 8.81251938 1.50821213M15.331555 1.34618083C15.3751704 1.37936344 15.4175396 1.41379822 15.4602204 1.44885909 15.4181627 1.41379822 15.3751704 1.37936344 15.331555 1.34618083M14.7550219.956097366C14.7372642.946079975 14.7201296.937001714 14.7020604.926984323 14.7397565.948271279 14.7768296.970184322 14.8132796.992097365 14.7939642.980514757 14.7746488.967366931 14.7550219.956097366M12.0506812.261516515C12.097412.260577384 12.1450774.261203471 12.1921197.261516515 12.1450774.261203471 12.097412.260264341 12.0506812.261516515M14.2220108.688006938C14.2777762.711798242 14.3326069.73778085 14.3877492.763763458 14.3326069.737467807 14.2777762.712111285 14.2220108.688006938M9.40394398 1.06919997C9.44880552 1.04039997 9.49460167 1.0125391 9.54039782.984991278 9.49491321 1.01222606 9.44880552 1.04039997 9.40394398 1.06919997M14.4653846.801422587C14.5099346.82333563 14.5532385.846500847 14.5968538.869979107 14.5532385.846500847 14.5093115.82333563 14.4653846.801422587M10.3581863.59108868C10.363794.589210419 10.3687786.587332158 10.3737632.585453898 10.3687786.587332158 10.363794.589210419 10.3581863.59108868M12.2878243.261516515C12.9408089.277168688 13.5844473.417412163 14.1838473.671916504 13.569805.409586076 12.9267897.275290427 12.2878243.261516515M9.86776243.806306066C9.90109705.789088675 9.9347432.773436501 9.96838935.757471284 9.9347432.773436501 9.90109705.789088675 9.86776243.806306066M10.1120709.691356503C10.1323209.682591286 10.1525709.674139113 10.1728209.665686939 10.1525709.674139113 10.1323209.68290433 10.1120709.691356503M9.62956013.933464323C9.6722409.909359976 9.71492167.886194759 9.75822551.863342586 9.71492167.886194759 9.6722409.909359976 9.62956013.933464323M14.9272404 1.06187475C14.9624442 1.08441388 14.9979596 1.1075791 15.0331634 1.13074432 14.9979596 1.1075791 14.9624442 1.08441388 14.9272404 1.06187475M1.92353187 20.8597455C1.89736264 20.8350151 1.87119341 20.8099716 1.84533572 20.7852412 1.87119341 20.8099716 1.89736264 20.8350151 1.92353187 20.8597455M3.85407336 22.0244864C3.85313874 22.0244864 3.85220413 22.0238603 3.85158105 22.0232342 3.85220413 22.0238603 3.85313874 22.0238603 3.85407336 22.0244864M4.11037604 22.1021212C4.10040681 22.0996168 4.09043758 22.0967994 4.08046835 22.0942951 4.09043758 22.0967994 4.10040681 22.0996168 4.11037604 22.1021212M.316242684 17.03473C.317177299 16.984643.318423453 16.9351822.320292684 16.8860343.318423453 16.9351822.317177299 16.984643.316242684 17.03473M2.27248609 21.1645247C2.26002456 21.1551334 2.24787456 21.145742 2.23603609 21.1360377 2.24787456 21.145742 2.26002456 21.1551334 2.27248609 21.1645247M4.8954841 22.2543542C4.85591872 22.2499716 4.81697641 22.2446498 4.77772257 22.2390151 4.81697641 22.2446498 4.85591872 22.2499716 4.8954841 22.2543542M4.63123719 22.2170707C4.60132949 22.212062 4.57173334 22.2067403 4.54151411 22.2011055 4.57173334 22.2067403 4.60132949 22.212062 4.63123719 22.2170707M.325682299 16.7770326C.328486145 16.7278848.332536145 16.6777978.336586145 16.62865.332536145 16.6784239.328486145 16.7278848.325682299 16.7770326M4.36945142 22.1663264C4.34951296 22.1625698 4.32988604 22.1578742 4.30994758 22.1525525 4.32988604 22.1578742 4.34951296 22.1625698 4.36945142 22.1663264M2.46049955 21.3078986C2.4576957 21.3053942 2.45458032 21.303516 2.45177647 21.3013247 2.45458032 21.303516 2.4576957 21.3053942 2.46049955 21.3078986M1.58766227 20.5075716C1.56055842 20.4762673 1.5328315 20.445276 1.50603919 20.4133455 1.5328315 20.445276 1.56055842 20.4762673 1.58766227 20.5075716M1.75636034 20.6928308C1.72707572 20.6627786 1.69810265 20.6324134 1.66975265 20.601109 1.69810265 20.6324134 1.72707572 20.6627786 1.75636034 20.6928308M.353378068 17.7201387C.352443452 17.7135647.351508837 17.7066778.350574221 17.7004169.351508837 17.7066778.352443452 17.7135647.353378068 17.7201387M1.41073958 20.2932621C1.39235881 20.2685316 1.37242035 20.2450534 1.35435112 20.220949 1.37242035 20.2447403 1.39235881 20.2685316 1.41073958 20.2932621M1.22119958 20.0337177C1.21901881 20.0299612 1.21559189 20.0271438 1.21341112 20.0227612 1.21559189 20.0271438 1.21901881 20.0299612 1.22119958 20.0337177M2.09406802 21.0156412C2.0744411 20.9984238 2.05356802 20.9808934 2.03425264 20.963676 2.05356802 20.9808934 2.07381802 20.9984238 2.09406802 21.0156412M.319295761 17.2793108C.317738069 17.23705.316803453 17.1954152.316180376 17.1534674.316803453 17.1947891.317738069 17.23705.319295761 17.2793108M.332068837 17.5067369C.330199607 17.4807543.328330376 17.4541456.326149607 17.4272239.328330376 17.4541456.330199607 17.4807543.332068837 17.5067369M.876949592 14.7434709C.8794419 14.7387753.881934207 14.7340796.883803438 14.73001.881934207 14.7340796.8794419 14.7387753.876949592 14.7434709M15.516235 1.49628518C15.565458 1.538233 15.6143696 1.58111996 15.6623465 1.62494604 15.6143696 1.581433 15.5660811 1.53854605 15.516235 1.49628518M8.30704824 2.00588864C8.30860593 2.00401038 8.31016363 2.00244516 8.31140978 2.0005669 8.31016363 2.00244516 8.30860593 2.00401038 8.30704824 2.00588864M.763331518 14.9822292C.765823826 14.9765944.768316133 14.9712726.770808441 14.9659509.768316133 14.9712726.765823826 14.9765944.763331518 14.9822292M.662019213 15.2276866C.665446136 15.2189213.668561521 15.2098431.672299982 15.2007648.668561521 15.2098431.665446136 15.2189213.662019213 15.2276866M15.6914754 1.65249387C15.7469292 1.70477213 15.80176 1.75767648 15.8556561 1.81277213 15.8020715 1.75798952 15.7475523 1.70477213 15.6914754 1.65249387M16.7131034 2.97682427C16.4866149 2.55640689 16.2003111 2.16572864 15.8601111 1.81699821 16.1570073 2.12190255 16.4215034 2.46906776 16.6436303 2.85567645L16.7131034 2.97682427zM5.41662563 22.2867542C5.3686487 22.2861281 5.32129486 22.2848759 5.27394101 22.2833107 5.32129486 22.2848759 5.3686487 22.2861281 5.41662563 22.2867542M.347894991 16.5156413C.352879606 16.469937.358798837 16.4245457.365341144 16.3794674.358798837 16.4251717.352879606 16.469937.347894991 16.5156413M5.1575814 22.2776133C5.11209679 22.2741698 5.06661217 22.2710394 5.02112756 22.2669698 5.06661217 22.2710394 5.11240833 22.2741698 5.1575814 22.2776133M.384095759 16.2533422C.39001499 16.2148378.397491913 16.1760204.404345759 16.1372031.397491913 16.1760204.39001499 16.2148378.384095759 16.2533422M.433069604 15.99289C.43992345 15.9622118.447400373 15.9315335.454254219 15.9005422.447400373 15.9315335.43992345 15.9622118.433069604 15.99289M.572420754 15.4793109C.577405369 15.4642848.582389985 15.4492587.5873746 15.4342326.582389985 15.4492587.577405369 15.4642848.572420754 15.4793109M.496218448 15.7342535C.502449217 15.7117144.509303063 15.6894883.515222294 15.6669492.508679987 15.6894883.502449217 15.7117144.496218448 15.7342535" transform="translate(0 6.26)"/>
      <g transform="translate(.312 9.078)">
        <mask id="logo-f" fill="#fff">
          <use xlink:href="#logo-d"/>
        </mask>
        <path fill="url(#logo-e)" d="M0.695665366,11.6840345 C0.693484597,11.6884171 0.691615366,11.6927997 0.689434597,11.6968693 C0.648311521,11.7682432 0.609369215,11.8402432 0.572296139,11.9125562 C0.570426908,11.9166258 0.5679346,11.9213214 0.565442293,11.9266432 C0.528369217,11.9995823 0.492853833,12.0734605 0.45920768,12.148591 C0.457026911,12.1539127 0.454223065,12.1592345 0.452042296,12.1648692 C0.419642297,12.2374953 0.389734605,12.3098084 0.360761529,12.3833736 C0.356711529,12.3924518 0.353596144,12.4015301 0.35048076,12.4102953 C0.323688453,12.4788518 0.299699992,12.5474084 0.275399993,12.616904 C0.270726916,12.6319301 0.266053839,12.6469562 0.261069224,12.6619823 C0.240196147,12.7236518 0.22150384,12.7871997 0.20343461,12.8498084 C0.197515379,12.8723475 0.190973072,12.8942605 0.184742303,12.9167997 C0.169476919,12.9718953 0.156080765,13.0279301 0.142684612,13.0833388 C0.135830766,13.114017 0.128353843,13.1450083 0.121499997,13.1753736 C0.110907689,13.2235823 0.101561536,13.272104 0.0928384591,13.3196866 C0.0859846131,13.358504 0.0785076902,13.3973214 0.0725884596,13.4361388 C0.0657346136,13.4780866 0.0591923061,13.5206605 0.053584614,13.5622953 C0.0473538449,13.6070605 0.0414346143,13.6527649 0.0367615375,13.6984692 C0.0323999991,13.7360344 0.0283499992,13.7742257 0.0252346147,13.8114779 C0.0208730764,13.8603127 0.0171346149,13.9103996 0.0143307689,13.9595475 C0.0118384612,13.9961735 0.010280769,14.0324866 0.00903461515,14.0687996 C0.00685384597,14.1176344 0.00591923061,14.1670953 0.0046730768,14.2171822 C0.0046730768,14.2566257 0.00436153835,14.2963822 0.0046730768,14.3358257 C0.00529615371,14.3780866 0.00623076907,14.4197214 0.00778846133,14.4622953 C0.00996923051,14.510817 0.0118384612,14.560904 0.0143307689,14.6097387 C0.0171346149,14.6369735 0.0186923072,14.6632692 0.0205615379,14.6892518 C0.0258576916,14.7534257 0.0314653838,14.8182257 0.0389423067,14.8827126 C0.039876922,14.8892866 0.0408115374,14.8961735 0.0420576912,14.9027474 C0.141126919,15.7238605 0.433973065,16.5161735 0.901903822,17.2054952 C0.904084591,17.2095648 0.907511514,17.2126952 0.909692284,17.2164517 C0.95268459,17.2796865 0.996923051,17.3416691 1.0427192,17.4036517 C1.06109997,17.427443 1.08041536,17.4512343 1.0994192,17.4759648 C1.13088459,17.5160343 1.16172689,17.5561039 1.19474997,17.5958604 C1.22123074,17.6277908 1.24895766,17.6590952 1.2760615,17.6903995 C1.30347689,17.7217039 1.32995766,17.7530082 1.35830766,17.7839995 C1.38665766,17.8149908 1.41563073,17.8456691 1.44460381,17.8754082 C1.4745115,17.9060865 1.50348458,17.9370778 1.53401534,17.967756 C1.55924996,17.9924865 1.58573073,18.017843 1.6122115,18.0425734 C1.64834996,18.0770082 1.68448842,18.111756 1.72280765,18.1461908 C1.74149995,18.1634082 1.76299611,18.1809386 1.78262303,18.198156 C1.8293538,18.2391647 1.87608457,18.2795473 1.92406149,18.3186778 C1.93621149,18.3283821 1.94867303,18.3377734 1.96082302,18.3471647 C2.01939225,18.3938082 2.07858456,18.4401386 2.13995764,18.4839647 C2.14307302,18.486156 2.14587687,18.4883473 2.14899225,18.4905386 C2.28887302,18.5919647 2.43467301,18.6861908 2.58701532,18.7744691 C2.89574992,18.953843 3.21445376,19.0972169 3.54001144,19.205843 C3.54063452,19.2064691 3.54156914,19.2070951 3.54250375,19.2070951 C3.61727298,19.2324517 3.69328836,19.2546778 3.76899221,19.2769038 C3.77896144,19.2797212 3.78861913,19.2828517 3.7988999,19.2847299 C3.86494605,19.3038256 3.93161528,19.3201038 3.99859605,19.3351299 C4.01822297,19.3404517 4.03784989,19.3451473 4.05778835,19.3489038 C4.11511143,19.3620517 4.1724345,19.3736343 4.23006912,19.3839647 C4.25966527,19.3892864 4.2898845,19.3949212 4.31979219,19.3996169 C4.36870373,19.4083821 4.41730373,19.4158951 4.46621527,19.4215299 C4.50546911,19.4271647 4.54441142,19.4324864 4.5839768,19.4371821 C4.62541142,19.4418777 4.66746911,19.4459473 4.7095268,19.4493908 C4.75501141,19.4534604 4.80049603,19.4569038 4.84598064,19.4603473 C4.88492295,19.4628517 4.92386525,19.4644169 4.96218448,19.4659821 C5.00984987,19.4675473 5.05720371,19.4684864 5.10518063,19.4694256 C6.91179212,19.4900864 8.67603439,18.5587821 9.64367282,16.8752343 L11.8602689,13.0169736 L9.6037959,9.08921715 L7.38501904,5.22970421 C6.45164983,3.60563469 6.49121521,1.68542604 7.32177673,0.150886953 L0.695665366,11.6840345 Z" mask="url(#logo-f)"/>
      </g>
      <g transform="translate(6.854)">
        <mask id="logo-i" fill="#fff">
          <use xlink:href="#logo-g"/>
        </mask>
        <path fill="url(#logo-h)" d="M0.462634603,0.178434778 C0.289730762,0.178434778 0.150473073,0.318991296 0.150473073,0.493043465 C0.150473073,0.666156504 0.289730762,0.807026066 0.462634603,0.807026066 L1.21624612,0.807026066 L1.21624612,8.56518238 C1.08290766,8.74017368 0.95673459,8.92142585 0.844580747,9.11707802 L0.77946921,9.22914758 C-0.0510923063,10.7636867 -0.0906576899,12.6838953 0.842711516,14.3079648 L3.06148838,18.1674778 L7.57443441,18.1674778 L12.0085612,18.1674778 C13.9263919,18.1674778 15.5987304,19.2174256 16.4891073,20.7770081 C16.487238,20.7723125 16.4841226,20.7666777 16.4816303,20.7622951 L9.85925743,9.23759976 L9.79009589,9.11676498 C9.68136897,8.92706063 9.56173821,8.74737368 9.43431898,8.57707803 L9.43431898,0.807026066 L10.0692343,0.807026066 C10.2418267,0.807026066 10.3823305,0.666156504 10.3823305,0.493043465 C10.3823305,0.318991296 10.2418267,0.178434778 10.0692343,0.178434778 L0.462634603,0.178434778 Z" mask="url(#logo-i)"/>
      </g>
    </g>
  </g>
</svg>
